<?xml version="1.0" encoding="UTF-8" standalone="no"?>
<svg
   xmlns:dc="http://purl.org/dc/elements/1.1/"
   xmlns:cc="http://creativecommons.org/ns#"
   xmlns:rdf="http://www.w3.org/1999/02/22-rdf-syntax-ns#"
   xmlns:svg="http://www.w3.org/2000/svg"
   xmlns="http://www.w3.org/2000/svg"
   xmlns:sodipodi="http://sodipodi.sourceforge.net/DTD/sodipodi-0.dtd"
   xmlns:inkscape="http://www.inkscape.org/namespaces/inkscape"
   id="b15aa787-28cf-46ed-b363-0df1de40c89a"
   data-name="Layer 1"
   width="896.67535"
   height="896.67535"
   viewBox="0 0 896.67538 896.67536"
   version="1.1"
   sodipodi:docname="branding.svg"
   inkscape:version="0.92.4 (5da689c313, 2019-01-14)">
  <metadata
     id="metadata185">
    <rdf:RDF>
      <cc:Work
         rdf:about="">
        <dc:format>image/svg+xml</dc:format>
        <dc:type
           rdf:resource="http://purl.org/dc/dcmitype/StillImage" />
        <dc:title></dc:title>
      </cc:Work>
    </rdf:RDF>
  </metadata>
  <defs
     id="defs183" />
  <sodipodi:namedview
     pagecolor="#ffffff"
     bordercolor="#666666"
     borderopacity="1"
     objecttolerance="10"
     gridtolerance="10"
     guidetolerance="10"
     inkscape:pageopacity="0"
     inkscape:pageshadow="2"
     inkscape:window-width="1920"
     inkscape:window-height="1017"
     id="namedview181"
     showgrid="false"
     inkscape:zoom="1.280285"
     inkscape:cx="343.08846"
     inkscape:cy="380.60479"
     inkscape:window-x="-8"
     inkscape:window-y="-8"
     inkscape:window-maximized="1"
     inkscape:current-layer="b15aa787-28cf-46ed-b363-0df1de40c89a" />
  <path
     style="fill:#00c2a3;stroke:none;stroke-width:1px;stroke-linecap:butt;stroke-linejoin:miter;stroke-opacity:1;fill-opacity:0.09803922"
     d="M 498.32655,199.95548 C 426.29815,371.22206 232.75154,240.88935 110.91281,313.99259 -45.30599,407.72387 235.65299,1137.4788 746.70874,626.42303 869.51849,503.61328 646.53545,153.37554 498.32655,199.95548 Z"
     id="path1000"
     inkscape:connector-curvature="0" />
  <circle
     cx="280.35324"
     cy="321.90182"
     r="6.4668899"
     id="circle4"
     style="fill:#a4f2e3;fill-opacity:1" />
  <circle
     cx="254.57993"
     cy="321.90182"
     r="6.4668899"
     id="circle6"
     style="fill:#a4f2e3;fill-opacity:1" />
  <circle
     cx="228.80663"
     cy="321.90182"
     r="6.4668899"
     id="circle8"
     style="fill:#a4f2e3;fill-opacity:1" />
  <circle
     cx="203.03333"
     cy="321.90182"
     r="6.4668899"
     id="circle10"
     style="fill:#a4f2e3;fill-opacity:1" />
  <circle
     cx="280.35324"
     cy="348.90186"
     r="6.4668899"
     id="circle12"
     style="fill:#a4f2e3;fill-opacity:1" />
  <circle
     cx="254.57993"
     cy="348.90186"
     r="6.4668899"
     id="circle14"
     style="fill:#a4f2e3;fill-opacity:1" />
  <circle
     cx="228.80663"
     cy="348.90186"
     r="6.4668899"
     id="circle16"
     style="fill:#a4f2e3;fill-opacity:1" />
  <circle
     cx="203.03333"
     cy="348.90186"
     r="6.4668899"
     id="circle18"
     style="fill:#a4f2e3;fill-opacity:1" />
  <circle
     cx="280.35324"
     cy="375.90186"
     r="6.4668899"
     id="circle20"
     style="fill:#a4f2e3;fill-opacity:1" />
  <circle
     cx="254.57993"
     cy="375.90186"
     r="6.4668899"
     id="circle22"
     style="fill:#a4f2e3;fill-opacity:1" />
  <circle
     cx="228.80663"
     cy="375.90186"
     r="6.4668899"
     id="circle24"
     style="fill:#a4f2e3;fill-opacity:1" />
  <circle
     cx="203.03333"
     cy="375.90186"
     r="6.4668899"
     id="circle26"
     style="fill:#a4f2e3;fill-opacity:1" />
  <circle
     cx="280.35324"
     cy="402.90179"
     r="6.4668899"
     id="circle28"
     style="fill:#a4f2e3;fill-opacity:1" />
  <circle
     cx="254.57993"
     cy="402.90179"
     r="6.4668899"
     id="circle30"
     style="fill:#a4f2e3;fill-opacity:1" />
  <circle
     cx="228.80663"
     cy="402.90179"
     r="6.4668899"
     id="circle32"
     style="fill:#a4f2e3;fill-opacity:1" />
  <circle
     cx="203.03333"
     cy="402.90179"
     r="6.4668899"
     id="circle34"
     style="fill:#a4f2e3;fill-opacity:1" />
  <circle
     cx="280.35324"
     cy="429.90179"
     r="6.4668899"
     id="circle36"
     style="fill:#a4f2e3;fill-opacity:1" />
  <circle
     cx="254.57993"
     cy="429.90179"
     r="6.4668899"
     id="circle38"
     style="fill:#a4f2e3;fill-opacity:1" />
  <circle
     cx="228.80663"
     cy="429.90179"
     r="6.4668899"
     id="circle40"
     style="fill:#a4f2e3;fill-opacity:1" />
  <circle
     cx="203.03333"
     cy="429.90179"
     r="6.4668899"
     id="circle42"
     style="fill:#a4f2e3;fill-opacity:1" />
  <circle
     cx="280.35324"
     cy="456.90179"
     r="6.4668899"
     id="circle44"
     style="fill:#f2f2f2" />
  <circle
     cx="254.57993"
     cy="456.90179"
     r="6.4668899"
     id="circle46"
     style="fill:#f2f2f2" />
  <circle
     cx="228.80663"
     cy="456.90179"
     r="6.4668899"
     id="circle48"
     style="fill:#f2f2f2" />
  <circle
     cx="203.03333"
     cy="456.90179"
     r="6.4668899"
     id="circle50"
     style="fill:#f2f2f2" />
  <path
     d="m 223.52813,633.32146 v 2 a 12.51087,12.51087 0 0 0 12.5,12.5 h 90 a 12.50461,12.50461 0 0 0 12.5,-12.5 v -2 a 12.41025,12.41025 0 0 0 -2.90039,-8 12.85917,12.85917 0 0 0 -2.10987,-2 c 0,0 -49.48,-1.12 -49.48,-2.5 h -48.00974 a 12.51734,12.51734 0 0 0 -12.5,12.5 z"
     id="path52"
     inkscape:connector-curvature="0"
     style="fill:#a09fbb;fill-opacity:1" />
  <rect
     x="275.25168"
     y="647.32489"
     width="13"
     height="84"
     id="rect54"
     style="fill:#a09fbb;fill-opacity:1" />
  <path
     d="m 325.25169,730.86819 c 0,1.40463 -19.69947,0.5433 -44,0.5433 -24.30053,0 -44,0.86133 -44,-0.5433 0,-1.40463 19.69948,-12.54331 44,-12.54331 24.30052,0 44,11.13868 44,12.54331 z"
     id="path56"
     inkscape:connector-curvature="0"
     style="fill:#a09fbb;fill-opacity:1" />
  <path
     d="m 307.37869,631.62511 a 10.7427,10.7427 0 0 0 -3.80711,-16.02664 l -27.55289,-93.88524 -20.9809,10.27567 33.68091,89.055 a 10.80091,10.80091 0 0 0 18.66,10.58123 z"
     id="path58"
     inkscape:connector-curvature="0"
     style="fill:#a0616a" />
  <path
     d="m 282.26069,537.39209 -23.48261,6.35682 a 4.81687,4.81687 0 0 1 -6.04231,-4.08554 l -2.83827,-24.08746 a 13.37737,13.37737 0 0 1 25.8455,-6.91525 l 9.674,22.1558 a 4.81688,4.81688 0 0 1 -3.15629,6.57563 z"
     id="path60"
     inkscape:connector-curvature="0"
     style="fill:#00bfa6" />
  <polygon
     points="313.514,418.304 313.516,450.101 325.776,450.1 331.609,418.304 "
     id="polygon62"
     style="fill:#a0616a"
     transform="translate(0,270.92161)" />
  <path
     d="m 310.38863,717.0198 24.1438,-10e-4 h 0.001 a 15.38605,15.38605 0 0 1 15.38648,15.38623 v 0.5 l -39.53052,10e-4 z"
     id="path64"
     inkscape:connector-curvature="0"
     style="fill:#2f2e41" />
  <path
     d="m 327.74636,703.97181 q -0.21423,0 -0.43018,-0.0205 l -16.96655,-1.23535 a 4.49994,4.49994 0 0 1 -3.80933,-6.0293 l 22.70655,-51.01465 a 3.4981,3.4981 0 0 0 -0.19629,-2.79882 3.45078,3.45078 0 0 0 -2.21118,-1.75977 c -10.67725,-2.791 -38.072,-10.22266 -61.78638,-18.918 -10.15991,-3.72558 -16.55884,-9.10937 -19.0188,-16.00195 -3.24316,-9.08692 1.55469,-17.374 1.7605,-17.72168 l 0.16089,-0.27246 22.31469,2.02832 24.19117,2.05762 53.01342,28.42773 a 20.086,20.086 0 0 1 8.81861,25.78418 l -24.44092,54.80762 a 4.49689,4.49689 0 0 1 -4.1062,2.66702 z"
     id="path66"
     inkscape:connector-curvature="0"
     style="fill:#2f2e41" />
  <circle
     cx="274.15033"
     cy="464.73746"
     r="24.561029"
     id="circle68"
     style="fill:#a0616a" />
  <polygon
     points="306.514,417.304 306.516,449.101 318.776,449.1 324.609,417.304 "
     id="polygon70"
     style="fill:#a0616a"
     transform="translate(0,270.92161)" />
  <path
     d="m 303.38863,716.0198 24.1438,-10e-4 h 0.001 a 15.38605,15.38605 0 0 1 15.38648,15.38623 v 0.5 l -39.53052,10e-4 z"
     id="path72"
     inkscape:connector-curvature="0"
     style="fill:#2f2e41" />
  <path
     d="m 320.74636,706.97181 q -0.21423,0 -0.43018,-0.0205 l -16.96655,-1.23535 a 4.49994,4.49994 0 0 1 -3.80933,-6.0293 l 22.70655,-51.01465 a 3.4981,3.4981 0 0 0 -0.19629,-2.79882 3.45078,3.45078 0 0 0 -2.21118,-1.75977 c -10.67725,-2.791 -38.072,-10.22266 -61.78638,-18.918 -10.15991,-3.72558 -16.55884,-9.10937 -19.0188,-16.00195 -3.24316,-9.08692 1.55469,-17.374 1.7605,-17.72168 l 0.16089,-0.27246 22.31469,2.02832 24.19117,2.05762 53.01342,28.42773 a 20.086,20.086 0 0 1 8.81861,25.78418 l -24.44092,54.80762 a 4.49689,4.49689 0 0 1 -4.1062,2.66702 z"
     id="path74"
     inkscape:connector-curvature="0"
     style="fill:#2f2e41" />
  <path
     d="m 281.72512,503.22571 -26,-9 c 0,0 -16.322,12.54 -8.481,43.64857 a 77.01216,77.01216 0 0 1 -3.40009,48.32025 49.7778,49.7778 0 0 1 -2.61889,5.53118 c 0,0 29,35 56,9 l -10.5,-50.5 c 0,0 16.49998,-33.5 -5.00002,-47 z"
     id="path76"
     inkscape:connector-curvature="0"
     style="fill:#2f2e41" />
  <path
     d="m 277.19969,490.13385 c -3.49561,-5.2323 -6.25434,-12.48755 -2.40565,-17.4659 3.79908,-4.91417 11.29215,-4.19018 17.11054,-6.36466 8.104,-3.02867 12.80409,-12.5493 11.33825,-21.07565 -1.46584,-8.52635 -8.31032,-15.59442 -16.464,-18.48644 -8.15368,-2.89202 -17.34839,-1.95148 -25.33312,1.37887 -9.82931,4.0997 -18.26115,12.03028 -21.79686,22.07625 -3.53571,10.04597 -1.6456,22.10808 5.68929,29.82962 7.86381,8.27835 20.20556,10.48455 31.62276,10.35068"
     id="path78"
     inkscape:connector-curvature="0"
     style="fill:#2f2e41" />
  <path
     d="m 254.35284,445.50128 c -4.40483,3.58587 -11.12526,1.99318 -15.85359,-1.15387 -4.72833,-3.14705 -8.56507,-7.62825 -13.681,-10.09566 -9.01922,-4.35 -19.92379,-1.45825 -28.70172,3.36009 -8.77793,4.81834 -16.55915,11.475 -25.83123,15.25617 -9.27208,3.78117 -21.10393,3.96808 -28.12485,-3.17161 a 25.732,25.732 0 0 0 37.7101,30.37144 c 10.15941,-6.18838 15.77105,-19.1637 27.16593,-22.57932 6.3055,-1.89008 13.07632,-0.36778 19.44917,1.28106 6.37285,1.64884 13.01783,3.43041 19.44912,2.02674 6.43129,-1.40367 12.447,-7.18312 11.62879,-13.71476 z"
     id="path80"
     inkscape:connector-curvature="0"
     style="fill:#2f2e41" />
  <path
     d="m 334.3065,676.92817 a 167.50643,167.50643 0 0 1 0,-50.97535 4.30257,4.30257 0 0 1 4.2371,-3.6057 h 39.87252 a 4.24657,4.24657 0 0 1 3.35525,1.62624 4.31917,4.31917 0 0 1 0.8074,3.70456 102.32847,102.32847 0 0 0 -3e-4,47.52515 4.31806,4.31806 0 0 1 -0.8071,3.70456 4.24657,4.24657 0 0 1 -3.35525,1.62624 H 338.5436 a 4.30258,4.30258 0 0 1 -4.2371,-3.6057 z"
     id="path82"
     inkscape:connector-curvature="0"
     style="fill:#00bfa6" />
  <path
     d="m 366.14604,647.02373 h -20.92358 a 3.00328,3.00328 0 0 1 -3,-3 v -1.17188 a 3.00328,3.00328 0 0 1 3,-3 h 20.92358 a 3.00328,3.00328 0 0 1 3,3 v 1.17188 a 3.00328,3.00328 0 0 1 -3,3 z"
     id="path84"
     inkscape:connector-curvature="0"
     style="fill:#ffffff" />
  <path
     d="m 366.14604,659.36846 h -20.92358 a 3.00328,3.00328 0 0 1 -3,-3 v -1.17236 a 3.00328,3.00328 0 0 1 3,-3 h 20.92358 a 3.00328,3.00328 0 0 1 3,3 v 1.17236 a 3.00328,3.00328 0 0 1 -3,3 z"
     id="path86"
     inkscape:connector-curvature="0"
     style="fill:#ffffff" />
  <path
     d="m 344.79175,627.12578 a 10.74266,10.74266 0 0 0 -7.69048,-14.56723 l -50.13535,-84.02409 -17.74823,15.19168 54.86227,77.816 a 10.80091,10.80091 0 0 0 20.71183,5.58367 z"
     id="path88"
     inkscape:connector-curvature="0"
     style="fill:#a0616a" />
  <path
     d="m 296.92719,542.15661 -21.14972,12.02212 a 4.81687,4.81687 0 0 1 -6.87143,-2.44636 l -8.76626,-22.61447 a 13.37737,13.37737 0 0 1 23.29816,-13.15318 l 14.9026,19.03623 a 4.81687,4.81687 0 0 1 -1.41335,7.15566 z"
     id="path90"
     inkscape:connector-curvature="0"
     style="fill:#2f2e41" />
  <path
     d="m 521.96725,571.67116 h -406 a 6.5,6.5 0 1 0 0,13 h 11.5 v 141.5 a 6.5,6.5 0 0 0 13,0 V 597.16121 l 72.8711,132.07788 a 6.5,6.5 0 0 0 11.2583,-6.5 L 148.42087,584.67116 h 348.04638 v 0.0842 l -76.1289,137.98376 a 6.4997747,6.4997747 0 1 0 11.25781,6.5 l 64.87109,-117.57816 v 114.5102 a 6.5,6.5 0 0 0 13,0 V 588.09853 l 1.89112,-3.42737 h 10.60888 a 6.5,6.5 0 0 0 0,-13 z"
     id="path92"
     inkscape:connector-curvature="0"
     style="fill:#3f3d56" />
  <rect
     x="271.46725"
     y="567.6712"
     width="86"
     height="7"
     rx="3.5"
     id="rect94"
     style="fill:#a09fbb;fill-opacity:1" />
  <path
     d="m 406.96725,574.67116 h -89 a 6.50737,6.50737 0 0 1 -6.5,-6.5 v -49 a 6.50736,6.50736 0 0 1 6.5,-6.5 h 89 a 6.50736,6.50736 0 0 1 6.5,6.5 v 49 a 6.50737,6.50737 0 0 1 -6.5,6.5 z"
     id="path96"
     inkscape:connector-curvature="0"
     style="fill:#a09fbb;fill-opacity:1" />
  <circle
     cx="362.46725"
     cy="543.6712"
     r="6"
     id="circle98"
     style="fill:#ffffff" />
  <path
     d="m 474.88797,453.94304 v -175.5 a 7.53,7.53 0 0 1 7.52143,-7.52143 h 138.72857 a 7.53,7.53 0 0 1 7.52143,7.52143 v 175.5 a 7.53,7.53 0 0 1 -7.52143,7.52143 H 482.4094 a 7.53,7.53 0 0 1 -7.52143,-7.52143 z m 7.52143,-181.35 a 5.85658,5.85658 0 0 0 -5.85,5.85 v 175.5 a 5.85658,5.85658 0 0 0 5.85,5.85 h 138.72857 a 5.85658,5.85658 0 0 0 5.85,-5.85 v -175.5 a 5.85658,5.85658 0 0 0 -5.85,-5.85 z"
     id="path100"
     inkscape:connector-curvature="0"
     style="fill:#a4f2e3;fill-opacity:1" />
  <path
     d="m 559.55312,351.51932 v -36.03569 a 3.76488,3.76488 0 0 1 3.76071,-3.76071 h 30.537 a 3.76489,3.76489 0 0 1 3.76072,3.76071 v 36.03569 a 3.76489,3.76489 0 0 1 -3.76072,3.76071 h -30.537 a 3.76488,3.76488 0 0 1 -3.76071,-3.76071 z"
     id="path102"
     inkscape:connector-curvature="0"
     style="fill:#00bfa6" />
  <path
     d="m 500.2174,368.23361 v -36.03569 a 3.7649,3.7649 0 0 1 3.76072,-3.76072 h 30.537 a 3.76489,3.76489 0 0 1 3.76071,3.76072 v 36.03569 a 3.76488,3.76488 0 0 1 -3.76071,3.76071 h -30.537 a 3.76489,3.76489 0 0 1 -3.76072,-3.76071 z"
     id="path104"
     inkscape:connector-curvature="0"
     style="fill:#a4f2e3;fill-opacity:1" />
  <path
     d="m 547.85312,419.21218 v -36.03572 a 3.76489,3.76489 0 0 1 3.76071,-3.76072 h 30.537 a 3.7649,3.7649 0 0 1 3.76072,3.76072 v 36.03569 a 3.76489,3.76489 0 0 1 -3.76072,3.76071 h -30.537 a 3.76488,3.76488 0 0 1 -3.76071,-3.76068 z"
     id="path106"
     inkscape:connector-curvature="0"
     style="fill:#ff6584" />
  <circle
     cx="780.74121"
     cy="282.74188"
     r="6.4668899"
     id="circle108"
     style="fill:#a4f2e3;fill-opacity:1" />
  <circle
     cx="780.74121"
     cy="308.51517"
     r="6.4668899"
     id="circle110"
     style="fill:#a4f2e3;fill-opacity:1" />
  <circle
     cx="780.74121"
     cy="334.28848"
     r="6.4668899"
     id="circle112"
     style="fill:#a4f2e3;fill-opacity:1" />
  <circle
     cx="780.74121"
     cy="360.06177"
     r="6.4668899"
     id="circle114"
     style="fill:#a4f2e3;fill-opacity:1" />
  <circle
     cx="753.74121"
     cy="282.74188"
     r="6.4668899"
     id="circle116"
     style="fill:#a4f2e3;fill-opacity:1" />
  <circle
     cx="753.74121"
     cy="308.51517"
     r="6.4668899"
     id="circle118"
     style="fill:#a4f2e3;fill-opacity:1" />
  <circle
     cx="753.74121"
     cy="334.28848"
     r="6.4668899"
     id="circle120"
     style="fill:#a4f2e3;fill-opacity:1" />
  <circle
     cx="753.74121"
     cy="360.06177"
     r="6.4668899"
     id="circle122"
     style="fill:#a4f2e3;fill-opacity:1" />
  <circle
     cx="726.74121"
     cy="282.74188"
     r="6.4668899"
     id="circle124"
     style="fill:#a4f2e3;fill-opacity:1" />
  <circle
     cx="726.74121"
     cy="308.51517"
     r="6.4668899"
     id="circle126"
     style="fill:#a4f2e3;fill-opacity:1" />
  <circle
     cx="726.74121"
     cy="334.28848"
     r="6.4668899"
     id="circle128"
     style="fill:#a4f2e3;fill-opacity:1" />
  <circle
     cx="726.74121"
     cy="360.06177"
     r="6.4668899"
     id="circle130"
     style="fill:#a4f2e3;fill-opacity:1" />
  <circle
     cx="699.74121"
     cy="282.74188"
     r="6.4668899"
     id="circle132"
     style="fill:#a4f2e3;fill-opacity:1" />
  <circle
     cx="699.74121"
     cy="308.51517"
     r="6.4668899"
     id="circle134"
     style="fill:#a4f2e3;fill-opacity:1" />
  <circle
     cx="699.74121"
     cy="334.28848"
     r="6.4668899"
     id="circle136"
     style="fill:#a4f2e3;fill-opacity:1" />
  <circle
     cx="699.74121"
     cy="360.06177"
     r="6.4668899"
     id="circle138"
     style="fill:#a4f2e3;fill-opacity:1" />
  <circle
     cx="672.74121"
     cy="282.74188"
     r="6.4668899"
     id="circle140"
     style="fill:#a4f2e3;fill-opacity:1" />
  <circle
     cx="672.74121"
     cy="308.51517"
     r="6.4668899"
     id="circle142"
     style="fill:#a4f2e3;fill-opacity:1" />
  <circle
     cx="672.74121"
     cy="334.28848"
     r="6.4668899"
     id="circle144"
     style="fill:#a4f2e3;fill-opacity:1" />
  <circle
     cx="672.74121"
     cy="360.06177"
     r="6.4668899"
     id="circle146"
     style="fill:#a4f2e3;fill-opacity:1" />
  <circle
     cx="645.74121"
     cy="282.74188"
     r="6.4668899"
     id="circle148"
     style="fill:#a4f2e3;fill-opacity:1" />
  <circle
     cx="645.74121"
     cy="308.51517"
     r="6.4668899"
     id="circle150"
     style="fill:#a4f2e3;fill-opacity:1" />
  <circle
     cx="645.74121"
     cy="334.28848"
     r="6.4668899"
     id="circle152"
     style="fill:#a4f2e3;fill-opacity:1" />
  <circle
     cx="645.74121"
     cy="360.06177"
     r="6.4668899"
     id="circle154"
     style="fill:#a4f2e3;fill-opacity:1" />
  <path
     d="m 671.79483,512.17401 a 11.00279,11.00279 0 0 1 7.76758,-14.46387 10.58985,10.58985 0 0 1 1.45117,-0.23633 l 24.30274,-42.59863 -6.13672,-10.54248 15.27539,-11.78467 11.687,16.23194 a 11.14851,11.14851 0 0 1 -0.26025,13.30859 l -33.36474,42.7139 a 10.50735,10.50735 0 0 1 0.31055,1.03467 11.00313,11.00313 0 0 1 -9.35986,13.48971 10.706,10.706 0 0 1 -1.34668,0.0845 11.036,11.036 0 0 1 -10.32618,-7.2373 z"
     id="path156"
     inkscape:connector-curvature="0"
     style="fill:#ffb8b8" />
  <polygon
     points="624.382,403.6 624.38,450.888 612.12,450.887 606.288,403.599 "
     id="polygon158"
     style="fill:#ffb8b8"
     transform="translate(0,270.92161)" />
  <path
     d="M 603.36318,718.30556 H 627.007 v 14.88687 h -38.53068 v 0 a 14.88686,14.88686 0 0 1 14.88686,-14.88687 z"
     id="path160"
     inkscape:connector-curvature="0"
     style="fill:#2f2e41" />
  <polygon
     points="725.382,403.6 725.38,450.888 713.12,450.887 707.288,403.599 "
     id="polygon162"
     style="fill:#ffb8b8"
     transform="translate(0,270.92161)" />
  <path
     d="M 704.36318,718.30556 H 728.007 v 14.88687 h -38.53068 v 0 a 14.88686,14.88686 0 0 1 14.88686,-14.88687 z"
     id="path164"
     inkscape:connector-curvature="0"
     style="fill:#2f2e41" />
  <path
     d="m 717.8554,434.85072 -27.52466,10.45937 -6.72,-18.66664 a 11.16824,11.16824 0 0 1 5.002,-13.49951 v 0 a 11.16822,11.16822 0 0 1 14.26248,2.78445 z"
     id="path166"
     inkscape:connector-curvature="0"
     style="fill:#00bfa6" />
  <path
     d="m 625.43839,683.50995 -23.08447,-5.26514 a 4.98641,4.98641 0 0 1 -3.812,-5.61914 c 9.2627,-58.70947 18.17432,-93.09082 41.14014,-136.75244 0.3208,-0.814 3.90674,-17.33789 6.24707,-28.28516 a 4.97165,4.97165 0 0 1 4.21387,-5.02392 l 43.04443,-6.62452 a 5.57031,5.57031 0 0 1 2.02149,-0.30419 l 0.43017,0.0815 -0.005,0.42334 c -0.005,0.4375 -0.44092,0.50439 -0.60449,0.52978 l -0.57227,0.0879 a 6.68453,6.68453 0 0 1 1.77491,1.20655 c 18.85986,22.68365 28.667,97.03973 41.123,179.18457 a 4.48423,4.48423 0 0 1 -1.30371,3.64746 4.93337,4.93337 0 0 1 -3.5376,1.60058 l -27.50146,0.67041 a 4.98232,4.98232 0 0 1 -5.03516,-4.21826 L 681.45304,571.80046 a 3.97443,3.97443 0 0 0 -7.49463,-1.15576 c -14.94434,30.43457 -28.88086,56.75489 -42.60645,109.26612 a 4.95254,4.95254 0 0 1 -4.79248,3.72607 5.03,5.03 0 0 1 -1.12109,-0.12694 z"
     id="path168"
     inkscape:connector-curvature="0"
     style="fill:#2f2e41" />
  <path
     d="m 647.84562,508.81073 a 4.99864,4.99864 0 0 1 -2.0835,-3.54883 c -3.52539,-32.90967 -1.06982,-58.66406 7.50586,-78.73486 a 24.99167,24.99167 0 0 1 16.56689,-14.17969 l 22.24951,-1.12305 0.11524,0.0557 a 26.00516,26.00516 0 0 1 14.21924,27.58838 c -7.15625,18.86328 -13.14844,38.50293 -8.57862,54.34619 a 5.122,5.122 0 0 1 -0.48388,3.9834 4.8841,4.8841 0 0 1 -3.11573,2.30908 l -42.37841,10.08105 a 4.96422,4.96422 0 0 1 -4.0166,-0.77734 z"
     id="path170"
     inkscape:connector-curvature="0"
     style="fill:#00bfa6" />
  <path
     d="m 638.26798,461.58319 -42.67432,-33.666 a 10.51634,10.51634 0 0 1 -1.03613,0.30567 11.02707,11.02707 0 0 1 -8.81784,-1.6914 10.91273,10.91273 0 0 1 -4.62647,-7.7334 11.02294,11.02294 0 0 1 7.209,-11.63818 11.00362,11.00362 0 0 1 14.42627,7.8374 10.57293,10.57293 0 0 1 0.229,1.45215 l 42.48145,24.50732 10.57177,-6.08642 11.71094,15.332 -16.41406,11.69922 a 10.942,10.942 0 0 1 -13.05957,-0.31836 z"
     id="path172"
     inkscape:connector-curvature="0"
     style="fill:#ffb8b8" />
  <path
     d="m 672.94891,454.97701 -24.34868,-16.55739 11.44288,-16.20685 a 11.16823,11.16823 0 0 1 13.92862,-3.64 v 0 a 11.16823,11.16823 0 0 1 5.89441,13.2826 z"
     id="path174"
     inkscape:connector-curvature="0"
     style="fill:#00bfa6" />
  <circle
     cx="684.659"
     cy="378.35297"
     r="24.561029"
     id="circle176"
     style="fill:#ffb8b8" />
  <path
     d="m 675.65416,374.69484 c -6.31272,4.32051 -14.60145,8.76174 -21.04891,4.16075 -4.23352,-3.02109 -5.56737,-8.61545 -3.8506,-13.52487 3.08726,-8.82856 11.56943,-12.71531 19.68052,-15.69458 10.54441,-3.87305 22.02572,-6.95424 32.91112,-4.18055 10.8854,2.77369 20.5056,13.31292 18.54058,24.37293 -1.58023,8.89423 -9.97,16.29492 -8.779,25.24958 1.19867,9.01215 11.33379,13.75589 20.28149,15.36658 8.9477,1.61069 18.96038,2.12822 25.39074,8.5552 8.2031,8.1988 6.15464,22.85325 -1.56414,31.50955 -7.71878,8.6563 -19.36683,12.58011 -30.6538,15.24757 -14.95454,3.53422 -31.12906,5.3916 -45.33209,-0.47378 -14.20303,-5.86538 -25.25566,-21.65434 -21.14126,-36.45976 1.73791,-6.2538 5.83191,-11.5391 9.78854,-16.68452 3.95663,-5.14542 7.9631,-10.526 9.47237,-16.83887 1.25773,-5.26073 0.32683,-11.36869 -3.16181,-15.31484 a 4.437,4.437 0 0 1 -0.5944,-5.18643 z"
     id="path178"
     inkscape:connector-curvature="0"
     style="fill:#2f2e41" />
</svg>
