<?xml version="1.0" encoding="UTF-8" standalone="no"?>
<svg
   xmlns:dc="http://purl.org/dc/elements/1.1/"
   xmlns:cc="http://creativecommons.org/ns#"
   xmlns:rdf="http://www.w3.org/1999/02/22-rdf-syntax-ns#"
   xmlns:svg="http://www.w3.org/2000/svg"
   xmlns="http://www.w3.org/2000/svg"
   xmlns:sodipodi="http://sodipodi.sourceforge.net/DTD/sodipodi-0.dtd"
   xmlns:inkscape="http://www.inkscape.org/namespaces/inkscape"
   id="78bf026f-5d34-4e97-88cf-29aa2cfb8006"
   data-name="Layer 1"
   width="1084.15"
   height="1084.15"
   viewBox="0 0 1084.15 1084.15"
   version="1.1"
   sodipodi:docname="consulting.svg"
   inkscape:version="0.92.4 (5da689c313, 2019-01-14)">
  <metadata
     id="metadata351">
    <rdf:RDF>
      <cc:Work
         rdf:about="">
        <dc:format>image/svg+xml</dc:format>
        <dc:type
           rdf:resource="http://purl.org/dc/dcmitype/StillImage" />
        <dc:title>interview</dc:title>
      </cc:Work>
    </rdf:RDF>
  </metadata>
  <defs
     id="defs349" />
  <sodipodi:namedview
     pagecolor="#ffffff"
     bordercolor="#666666"
     borderopacity="1"
     objecttolerance="10"
     gridtolerance="10"
     guidetolerance="10"
     inkscape:pageopacity="0"
     inkscape:pageshadow="2"
     inkscape:window-width="1920"
     inkscape:window-height="1017"
     id="namedview347"
     showgrid="false"
     inkscape:zoom="0.52944702"
     inkscape:cx="637.97457"
     inkscape:cy="530.74767"
     inkscape:window-x="-8"
     inkscape:window-y="-8"
     inkscape:window-maximized="1"
     inkscape:current-layer="78bf026f-5d34-4e97-88cf-29aa2cfb8006" />
  <title
     id="title2">interview</title>
  <path
     d="m 475.32141,315.66165 c -36.38886,-13.83883 -74.84198,-25.39872 -114.09604,-23.94547 -57.71683,2.13032 -113.12169,34.60533 -140.25439,82.28984 -23.02068,40.40179 -25.8611,87.75602 -35.77783,132.59184 -12.20393,55.23147 -35.62095,107.7381 -60.62332,159.07223 -13.42598,27.57858 -27.595093,55.75166 -29.799728,85.98075 -3.055111,41.97063 18.388468,83.79263 52.019468,111.70973 33.631,27.91714 78.29343,42.64764 123.121,45.85964 23.85464,1.7092 48.7827,0.1239 69.97031,-10.2635 22.41791,-10.9901 38.75863,-30.84833 61.26737,-41.68159 20.85733,-10.04057 45.25694,-11.44427 68.67396,-10.13966 a 325.85655,325.85655 0 0 1 89.65514,17.83524 c 32.73097,11.49381 63.16649,28.14831 95.78187,39.80721 32.61538,11.659 69.14461,18.1655 102.51964,8.4387 31.37682,-9.1405 56.14799,-31.3355 78.48334,-53.81117 A 953.83886,953.83886 0 0 0 936.35426,741.00749 c 20.15548,-28.24739 38.91551,-58.04712 47.82488,-90.96801 17.04256,-62.94356 -6.40748,-133.95426 -58.41869,-176.9405 C 882.66687,437.48628 824.83443,422.02907 768.22404,412.64905 716.60091,404.09474 656.91063,403.56629 609.39126,381.27223 564.07653,359.98554 522.84078,333.7446 475.32141,315.66165 Z"
     id="path4"
     inkscape:connector-curvature="0"
     style="opacity:0.1;fill:#00bfa6;stroke-width:0.82570583" />
  <polygon
     points="640.91,616.33 632.58,619 632.58,655.33 642.91,655.33 "
     id="polygon6"
     style="fill:#aaabb0"
     transform="matrix(0.82570583,0,0,0.82570583,94.481105,291.58406)" />
  <polygon
     points="485.75,609 477.41,611.67 477.41,648 487.75,648 "
     id="polygon8"
     style="fill:#aaabb0"
     transform="matrix(0.82570583,0,0,0.82570583,94.481105,291.58406)" />
  <rect
     x="626.7146"
     y="747.10114"
     width="11.006659"
     height="53.398396"
     rx="5.5074577"
     ry="5.5074577"
     id="rect10"
     style="fill:#aaabb0;stroke-width:0.82570583" />
  <rect
     x="485.51886"
     y="735.26056"
     width="11.006659"
     height="65.230759"
     rx="5.5074577"
     ry="5.5074577"
     id="rect12"
     style="fill:#aaabb0;stroke-width:0.82570583" />
  <path
     d="m 651.76649,427.55304 c 0,0 11.00665,-4.68175 12.65807,0 1.65141,4.68176 2.47711,45.14134 2.47711,45.14134 h -10.46169 z"
     id="path14"
     inkscape:connector-curvature="0"
     style="fill:#aaabb0;stroke-width:0.82570583" />
  <path
     d="m 531.21343,427.55304 c 0,0 -11.01491,-4.68175 -12.66632,0 -1.65141,4.68176 -2.47712,45.14134 -2.47712,45.14134 h 10.46169 z"
     id="path16"
     inkscape:connector-curvature="0"
     style="fill:#aaabb0;stroke-width:0.82570583" />
  <polygon
     points="537.91,115 530.91,116 528.91,156.67 537.91,156.67 "
     id="polygon18"
     style="fill:#aaabb0"
     transform="matrix(0.82570583,0,0,0.82570583,94.481105,291.58406)" />
  <path
     d="m 526.53168,472.69438 2.20464,-48.44416 c 0,0 -0.82571,-10.73418 25.31614,-7.43135 26.14184,3.30282 102.66826,9.90847 102.66826,9.90847 v 45.96704 z"
     id="path20"
     inkscape:connector-curvature="0"
     style="fill:#33323d;stroke-width:0.82570583" />
  <path
     d="m 631.12384,727.83748 -4.12853,74.03279 c 0,0 -60.55726,33.58146 -134.04508,1.65141 l 6.60564,-77.88883 z"
     id="path22"
     inkscape:connector-curvature="0"
     style="fill:#33323d;stroke-width:0.82570583" />
  <polygon
     points="679.25,156.67 580.25,175.33 581.91,233.33 685.25,233.33 "
     id="polygon24"
     style="fill:#444053"
     transform="matrix(0.82570583,0,0,0.82570583,94.481105,291.58406)" />
  <rect
     x="501.89261"
     y="696.17987"
     width="80.374207"
     height="101.8343"
     id="rect26"
     style="fill:#4c4981;stroke-width:0.82570583" />
  <path
     d="m 552.68179,737.74595 c 0,0 11.55988,-9.08276 13.48377,-6.33316 1.9239,2.7496 -6.86987,14.59022 -10.45343,13.21129 -3.58357,-1.37893 -3.03034,-6.87813 -3.03034,-6.87813 z"
     id="path28"
     inkscape:connector-curvature="0"
     style="fill:#ffb9b9;stroke-width:0.82570583" />
  <rect
     x="345.91681"
     y="469.93649"
     width="527.60126"
     height="264.22586"
     id="rect30"
     style="fill:#504f60;stroke-width:0.82570583" />
  <path
     d="m 526.80417,385.44205 c 0,0 -4.12853,-38.53569 0,-43.20919 4.12852,-4.67349 73.48781,-48.99738 137.62039,3.02208 0,0 6.05242,0.28074 4.95423,14.037 a 165.14117,165.14117 0 0 0 0.13211,26.15011 c 0,0 -138.02498,9.90847 -142.70673,0 z"
     id="path32"
     inkscape:connector-curvature="0"
     style="fill:#33323d;stroke-width:0.82570583" />
  <path
     d="m 526.80417,385.44205 c 0,0 -4.12853,-38.53569 0,-43.20919 4.12852,-4.67349 73.48781,-48.99738 137.62039,3.02208 0,0 6.05242,0.28074 4.95423,14.037 a 165.14117,165.14117 0 0 0 0.13211,26.15011 c 0,0 -138.02498,9.90847 -142.70673,0 z"
     id="path34"
     inkscape:connector-curvature="0"
     style="opacity:0.1;stroke-width:0.82570583" />
  <path
     d="m 526.80417,390.39628 c 0,0 -4.12853,-38.53569 0,-43.20918 4.12852,-4.6735 73.48781,-48.99739 137.62039,3.02208 0,0 6.05242,0.28074 4.95423,14.037 a 165.14117,165.14117 0 0 0 0.13211,26.1501 c 0,0 -138.02498,9.90847 -142.70673,0 z"
     id="path36"
     inkscape:connector-curvature="0"
     style="fill:#33323d;stroke-width:0.82570583" />
  <path
     d="m 671.85591,372.78398 c 0,0 4.40101,16.51411 3.03034,19.26371 -1.37067,2.7496 -1.12296,10.4617 -1.12296,10.4617 0,0 0.29725,4.95423 -1.90738,5.4992 -2.20464,0.54496 -4.12853,0.8257 -2.34501,2.47711 1.78353,1.65142 0,4.12853 0,4.12853 0,0 -0.96607,3.85605 0,6.33317 0.96608,2.47711 -5.64782,3.50925 -5.08634,6.60564 0.56148,3.0964 2.41106,11.83237 0,12.11311 -2.41106,0.28074 0.8257,11.00666 -1.3459,11.00666 -2.17161,0 -3.71568,19.26371 -3.71568,19.26371 0,0 -15.27556,-12.93055 -25.45651,-9.35524 0,0 0.8257,-10.73418 4.12853,-14.59022 3.30282,-3.85605 2.30372,-13.75626 2.30372,-13.75626 l 16.382,-49.26987 z"
     id="path38"
     inkscape:connector-curvature="0"
     style="fill:#4c4981;stroke-width:0.82570583" />
  <path
     d="m 590.11103,600.49713 c -3.5753,3.95513 -7.43135,-17.16642 -7.43135,-17.16642 0,0 -10.18095,14.037 -16.7866,4.68175 -4.57441,-6.48179 -0.96608,-24.84549 1.65141,-35.50535 1.1725,-4.73955 2.16335,-7.95981 2.16335,-7.95981 l 14.86271,-2.47711 c 0,0 0.0495,3.23676 0.37982,7.16712 0.44588,5.30929 1.41196,11.89842 3.46796,13.47552 3.62485,2.73309 5.27626,33.79614 1.6927,37.7843 z"
     id="path40"
     inkscape:connector-curvature="0"
     style="fill:#ae6e79;stroke-width:0.82570583" />
  <path
     d="m 582.4072,353.23952 c 0,0 -25.87762,-0.27248 -32.20253,13.48378 -6.32491,13.75625 -6.60565,18.44626 -9.08277,20.64264 -2.47711,2.19638 26.96756,13.76452 26.96756,13.76452 l 1.37893,47.33771 c 0,0 5.77994,-5.85425 15.13518,-3.20374 9.35525,2.65052 21.19587,0 21.19587,0 0,0 -0.55322,-0.9991 7.15887,0 7.71209,0.99911 32.20253,-11.93145 32.20253,-11.93145 0,0 0.4046,-20.7087 -0.14037,-25.11797 -0.54497,-4.40927 17.47193,-36.80996 17.47193,-36.80996 0,0 14.037,-13.48378 -0.54496,-18.16553 0,0 -5.16066,-7.77815 -18.43801,-7.70384 -13.27735,0.0743 -61.10223,7.70384 -61.10223,7.70384 z"
     id="path42"
     inkscape:connector-curvature="0"
     style="opacity:0.1;stroke-width:0.82570583" />
  <path
     d="m 582.4072,352.41381 c 0,0 -25.87762,-0.27248 -32.20253,13.48378 -6.32491,13.75626 -6.60565,18.44627 -9.08277,20.64265 -2.47711,2.19637 26.96756,13.76451 26.96756,13.76451 l 1.37893,47.33772 c 0,0 5.77994,-5.85426 15.13518,-3.20374 9.35525,2.65051 21.19587,0 21.19587,0 0,0 -0.55322,-0.99911 7.15887,0 7.71209,0.9991 32.20253,-11.93145 32.20253,-11.93145 0,0 9.62773,-15.68841 9.08276,-20.08942 -0.54496,-4.40102 19.26372,-37.70999 19.26372,-37.70999 0,0 3.03034,-17.6123 -11.55988,-22.29406 0,0 -5.16066,-7.77815 -18.43801,-7.70383 -13.27735,0.0743 -61.10223,7.70383 -61.10223,7.70383 z"
     id="path44"
     inkscape:connector-curvature="0"
     style="fill:#4c4981;stroke-width:0.82570583" />
  <path
     d="m 585.01643,549.21254 c -5.6726,-1.76701 -14.57371,2.13032 -17.40588,3.30282 1.1725,-4.73955 2.16335,-7.9598 2.16335,-7.9598 l 14.8627,-2.47712 c 0,0 0.0248,3.23677 0.37983,7.1341 z"
     id="path46"
     inkscape:connector-curvature="0"
     style="opacity:0.1;stroke-width:0.82570583" />
  <path
     d="m 549.09822,386.54024 h -7.97632 c 0,0 -1.65141,16.79485 0,21.74909 1.65142,4.95423 2.47712,4.23587 1.9239,7.902 -0.55322,3.66614 3.85605,9.28094 3.85605,9.28094 0,0 0.54496,13.83882 3.30282,18.99123 2.75786,5.1524 -3.03034,28.25565 -3.03034,28.25565 a 33.242917,33.242917 0 0 0 6.87813,10.73418 c 4.68175,4.67349 7.15887,22.01332 5.77994,28.61896 -1.37893,6.60565 3.85604,9.08277 3.85604,9.08277 0,0 2.20464,30.83185 3.03035,30.83185 0.8257,0 16.78659,-8.25706 21.74083,-1.10644 l -3.85605,-28.34648 0.28074,-54.76907 c 0,0 -5.23497,-6.88639 -2.47711,-12.93881 2.75785,-6.05243 -2.20464,-20.37017 -2.20464,-20.37017 l -7.15887,-31.92178 z"
     id="path48"
     inkscape:connector-curvature="0"
     style="fill:#4c4981;stroke-width:0.82570583" />
  <path
     d="m 499.55587,821.68721 c 0,0 -11.55988,-2.47712 -11.83236,0 -0.27248,2.47712 -13.76452,27.80151 3.03034,35.23286 16.79486,7.43135 61.6472,23.39224 134.59005,2.7496 0,0 4.67349,1.65141 3.57531,-8.52954 -1.09819,-10.18095 -1.09819,-21.46835 -1.09819,-21.46835 0,0 -11.01492,-3.03034 -19.27198,-1.92389 -8.25706,1.10645 -80.09346,15.68841 -108.99317,-6.06068 z"
     id="path50"
     inkscape:connector-curvature="0"
     style="fill:#33323d;stroke-width:0.82570583" />
  <path
     d="m 499.55587,821.68721 c 0,0 -11.55988,-2.47712 -11.83236,0 -0.27248,2.47712 -13.76452,27.80151 3.03034,35.23286 16.79486,7.43135 61.6472,23.39224 134.59005,2.7496 0,0 4.67349,1.65141 3.57531,-8.52954 -1.09819,-10.18095 -1.09819,-21.46835 -1.09819,-21.46835 0,0 -11.01492,-3.03034 -19.27198,-1.92389 -8.25706,1.10645 -80.09346,15.68841 -108.99317,-6.06068 z"
     id="path52"
     inkscape:connector-curvature="0"
     style="opacity:0.1;stroke-width:0.82570583" />
  <path
     d="m 499.55587,818.38439 c 0,0 -11.55988,-2.47712 -11.83236,0 -0.27248,2.47711 -13.76452,27.80151 3.03034,35.23286 16.79486,7.43135 61.6472,23.39226 134.59005,2.7496 0,0 4.67349,1.65141 3.57531,-8.52954 -1.09819,-10.18095 -1.09819,-21.46835 -1.09819,-21.46835 0,0 -11.01492,-3.03034 -19.27198,-1.92389 -8.25706,1.10644 -80.09346,15.68841 -108.99317,-6.06068 z"
     id="path54"
     inkscape:connector-curvature="0"
     style="fill:#33323d;stroke-width:0.82570583" />
  <path
     d="m 566.9665,396.43219 c -0.71011,4.0377 -2.32024,7.91852 -2.56795,12.00576 -0.24771,4.08725 1.32939,8.73597 5.10286,10.33784 a 17.199453,17.199453 0 0 1 3.04686,1.23856 c 1.45324,0.98259 2.04775,2.83217 2.35326,4.56615 a 24.936316,24.936316 0 0 1 0.289,6.7873 c -0.20643,2.27895 -0.6936,4.7313 0.42936,6.72125 1.97344,3.52576 7.11759,3.00557 11.03143,2.01472 l -1.3459,10.42867 c -0.10734,0.8257 -0.17339,1.75875 0.42937,2.32023 a 2.6009734,2.6009734 0 0 0 1.98169,0.42937 c 3.40191,-0.21469 6.90291,-0.68534 9.81765,-2.47712 2.91474,-1.79178 5.08634,-5.12763 4.53312,-8.48826 -0.64405,-3.89733 -4.67349,-6.99372 -4.12853,-10.90757 0.42111,-3.03034 3.3854,-4.95423 5.33406,-7.28273 3.52577,-4.26064 3.71568,-10.73417 0.94956,-15.55629 -2.76611,-4.82213 -8.10843,-7.81118 -13.60763,-8.35615 -3.04685,-0.30551 -6.21756,0.0661 -9.08276,-0.99084 a 6.8863866,6.8863866 0 0 1 -4.2111,-4.4423"
     id="path56"
     inkscape:connector-curvature="0"
     style="fill:#444053;stroke-width:0.82570583" />
  <path
     d="m 470.93691,763.61532 2.88171,-6.27537 c 0,0 15.5563,-14.49113 19.13161,-15.50675 3.5753,-1.01562 18.16552,-5.4414 20.37016,-5.4414 2.20463,0 42.39174,-2.20464 42.39174,-2.20464 l 4.67349,11.01492 -50.43411,11.07271 -17.00128,12.38559 z"
     id="path58"
     inkscape:connector-curvature="0"
     style="fill:#767d9f;stroke-width:0.82570583" />
  <path
     d="m 592.10924,594.61811 -2.634,20.27107 -1.01562,7.80292 -11.83236,1.65142 c 0,0 -1.27985,-2.74135 -3.08814,-6.95245 -5.49095,-12.78192 -15.82879,-39.13845 -9.83416,-43.68809 7.96806,-6.06068 9.90847,14.037 9.90847,14.037 l 9.08276,-4.40927 z"
     id="path60"
     inkscape:connector-curvature="0"
     style="fill:#ffb9b9;stroke-width:0.82570583" />
  <rect
     x="530.37946"
     y="632.328"
     width="59.756332"
     height="90.274422"
     id="rect62"
     style="fill:#ffffff;stroke-width:0.82570583" />
  <rect
     x="530.37946"
     y="632.328"
     width="59.756332"
     height="90.274422"
     id="rect64"
     style="opacity:0.1;stroke-width:0.82570583" />
  <rect
     x="643.79871"
     y="540.12512"
     width="59.756332"
     height="90.274422"
     transform="rotate(8.41)"
     id="rect66"
     style="fill:#ffffff;stroke-width:0.82570583" />
  <rect
     x="650.54919"
     y="547.73651"
     width="30.757542"
     height="46.462467"
     transform="rotate(8.41)"
     id="rect68"
     style="fill:#00bfa6;stroke-width:0.82570583" />
  <rect
     x="649.23529"
     y="607.61554"
     width="37.264107"
     height="10.090125"
     transform="rotate(8.41)"
     id="rect70"
     style="fill:#00bfa6;stroke-width:0.82570583" />
  <circle
     cx="605.79944"
     cy="370.02612"
     r="34.539276"
     id="circle72"
     style="opacity:0.1;stroke-width:0.82570583" />
  <circle
     cx="605.79944"
     cy="369.20044"
     r="34.539276"
     id="circle74"
     style="fill:#ae6e79;stroke-width:0.82570583" />
  <path
     d="m 577.32085,394.79729 a 3.9303598,3.9303598 0 0 1 0.23945,-2.66703 c 1.31288,-2.73308 5.05332,-2.97254 8.08366,-2.83217 7.12584,0.33028 14.94528,0.37157 20.51879,-4.12853 2.31198,-1.84958 4.89644,-6.4983 8.25706,-5.6148 2.98906,0.78442 4.23587,4.83864 7.34878,5.73866 2.25418,0.65231 4.59093,-0.38808 6.88639,-0.82571 3.30282,-0.6523 6.68822,-0.10734 10.04058,-0.0826 3.35237,0.0248 6.99373,-0.61102 9.28094,-3.06337 3.08814,-3.30282 2.58446,-8.46348 2.31197,-12.98835 a 69.929027,69.929027 0 0 1 1.18076,-17.45542 c 1.12296,-5.71388 2.84869,-12.10485 -0.30551,-17.00128 -3.00557,-4.66524 -9.23139,-5.94508 -13.48378,-9.52039 -3.9799,-3.30282 -6.08545,-8.5956 -10.28829,-11.65897 -5.29277,-3.85604 -12.48467,-3.30282 -18.99123,-2.634 l -14.11957,1.50279 c -3.64137,0.38808 -7.43136,0.8257 -10.42867,2.99731 -5.40837,3.91384 -6.15151,12.04705 -11.27088,16.33246 -2.27895,1.89912 -5.19369,2.84043 -7.79467,4.26064 -2.60097,1.42022 -5.11112,3.66613 -5.40837,6.60565 -0.24771,2.47712 1.08993,4.76432 1.74224,7.15061 1.54407,5.69737 -0.86699,11.55988 -2.41106,17.29854 -1.54407,5.73865 -1.84133,12.70761 2.64226,16.51411 0.90827,0.77617 1.96518,1.37068 2.84868,2.17987 3.03034,2.76611 3.4432,7.43135 2.74135,11.46079"
     id="path76"
     inkscape:connector-curvature="0"
     style="fill:#444053;stroke-width:0.82570583" />
  <ellipse
     cx="608.61505"
     cy="410.27927"
     rx="0.82570583"
     ry="2.0642645"
     id="ellipse78"
     style="fill:#444053;stroke-width:0.82570583" />
  <ellipse
     cx="608.61505"
     cy="418.88309"
     rx="0.82570583"
     ry="2.0642645"
     id="ellipse80"
     style="fill:#444053;stroke-width:0.82570583" />
  <path
     d="m 590.30094,600.43933 c 0.88351,-1.01562 1.46976,-3.62485 1.8083,-7.06804 l -9.84241,-12.26999 c 0,0 4.16981,23.78859 8.03411,19.33803 z"
     id="path82"
     inkscape:connector-curvature="0"
     style="fill:#ae6e79;stroke-width:0.82570583" />
  <path
     d="m 601.39843,803.2492 c 0,0 -16.15081,24.96934 -66.60969,22.29406 -47.53588,-2.47712 -70.73822,-25.86937 -69.63177,-34.12643 1.10644,-8.25706 -3.03034,-28.35474 7.15061,-34.13468 5.9038,-3.3441 13.67369,-1.36241 19.15638,0.90002 a 10.816746,10.816746 0 0 0 11.36997,-2.03949 c 5.01203,-4.51661 14.35902,-9.60296 29.11438,-5.59829 a 10.486464,10.486464 0 0 0 5.77994,-0.10734 c 6.14325,-1.87435 20.76651,-5.12763 31.37683,2.0973 a 10.734176,10.734176 0 0 0 11.49382,0.43762 l 0.14863,-0.0908 c 4.95423,-3.03034 28.074,25.59688 28.074,25.59688 0,0 1.10644,22.02158 -7.4231,24.77118 z"
     id="path84"
     inkscape:connector-curvature="0"
     style="opacity:0.1;stroke-width:0.82570583" />
  <path
     d="m 601.39843,804.0749 c 0,0 -16.15081,24.96935 -66.60969,22.29406 -47.53588,-2.47712 -70.73822,-25.86936 -69.63177,-34.12642 1.10644,-8.25706 -3.03034,-28.35474 7.15061,-34.13468 5.9038,-3.34411 13.67369,-1.36241 19.15638,0.90002 a 10.816746,10.816746 0 0 0 11.36997,-2.03949 c 5.01203,-4.51661 14.35902,-9.60296 29.11438,-5.59829 a 10.486464,10.486464 0 0 0 5.77994,-0.10734 c 6.14325,-1.87435 20.76651,-5.12763 31.37683,2.09729 a 10.734176,10.734176 0 0 0 11.49382,0.43763 l 0.14863,-0.0908 c 4.95423,-3.03034 28.074,25.59688 28.074,25.59688 0,0 1.10644,22.02157 -7.4231,24.77117 z"
     id="path86"
     inkscape:connector-curvature="0"
     style="fill:#767d9f;stroke-width:0.82570583" />
  <circle
     cx="534.78876"
     cy="780.95508"
     r="32.896122"
     id="circle88"
     style="opacity:0.1;stroke-width:0.82570583" />
  <circle
     cx="534.78876"
     cy="781.78076"
     r="32.896122"
     id="circle90"
     style="fill:#ffb9b9;stroke-width:0.82570583" />
  <path
     d="m 525.35918,753.34354 c -3.45145,0.93304 -6.85336,2.71657 -8.5378,5.64783 -1.01562,1.76701 -1.37067,3.88907 -2.84043,5.35883 -2.08077,2.08903 -5.59002,2.13032 -8.40568,3.30282 -2.81566,1.1725 -4.6735,5.30103 -1.91564,6.60565 -2.87346,0.14862 -5.00378,2.79914 -5.35883,5.43314 -0.35505,2.634 0.64405,5.25975 1.61013,7.76989 3.15419,8.12495 6.54784,16.60495 13.50029,22.38489 11.32868,9.42956 28.40428,8.99193 43.62204,7.99283 a 7.1340984,7.1340984 0 0 0 3.5753,-0.82571 c 1.65141,-1.08993 1.85784,-3.17896 2.13032,-5.01203 1.14773,-7.82769 5.39186,-14.93702 8.16623,-22.40966 2.77438,-7.47263 3.91385,-16.24989 -0.75965,-22.86379 -6.87813,-9.80939 -33.20988,-16.52237 -44.78628,-13.38469 z"
     id="path92"
     inkscape:connector-curvature="0"
     style="fill:#b96b6b;stroke-width:0.82570583" />
  <path
     d="m 589.47524,614.88918 -1.01562,7.80292 -11.83236,1.65142 c 0,0 -1.27985,-2.74135 -3.08814,-6.95245 l 15.74621,-2.95602 z"
     id="path94"
     inkscape:connector-curvature="0"
     style="opacity:0.1;stroke-width:0.82570583" />
  <path
     d="m 601.9434,787.2883 6.88638,-7.98457 -1.37893,-44.03489 a 71.431812,71.431812 0 0 0 1.37893,-9.63599 c 0.27249,-4.68175 -3.44319,-15.13519 -3.44319,-15.13519 a 32.788779,32.788779 0 0 1 2.33675,-6.06068 c 1.65141,-3.30282 -2.32849,-10.73418 -2.32849,-10.73418 0,0 -5.92857,-19.26371 -3.45145,-28.8997 2.47711,-9.63599 -0.60277,-15.13519 -0.60277,-15.13519 0,0 -2.41932,-10.73417 -2.14683,-15.13519 0.27248,-4.40101 -5.50746,-8.53779 -5.50746,-8.53779 l -4.40101,-10.73418 -17.61231,3.30282 v 37.15677 c 0,0 1.09819,35.50535 0,42.39173 -1.09819,6.88639 2.19638,13.48378 2.19638,13.48378 0,0 -1.9239,10.18095 -0.27249,14.037 1.65142,3.85605 4.95424,13.21129 4.95424,13.21129 a 21.468352,21.468352 0 0 0 0.55322,10.04059 c 1.65141,4.82212 0,7.57172 0,7.57172 z"
     id="path96"
     inkscape:connector-curvature="0"
     style="fill:#767d9f;stroke-width:0.82570583" />
  <g
     id="g106"
     style="opacity:0.1"
     transform="matrix(0.82570583,0,0,0.82570583,94.481105,291.58406)">
    <path
       d="M 732.51,139.23 A 84.66,84.66 0 0 0 731,157 a 85.07,85.07 0 0 1 1.55,-14.76 c 0.88,-4.44 2,-9.22 1.76,-13.65 a 83,83 0 0 1 -1.8,10.64 z"
       transform="translate(-57.92,-70.71)"
       id="path98"
       inkscape:connector-curvature="0" />
    <path
       d="m 626.82,180.51 c -1.07,-1 -2.35,-1.7 -3.45,-2.65 -2.92,-2.49 -4.15,-6.1 -4.39,-10 -0.29,5 0.73,9.84 4.39,13 1.1,0.95 2.38,1.67 3.45,2.65 a 12.22,12.22 0 0 1 3.62,8.35 c 0.29,-4.2 -0.56,-8.57 -3.62,-11.35 z"
       transform="translate(-57.92,-70.71)"
       id="path100"
       inkscape:connector-curvature="0" />
    <path
       d="m 623.63,143.17 a 18.85,18.85 0 0 0 -0.54,-6.29 c -0.58,-2.14 -1.62,-4.23 -2,-6.38 0,0.23 -0.08,0.47 -0.11,0.72 -0.29,3 1.33,5.77 2.11,8.66 a 17,17 0 0 1 0.54,3.29 z"
       transform="translate(-57.92,-70.71)"
       id="path102"
       inkscape:connector-curvature="0" />
    <path
       d="m 728.28,176.1 c -2.77,3 -7.18,3.74 -11.24,3.71 -4.06,-0.03 -8.17,-0.69 -12.16,0.11 -2.78,0.56 -5.61,1.81 -8.34,1 -3.77,-1.09 -5.28,-6 -8.89,-6.95 -4.11,-1.08 -7.24,4.55 -10,6.79 -6.75,5.4 -16.22,5.35 -24.85,5 -3.67,-0.17 -8.2,0.12 -9.78,3.44 a 4.64,4.64 0 0 0 -0.29,3.23 l -12.22,1.92 a 23.71,23.71 0 0 1 -0.33,3 l 12.55,-2 a 4.64,4.64 0 0 1 0.29,-3.23 c 1.58,-3.32 6.11,-3.61 9.78,-3.44 8.63,0.4 18.1,0.45 24.85,-5 2.8,-2.24 5.93,-7.87 10,-6.79 3.61,0.94 5.12,5.86 8.89,6.95 2.73,0.78 5.56,-0.47 8.34,-1 4,-0.8 8.1,-0.14 12.16,-0.11 4.06,0.03 8.47,-0.74 11.24,-3.71 2.77,-2.97 3.17,-7.4 3,-11.72 -0.12,3.35 -0.81,6.45 -3,8.8 z"
       transform="translate(-57.92,-70.71)"
       id="path104"
       inkscape:connector-curvature="0" />
  </g>
  <g
     id="g116"
     style="opacity:0.1"
     transform="matrix(0.82570583,0,0,0.82570583,94.481105,291.58406)">
    <path
       d="m 635.71,224.13 a 20.23,20.23 0 0 0 -3.69,-1.5 9.55,9.55 0 0 1 -4.83,-4.94 c 0.75,3.45 2.65,6.59 5.83,7.94 a 20.23,20.23 0 0 1 3.69,1.5 5.54,5.54 0 0 1 1.77,2.07 c -0.4,-1.96 -1.13,-3.96 -2.77,-5.07 z"
       transform="translate(-57.92,-70.71)"
       id="path108"
       inkscape:connector-curvature="0" />
    <path
       d="m 652.79,248.46 c -4.61,1.17 -10.63,1.78 -13.16,-2.13 a 6.87,6.87 0 0 0 0.8,2.69 c 2.16,3.85 7.44,3.72 11.93,2.77 z"
       transform="translate(-57.92,-70.71)"
       id="path110"
       inkscape:connector-curvature="0" />
    <path
       d="m 671.47,251.2 c 0.64,4.06 -2,8.11 -5.5,10.24 -3.5,2.13 -7.77,2.72 -11.89,3 a 4.08,4.08 0 0 1 -1.94,-0.22 2.38,2.38 0 0 0 2.94,3.22 c 4.12,-0.26 8.36,-0.83 11.89,-3 3.53,-2.17 6.17,-6.21 5.49,-10.28 a 11.34,11.34 0 0 0 -0.99,-2.96 z"
       transform="translate(-57.92,-70.71)"
       id="path112"
       inkscape:connector-curvature="0" />
    <path
       d="m 675.91,215 a 16.46,16.46 0 0 1 -3,14.15 c -2.36,2.86 -5.95,5.15 -6.46,8.82 a 8.33,8.33 0 0 0 1,4.87 6.5,6.5 0 0 1 0,-1.87 c 0.51,-3.67 4.1,-6 6.46,-8.82 3.88,-4.69 4.42,-11.6 2,-17.15 z"
       transform="translate(-57.92,-70.71)"
       id="path114"
       inkscape:connector-curvature="0" />
  </g>
  <g
     id="g122"
     style="opacity:0.1"
     transform="matrix(0.82570583,0,0,0.82570583,94.481105,291.58406)">
    <path
       d="m 555.8,648.81 c 3.4,-1.41 7.65,-1.46 10.18,-4 1.78,-1.78 2.21,-4.35 3.44,-6.48 2,-3.56 6.15,-5.71 10.33,-6.84 14,-3.8 45.92,4.32 54.24,16.09 a 21.85,21.85 0 0 1 3.82,12.08 22.58,22.58 0 0 0 -3.81,-14.07 c -8.32,-11.77 -40.21,-19.89 -54.24,-16.09 -4.18,1.13 -8.3,3.28 -10.33,6.84 -1.23,2.13 -1.66,4.7 -3.44,6.48 -2.53,2.53 -6.78,2.58 -10.18,4 -2.59,1.07 -4.51,4.23 -3.81,6.35 a 6.88,6.88 0 0 1 3.8,-4.36 z"
       transform="translate(-57.92,-70.71)"
       id="path118"
       inkscape:connector-curvature="0" />
    <path
       d="m 547,663.34 c 0.42,-3.2 3,-6.4 6.49,-6.58 a 2.66,2.66 0 0 1 -1.53,-1.71 7.77,7.77 0 0 0 -5,6.29 10.57,10.57 0 0 0 0,2.45 c 0.04,-0.15 0.04,-0.3 0.04,-0.45 z"
       transform="translate(-57.92,-70.71)"
       id="path120"
       inkscape:connector-curvature="0" />
  </g>
  <rect
     x="598.08734"
     y="481.69455"
     width="75.139229"
     height="97.986511"
     id="rect124"
     style="fill:#ffffff;stroke-width:0.82570583" />
  <rect
     x="598.08734"
     y="481.69455"
     width="75.139229"
     height="97.986511"
     id="rect126"
     style="opacity:0.1;stroke-width:0.82570583" />
  <rect
     x="534.00433"
     y="599.38129"
     width="75.139229"
     height="97.986511"
     transform="rotate(-9.76)"
     id="rect128"
     style="fill:#ffffff;stroke-width:0.82570583" />
  <rect
     x="540.53229"
     y="667.30151"
     width="17.653589"
     height="23.020678"
     transform="rotate(-9.76)"
     id="rect130"
     style="fill:#00bfa6;stroke-width:0.82570583" />
  <rect
     x="564.96167"
     y="667.29724"
     width="17.653589"
     height="23.020678"
     transform="rotate(-9.76)"
     id="rect132"
     style="fill:#00bfa6;stroke-width:0.82570583" />
  <rect
     x="543.29138"
     y="637.25037"
     width="61.907402"
     height="23.124039"
     transform="rotate(-9.7436413)"
     id="rect134"
     style="fill:#00bfa6;stroke-width:0.82941318" />
  <rect
     x="542.88245"
     y="609.58154"
     width="61.907402"
     height="5.1589499"
     transform="rotate(-9.7436413)"
     id="rect136"
     style="fill:#00bfa6;stroke-width:0.82941318" />
  <rect
     x="543.27173"
     y="619.13849"
     width="61.907402"
     height="5.1589499"
     transform="rotate(-9.7436413)"
     id="rect138"
     style="fill:#00bfa6;stroke-width:0.82941318" />
  <path
     d="m 640.33872,455.07382 c 0,0 -34.53928,34.67964 -17.19946,43.48993 17.33983,8.81028 28.62723,-29.31256 28.62723,-29.31256 l 2.74134,-8.66991 z"
     id="path140"
     inkscape:connector-curvature="0"
     style="fill:#ae6e79;stroke-width:0.82570583" />
  <path
     d="m 637.31663,452.01045 -4.2689,9.42956 c 0,0 21.0555,2.95603 25.45652,9.32222 l -2.60923,-16.63797 -3.0964,-7.10107 z"
     id="path142"
     inkscape:connector-curvature="0"
     style="opacity:0.1;stroke-width:0.82570583" />
  <path
     d="m 638.14234,451.18474 -4.2689,9.42957 c 0,0 21.0555,2.95602 25.45651,9.32221 l -2.60923,-16.63797 -3.0964,-7.10107 z"
     id="path144"
     inkscape:connector-curvature="0"
     style="fill:#4c4981;stroke-width:0.82570583" />
  <polygon
     points="812.99,403.98 813.81,403.91 813.91,403.34 812.78,403.26 812.23,403.64 "
     id="polygon146"
     style="fill:#464a5f"
     transform="matrix(0.82570583,0,0,0.82570583,94.481105,291.58406)" />
  <polygon
     points="812.99,403.98 813.81,403.91 813.91,403.34 812.78,403.26 812.23,403.64 "
     id="polygon148"
     style="opacity:0.1"
     transform="matrix(0.82570583,0,0,0.82570583,94.481105,291.58406)" />
  <polygon
     points="811.78,403.08 812.05,402.64 812.3,402.56 812.78,403.26 812.22,403.62 "
     id="polygon150"
     style="fill:#9c9ca1"
     transform="matrix(0.82570583,0,0,0.82570583,94.481105,291.58406)" />
  <polygon
     points="811.78,403.08 812.05,402.64 812.3,402.56 812.78,403.26 812.22,403.62 "
     id="polygon152"
     style="opacity:0.1"
     transform="matrix(0.82570583,0,0,0.82570583,94.481105,291.58406)" />
  <path
     d="m 846.87252,567.49367 -33.8044,-48.82399 a 4.0211874,4.0211874 0 0 0 -5.59828,-1.03213 l -75.35392,51.72221 a 4.0377015,4.0377015 0 0 0 -1.04865,5.60655 l 33.71357,49.44326 z"
     id="path154"
     inkscape:connector-curvature="0"
     style="fill:#9c9ca1;stroke-width:0.82570583" />
  <path
     d="m 846.87252,567.49367 -33.8044,-48.82399 a 4.0211874,4.0211874 0 0 0 -5.59828,-1.03213 l -75.35392,51.72221 a 4.0377015,4.0377015 0 0 0 -1.04865,5.60655 l 33.71357,49.44326 z"
     id="path156"
     inkscape:connector-curvature="0"
     style="opacity:0.1;stroke-width:0.82570583" />
  <path
     d="m 847.69822,567.60927 -33.80439,-48.82399 a 4.0294445,4.0294445 0 0 0 -5.60655,-1.03213 l -75.34565,51.75524 a 4.0459586,4.0459586 0 0 0 -1.05691,5.60654 l 33.71357,49.46804 z"
     id="path158"
     inkscape:connector-curvature="0"
     style="fill:#9c9ca1;stroke-width:0.82570583" />
  <path
     d="m 875.95388,577.26177 -28.074,-9.01671 -82.10819,56.9159 28.51988,9.33048 a 4.3184415,4.3184415 0 0 0 3.82302,-0.57799 l 78.07048,-55.12413 a 0.82570583,0.82570583 0 0 0 -0.23119,-1.52755 z"
     id="path160"
     inkscape:connector-curvature="0"
     style="fill:#464a5f;stroke-width:0.82570583" />
  <path
     d="m 875.95388,577.26177 -28.074,-9.01671 -82.10819,56.9159 28.51988,9.33048 a 4.3184415,4.3184415 0 0 0 3.82302,-0.57799 l 78.07048,-55.12413 a 0.82570583,0.82570583 0 0 0 -0.23119,-1.52755 z"
     id="path162"
     inkscape:connector-curvature="0"
     style="opacity:0.1;stroke-width:0.82570583" />
  <path
     d="m 875.78048,576.69203 -28.074,-9.02496 -82.10819,56.9159 28.51988,9.31396 a 4.2854133,4.2854133 0 0 0 3.82302,-0.56974 l 78.07049,-55.12412 a 0.82570583,0.82570583 0 0 0 -0.2312,-1.51104 z"
     id="path164"
     inkscape:connector-curvature="0"
     style="fill:#464a5f;stroke-width:0.82570583" />
  <g
     id="g252"
     style="opacity:0.1"
     transform="matrix(0.82570583,0,0,0.82570583,94.481105,291.58406)">
    <path
       d="m 954.07,402.36 -2.51,-3.6 a 1,1 0 0 0 -1.36,-0.25 l -3.73,2.49 a 1,1 0 0 0 -0.27,1.35 l 2.31,3.55 a 1,1 0 0 0 1.35,0.29 l 3.93,-2.47 a 1,1 0 0 0 0.28,-1.36 z"
       transform="translate(-57.92,-70.71)"
       id="path166"
       inkscape:connector-curvature="0" />
    <path
       d="m 947.37,407 -2.52,-3.59 a 1,1 0 0 0 -1.36,-0.25 l -3.72,2.51 a 1,1 0 0 0 -0.28,1.35 l 2.31,3.55 a 1,1 0 0 0 1.35,0.3 l 3.94,-2.47 a 1,1 0 0 0 0.28,-1.4 z"
       transform="translate(-57.92,-70.71)"
       id="path168"
       inkscape:connector-curvature="0" />
    <path
       d="m 940.33,411.87 -2.52,-3.59 a 1,1 0 0 0 -1.36,-0.25 l -3.73,2.51 a 1,1 0 0 0 -0.27,1.36 l 2.31,3.55 a 1,1 0 0 0 1.35,0.29 l 3.93,-2.47 a 1,1 0 0 0 0.29,-1.4 z"
       transform="translate(-57.92,-70.71)"
       id="path170"
       inkscape:connector-curvature="0" />
    <path
       d="m 933.2,416.81 -2.52,-3.6 a 1,1 0 0 0 -1.35,-0.25 l -3.73,2.52 a 1,1 0 0 0 -0.27,1.35 l 2.31,3.55 a 1,1 0 0 0 1.34,0.3 l 3.94,-2.48 a 1,1 0 0 0 0.28,-1.39 z"
       transform="translate(-57.92,-70.71)"
       id="path172"
       inkscape:connector-curvature="0" />
    <path
       d="m 926.08,421.74 -2.52,-3.59 a 1,1 0 0 0 -1.36,-0.25 l -3.72,2.51 a 1,1 0 0 0 -0.28,1.35 l 2.31,3.55 a 1,1 0 0 0 1.35,0.3 l 3.94,-2.48 a 1,1 0 0 0 0.28,-1.39 z"
       transform="translate(-57.92,-70.71)"
       id="path174"
       inkscape:connector-curvature="0" />
    <path
       d="m 919.27,427.12 -3.13,-4.46 a 0.45,0.45 0 0 0 -0.63,-0.12 l -4.58,3.09 a 0.45,0.45 0 0 0 -0.13,0.63 l 2.87,4.41 a 0.46,0.46 0 0 0 0.63,0.14 l 4.84,-3 a 0.46,0.46 0 0 0 0.13,-0.69 z"
       transform="translate(-57.92,-70.71)"
       id="path176"
       inkscape:connector-curvature="0" />
    <path
       d="M 912.15,432.05 909,427.59 a 0.46,0.46 0 0 0 -0.64,-0.12 l -4.58,3.09 a 0.46,0.46 0 0 0 -0.12,0.63 l 2.87,4.41 a 0.44,0.44 0 0 0 0.63,0.14 l 4.83,-3 a 0.45,0.45 0 0 0 0.16,-0.69 z"
       transform="translate(-57.92,-70.71)"
       id="path178"
       inkscape:connector-curvature="0" />
    <path
       d="M 905.84,436.42 902.71,432 a 0.46,0.46 0 0 0 -0.63,-0.11 l -4.58,3.08 a 0.47,0.47 0 0 0 -0.13,0.64 l 2.87,4.41 a 0.47,0.47 0 0 0 0.63,0.14 l 4.84,-3 a 0.46,0.46 0 0 0 0.13,-0.74 z"
       transform="translate(-57.92,-70.71)"
       id="path180"
       inkscape:connector-curvature="0" />
    <path
       d="m 898.78,441.3 -3.13,-4.46 a 0.46,0.46 0 0 0 -0.63,-0.11 l -4.58,3.08 a 0.46,0.46 0 0 0 -0.13,0.64 l 2.87,4.41 a 0.47,0.47 0 0 0 0.63,0.14 l 4.84,-3 a 0.47,0.47 0 0 0 0.13,-0.7 z"
       transform="translate(-57.92,-70.71)"
       id="path182"
       inkscape:connector-curvature="0" />
    <path
       d="m 891.94,446 -3.13,-4.46 a 0.45,0.45 0 0 0 -0.63,-0.12 l -4.58,3.09 a 0.45,0.45 0 0 0 -0.13,0.63 l 2.87,4.41 a 0.46,0.46 0 0 0 0.63,0.14 l 4.84,-3 a 0.46,0.46 0 0 0 0.13,-0.69 z"
       transform="translate(-57.92,-70.71)"
       id="path184"
       inkscape:connector-curvature="0" />
    <path
       d="m 885.1,450.78 -3.1,-4.47 a 0.46,0.46 0 0 0 -0.63,-0.11 l -4.58,3.08 a 0.46,0.46 0 0 0 -0.13,0.64 l 2.87,4.41 a 0.47,0.47 0 0 0 0.63,0.14 l 4.84,-3 a 0.46,0.46 0 0 0 0.1,-0.69 z"
       transform="translate(-57.92,-70.71)"
       id="path186"
       inkscape:connector-curvature="0" />
    <path
       d="m 878.26,455.51 -3.13,-4.46 a 0.45,0.45 0 0 0 -0.63,-0.12 l -4.58,3.07 a 0.45,0.45 0 0 0 -0.13,0.63 l 2.87,4.41 a 0.46,0.46 0 0 0 0.63,0.14 l 4.84,-3 a 0.46,0.46 0 0 0 0.13,-0.67 z"
       transform="translate(-57.92,-70.71)"
       id="path188"
       inkscape:connector-curvature="0" />
    <path
       d="m 949.57,395.85 -2.52,-3.6 A 1,1 0 0 0 945.69,392 l -3.69,2.52 a 1,1 0 0 0 -0.28,1.35 l 2.31,3.55 a 1,1 0 0 0 1.35,0.29 l 3.94,-2.47 a 1,1 0 0 0 0.25,-1.39 z"
       transform="translate(-57.92,-70.71)"
       id="path190"
       inkscape:connector-curvature="0" />
    <path
       d="M 939.72,381.62 937.2,378 a 1,1 0 0 0 -1.35,-0.25 l -3.73,2.51 a 1,1 0 0 0 -0.28,1.35 l 2.31,3.55 a 1,1 0 0 0 1.35,0.3 l 3.94,-2.47 a 1,1 0 0 0 0.28,-1.37 z"
       transform="translate(-57.92,-70.71)"
       id="path192"
       inkscape:connector-curvature="0" />
    <path
       d="m 942.86,400.49 -2.52,-3.59 a 1,1 0 0 0 -1.35,-0.25 l -3.73,2.51 a 1,1 0 0 0 -0.27,1.35 l 2.3,3.55 a 1,1 0 0 0 1.35,0.3 l 3.94,-2.47 a 1,1 0 0 0 0.28,-1.4 z"
       transform="translate(-57.92,-70.71)"
       id="path194"
       inkscape:connector-curvature="0" />
    <path
       d="m 935.82,405.36 -2.52,-3.59 a 1,1 0 0 0 -1.36,-0.25 l -3.72,2.48 a 1,1 0 0 0 -0.28,1.36 l 2.31,3.55 a 1,1 0 0 0 1.35,0.29 l 3.94,-2.47 a 1,1 0 0 0 0.28,-1.37 z"
       transform="translate(-57.92,-70.71)"
       id="path196"
       inkscape:connector-curvature="0" />
    <path
       d="m 928.69,410.3 -2.51,-3.6 a 1,1 0 0 0 -1.36,-0.25 l -3.73,2.55 a 1,1 0 0 0 -0.27,1.35 l 2.31,3.55 a 1,1 0 0 0 1.35,0.29 l 3.93,-2.47 a 1,1 0 0 0 0.28,-1.42 z"
       transform="translate(-57.92,-70.71)"
       id="path198"
       inkscape:connector-curvature="0" />
    <path
       d="m 933.17,386.49 -2.52,-3.59 a 1,1 0 0 0 -1.35,-0.25 l -3.73,2.51 a 1,1 0 0 0 -0.28,1.35 l 2.31,3.55 a 1,1 0 0 0 1.35,0.3 l 3.94,-2.47 a 1,1 0 0 0 0.28,-1.4 z"
       transform="translate(-57.92,-70.71)"
       id="path200"
       inkscape:connector-curvature="0" />
    <path
       d="m 926.13,391.37 -2.52,-3.6 a 1,1 0 0 0 -1.36,-0.25 l -3.72,2.48 a 1,1 0 0 0 -0.28,1.35 l 2.31,3.55 a 1,1 0 0 0 1.35,0.29 l 3.94,-2.47 a 1,1 0 0 0 0.28,-1.35 z"
       transform="translate(-57.92,-70.71)"
       id="path202"
       inkscape:connector-curvature="0" />
    <path
       d="m 919,396.3 -2.52,-3.59 a 1,1 0 0 0 -1.35,-0.26 L 911.4,395 a 1,1 0 0 0 -0.27,1.35 l 2.31,3.55 a 1,1 0 0 0 1.35,0.3 l 3.93,-2.48 A 1,1 0 0 0 919,396.3 Z"
       transform="translate(-57.92,-70.71)"
       id="path204"
       inkscape:connector-curvature="0" />
    <path
       d="m 921.57,415.23 -2.52,-3.59 a 1,1 0 0 0 -1.35,-0.26 l -3.7,2.52 a 1,1 0 0 0 -0.27,1.35 l 2.27,3.55 a 1,1 0 0 0 1.34,0.3 l 3.94,-2.48 a 1,1 0 0 0 0.29,-1.39 z"
       transform="translate(-57.92,-70.71)"
       id="path206"
       inkscape:connector-curvature="0" />
    <path
       d="m 914.45,420.16 -2.52,-3.59 a 1,1 0 0 0 -1.36,-0.25 l -3.72,2.51 a 1,1 0 0 0 -0.28,1.35 l 2.31,3.55 a 1,1 0 0 0 1.35,0.3 l 3.94,-2.47 a 1,1 0 0 0 0.28,-1.4 z"
       transform="translate(-57.92,-70.71)"
       id="path208"
       inkscape:connector-curvature="0" />
    <path
       d="m 907.64,425.54 -3.13,-4.46 a 0.45,0.45 0 0 0 -0.63,-0.12 l -4.58,3.09 a 0.45,0.45 0 0 0 -0.13,0.63 l 2.87,4.41 a 0.45,0.45 0 0 0 0.63,0.14 l 4.84,-3 a 0.46,0.46 0 0 0 0.13,-0.69 z"
       transform="translate(-57.92,-70.71)"
       id="path210"
       inkscape:connector-curvature="0" />
    <path
       d="m 901.33,429.91 -3.13,-4.47 a 0.46,0.46 0 0 0 -0.63,-0.11 l -4.57,3.08 a 0.47,0.47 0 0 0 -0.13,0.64 l 2.87,4.41 a 0.47,0.47 0 0 0 0.63,0.14 l 4.84,-3 a 0.44,0.44 0 0 0 0.12,-0.69 z"
       transform="translate(-57.92,-70.71)"
       id="path212"
       inkscape:connector-curvature="0" />
    <path
       d="m 894.27,434.79 -3.13,-4.46 a 0.46,0.46 0 0 0 -0.63,-0.11 l -4.58,3.08 a 0.45,0.45 0 0 0 -0.13,0.63 l 2.87,4.42 a 0.47,0.47 0 0 0 0.63,0.14 l 4.84,-3 a 0.47,0.47 0 0 0 0.13,-0.7 z"
       transform="translate(-57.92,-70.71)"
       id="path214"
       inkscape:connector-curvature="0" />
    <path
       d="m 887.43,439.53 -3.13,-4.46 a 0.45,0.45 0 0 0 -0.63,-0.12 l -4.58,3.05 a 0.45,0.45 0 0 0 -0.13,0.63 l 2.87,4.41 a 0.46,0.46 0 0 0 0.63,0.14 l 4.84,-3 a 0.46,0.46 0 0 0 0.13,-0.65 z"
       transform="translate(-57.92,-70.71)"
       id="path216"
       inkscape:connector-curvature="0" />
    <path
       d="M 931.13,398.59 928.61,395 a 1,1 0 0 0 -1.35,-0.25 l -3.73,2.52 a 1,1 0 0 0 -0.27,1.35 l 2.31,3.55 a 1,1 0 0 0 1.34,0.29 l 3.94,-2.47 a 1,1 0 0 0 0.28,-1.4 z"
       transform="translate(-57.92,-70.71)"
       id="path218"
       inkscape:connector-curvature="0" />
    <path
       d="m 924,403.53 -2.52,-3.6 a 1,1 0 0 0 -1.36,-0.25 l -3.72,2.52 a 1,1 0 0 0 -0.28,1.35 l 2.31,3.55 a 1,1 0 0 0 1.35,0.3 l 3.94,-2.48 a 1,1 0 0 0 0.28,-1.39 z"
       transform="translate(-57.92,-70.71)"
       id="path220"
       inkscape:connector-curvature="0" />
    <path
       d="m 916.89,408.46 -2.52,-3.59 a 1,1 0 0 0 -1.36,-0.25 l -3.73,2.51 a 1,1 0 0 0 -0.27,1.35 l 2.31,3.55 a 1,1 0 0 0 1.35,0.3 l 3.93,-2.48 a 1,1 0 0 0 0.29,-1.39 z"
       transform="translate(-57.92,-70.71)"
       id="path222"
       inkscape:connector-curvature="0" />
    <path
       d="m 909.76,413.39 -2.52,-3.59 a 1,1 0 0 0 -1.35,-0.25 l -3.73,2.51 a 1,1 0 0 0 -0.27,1.35 l 2.31,3.59 a 1,1 0 0 0 1.34,0.3 l 3.94,-2.47 a 1,1 0 0 0 0.28,-1.44 z"
       transform="translate(-57.92,-70.71)"
       id="path224"
       inkscape:connector-curvature="0" />
    <path
       d="m 903,418.77 -3.13,-4.46 a 0.45,0.45 0 0 0 -0.63,-0.12 l -4.58,3.09 a 0.46,0.46 0 0 0 -0.13,0.63 l 2.87,4.42 a 0.45,0.45 0 0 0 0.63,0.13 l 4.84,-3 a 0.46,0.46 0 0 0 0.13,-0.69 z"
       transform="translate(-57.92,-70.71)"
       id="path226"
       inkscape:connector-curvature="0" />
    <path
       d="m 896.65,423.14 -3.13,-4.47 a 0.47,0.47 0 0 0 -0.64,-0.11 l -4.57,3.08 a 0.47,0.47 0 0 0 -0.13,0.64 l 2.87,4.41 a 0.46,0.46 0 0 0 0.63,0.14 l 4.84,-3 a 0.46,0.46 0 0 0 0.13,-0.69 z"
       transform="translate(-57.92,-70.71)"
       id="path228"
       inkscape:connector-curvature="0" />
    <path
       d="m 889.59,428 -3.13,-4.47 a 0.47,0.47 0 0 0 -0.64,-0.11 l -4.58,3.08 a 0.48,0.48 0 0 0 -0.13,0.64 l 2.88,4.41 a 0.46,0.46 0 0 0 0.63,0.14 l 4.83,-3 a 0.45,0.45 0 0 0 0.14,-0.69 z"
       transform="translate(-57.92,-70.71)"
       id="path230"
       inkscape:connector-curvature="0" />
    <path
       d="m 882.75,432.76 -3.13,-4.46 a 0.46,0.46 0 0 0 -0.64,-0.12 l -4.58,3.09 a 0.46,0.46 0 0 0 -0.12,0.63 l 2.87,4.41 a 0.44,0.44 0 0 0 0.63,0.14 l 4.83,-3 a 0.45,0.45 0 0 0 0.14,-0.69 z"
       transform="translate(-57.92,-70.71)"
       id="path232"
       inkscape:connector-curvature="0" />
    <path
       d="m 880.59,444.26 -3.13,-4.46 a 0.46,0.46 0 0 0 -0.63,-0.11 l -4.58,3.08 a 0.45,0.45 0 0 0 -0.13,0.63 l 2.87,4.42 a 0.47,0.47 0 0 0 0.63,0.14 l 4.84,-3 a 0.47,0.47 0 0 0 0.13,-0.7 z"
       transform="translate(-57.92,-70.71)"
       id="path234"
       inkscape:connector-curvature="0" />
    <path
       d="m 873.75,449 -3.13,-4.46 a 0.45,0.45 0 0 0 -0.63,-0.12 l -4.58,3.09 a 0.45,0.45 0 0 0 -0.13,0.63 l 2.87,4.41 a 0.46,0.46 0 0 0 0.63,0.14 l 4.84,-3 a 0.46,0.46 0 0 0 0.13,-0.69 z"
       transform="translate(-57.92,-70.71)"
       id="path236"
       inkscape:connector-curvature="0" />
    <path
       d="m 884.49,420.66 -3,-4.2 a 0.62,0.62 0 0 0 -0.85,-0.15 l -4.32,2.91 a 0.61,0.61 0 0 0 -0.17,0.85 l 2.7,4.15 a 0.6,0.6 0 0 0 0.84,0.19 l 4.57,-2.87 a 0.62,0.62 0 0 0 0.23,-0.88 z"
       transform="translate(-57.92,-70.71)"
       id="path238"
       inkscape:connector-curvature="0" />
    <path
       d="m 877.65,425.4 -2.95,-4.2 a 0.61,0.61 0 0 0 -0.85,-0.16 l -4.32,2.96 a 0.6,0.6 0 0 0 -0.17,0.84 l 2.7,4.16 a 0.62,0.62 0 0 0 0.84,0.19 l 4.57,-2.87 a 0.62,0.62 0 0 0 0.18,-0.92 z"
       transform="translate(-57.92,-70.71)"
       id="path240"
       inkscape:connector-curvature="0" />
    <path
       d="m 870.81,430.14 -2.95,-4.21 a 0.62,0.62 0 0 0 -0.85,-0.15 l -4.32,2.91 a 0.61,0.61 0 0 0 -0.17,0.85 l 2.7,4.15 a 0.6,0.6 0 0 0 0.84,0.19 l 4.57,-2.87 a 0.61,0.61 0 0 0 0.18,-0.87 z"
       transform="translate(-57.92,-70.71)"
       id="path242"
       inkscape:connector-curvature="0" />
    <path
       d="m 864.06,435 -3.13,-4.47 a 0.46,0.46 0 0 0 -0.63,-0.11 l -4.58,3.08 a 0.47,0.47 0 0 0 -0.13,0.64 l 2.87,4.41 a 0.47,0.47 0 0 0 0.63,0.14 l 4.84,-3 a 0.44,0.44 0 0 0 0.13,-0.69 z"
       transform="translate(-57.92,-70.71)"
       id="path244"
       inkscape:connector-curvature="0" />
    <path
       d="M 945,388.85 942.29,385 a 1,1 0 0 0 -1.36,-0.24 l -10.58,7.41 a 1,1 0 0 0 -0.26,1.34 l 2.55,3.94 a 1,1 0 0 0 1.39,0.27 l 10.74,-7.51 a 1,1 0 0 0 0.23,-1.36 z"
       transform="translate(-57.92,-70.71)"
       id="path246"
       inkscape:connector-curvature="0" />
    <path
       d="m 875.89,437.35 -3.32,-4.69 a 0.45,0.45 0 0 0 -0.64,-0.11 l -11.42,8 a 0.45,0.45 0 0 0 -0.12,0.62 l 3.12,4.83 a 0.46,0.46 0 0 0 0.65,0.13 L 875.77,438 a 0.47,0.47 0 0 0 0.12,-0.65 z"
       transform="translate(-57.92,-70.71)"
       id="path248"
       inkscape:connector-curvature="0" />
    <path
       d="M 912.22,401.48 909.16,397 a 0.46,0.46 0 0 0 -0.63,-0.12 L 883.17,414 a 0.46,0.46 0 0 0 -0.13,0.63 l 3.13,4.8 a 0.46,0.46 0 0 0 0.65,0.13 l 25.28,-17.44 a 0.46,0.46 0 0 0 0.12,-0.64 z"
       transform="translate(-57.92,-70.71)"
       id="path250"
       inkscape:connector-curvature="0" />
  </g>
  <path
     d="m 834.99061,565.52849 -2.08078,-2.97254 a 0.82570583,0.82570583 0 0 0 -1.12296,-0.20643 l -3.07162,2.08078 a 0.82570583,0.82570583 0 0 0 -0.2312,1.1147 l 1.90738,2.93126 a 0.82570583,0.82570583 0 0 0 1.1147,0.24771 l 3.25328,-2.04775 a 0.82570583,0.82570583 0 0 0 0.2312,-1.14773 z"
     id="path254"
     inkscape:connector-curvature="0"
     style="fill:#464a5f;stroke-width:0.82570583" />
  <path
     d="m 829.42535,569.35976 -2.08078,-2.96428 a 0.82570583,0.82570583 0 0 0 -1.1147,-0.20643 l -3.07988,2.07252 a 0.82570583,0.82570583 0 0 0 -0.2312,1.11471 l 1.90738,2.93125 a 0.82570583,0.82570583 0 0 0 1.1147,0.24772 l 3.25329,-2.0395 a 0.82570583,0.82570583 0 0 0 0.23119,-1.15599 z"
     id="path256"
     inkscape:connector-curvature="0"
     style="fill:#464a5f;stroke-width:0.82570583" />
  <path
     d="m 823.64541,573.38921 -2.08078,-2.96429 a 0.82570583,0.82570583 0 0 0 -1.12296,-0.20642 l -3.07162,2.08078 a 0.82570583,0.82570583 0 0 0 -0.2312,1.1147 l 1.90738,2.93125 a 0.82570583,0.82570583 0 0 0 1.1147,0.23946 l 3.25328,-2.03949 a 0.82570583,0.82570583 0 0 0 0.2312,-1.15599 z"
     id="path258"
     inkscape:connector-curvature="0"
     style="fill:#464a5f;stroke-width:0.82570583" />
  <path
     d="m 817.74987,577.45994 -2.08078,-2.97254 a 0.82570583,0.82570583 0 0 0 -1.1147,-0.20643 l -3.07988,2.08078 a 0.82570583,0.82570583 0 0 0 -0.21469,1.15599 l 1.90739,2.93125 a 0.82570583,0.82570583 0 0 0 1.1147,0.24771 l 3.24502,-2.04775 a 0.82570583,0.82570583 0 0 0 0.22294,-1.18901 z"
     id="path260"
     inkscape:connector-curvature="0"
     style="fill:#464a5f;stroke-width:0.82570583" />
  <path
     d="m 811.87085,581.53067 -2.08078,-2.96429 a 0.82570583,0.82570583 0 0 0 -1.1147,-0.20642 l -3.07989,2.07252 a 0.82570583,0.82570583 0 0 0 -0.22294,1.1147 l 1.89913,2.93126 a 0.82570583,0.82570583 0 0 0 1.1147,0.24771 l 3.25328,-2.04775 a 0.82570583,0.82570583 0 0 0 0.2312,-1.14773 z"
     id="path262"
     inkscape:connector-curvature="0"
     style="fill:#464a5f;stroke-width:0.82570583" />
  <path
     d="m 806.24779,585.97296 -2.58446,-3.68264 a 0.37156762,0.37156762 0 0 0 -0.52019,-0.0991 l -3.78174,2.55143 a 0.37156762,0.37156762 0 0 0 -0.10734,0.5202 l 2.36978,3.64136 a 0.37982468,0.37982468 0 0 0 0.52019,0.1156 l 3.99642,-2.47712 a 0.37982468,0.37982468 0 0 0 0.10734,-0.56974 z"
     id="path264"
     inkscape:connector-curvature="0"
     style="fill:#464a5f;stroke-width:0.82570583" />
  <path
     d="m 800.36876,590.04369 -2.58445,-3.68264 a 0.37982468,0.37982468 0 0 0 -0.52846,-0.0991 l -3.77347,2.55143 a 0.37156762,0.37156762 0 0 0 -0.10734,0.5202 l 2.36977,3.64962 a 0.37156762,0.37156762 0 0 0 0.5202,0.10734 l 3.99641,-2.47712 a 0.38808174,0.38808174 0 0 0 0.10734,-0.56974 z"
     id="path266"
     inkscape:connector-curvature="0"
     style="fill:#464a5f;stroke-width:0.82570583" />
  <path
     d="m 795.15856,593.65203 -2.58446,-3.69091 a 0.37982468,0.37982468 0 0 0 -0.52019,-0.0908 l -3.78174,2.51014 a 0.38808174,0.38808174 0 0 0 -0.10734,0.52845 l 2.36978,3.64137 a 0.38808174,0.38808174 0 0 0 0.52019,0.1156 l 3.99642,-2.47712 a 0.37982468,0.37982468 0 0 0 0.10734,-0.53671 z"
     id="path268"
     inkscape:connector-curvature="0"
     style="fill:#464a5f;stroke-width:0.82570583" />
  <path
     d="m 789.32908,597.68973 -2.58446,-3.65788 a 0.37982468,0.37982468 0 0 0 -0.5202,-0.0908 l -3.78173,2.54317 a 0.37982468,0.37982468 0 0 0 -0.10734,0.52845 l 2.36978,3.64136 a 0.38808174,0.38808174 0 0 0 0.52019,0.1156 l 3.99642,-2.47711 a 0.37982468,0.37982468 0 0 0 0.10734,-0.60277 z"
     id="path270"
     inkscape:connector-curvature="0"
     style="fill:#464a5f;stroke-width:0.82570583" />
  <path
     d="m 783.68125,601.59532 -2.58446,-3.68265 a 0.37156762,0.37156762 0 0 0 -0.52019,-0.0991 l -3.78174,2.55143 a 0.37156762,0.37156762 0 0 0 -0.10734,0.52019 l 2.36978,3.64137 a 0.37156762,0.37156762 0 0 0 0.52019,0.11559 l 3.99642,-2.47711 a 0.37982468,0.37982468 0 0 0 0.10734,-0.56974 z"
     id="path272"
     inkscape:connector-curvature="0"
     style="fill:#464a5f;stroke-width:0.82570583" />
  <path
     d="m 778.03342,605.50916 -2.58446,-3.6909 a 0.37982468,0.37982468 0 0 0 -0.52019,-0.0908 l -3.78173,2.54318 a 0.38808174,0.38808174 0 0 0 -0.10735,0.52845 l 2.36978,3.64136 a 0.38808174,0.38808174 0 0 0 0.52019,0.1156 l 3.99642,-2.47712 a 0.37982468,0.37982468 0 0 0 0.10734,-0.56974 z"
     id="path274"
     inkscape:connector-curvature="0"
     style="fill:#464a5f;stroke-width:0.82570583" />
  <path
     d="m 772.38559,609.41475 -2.58446,-3.68264 a 0.37156762,0.37156762 0 0 0 -0.52019,-0.0991 l -3.78173,2.55143 a 0.37156762,0.37156762 0 0 0 -0.10734,0.5202 l 2.36977,3.64136 a 0.37156762,0.37156762 0 0 0 0.5202,0.1156 l 3.99641,-2.47712 a 0.37982468,0.37982468 0 0 0 0.10734,-0.56974 z"
     id="path276"
     inkscape:connector-curvature="0"
     style="fill:#464a5f;stroke-width:0.82570583" />
  <path
     d="m 831.26668,560.17791 -2.08078,-2.97254 a 0.82570583,0.82570583 0 0 0 -1.1147,-0.20642 l -3.07989,2.08078 a 0.82570583,0.82570583 0 0 0 -0.22294,1.1147 l 1.89913,2.93125 a 0.82570583,0.82570583 0 0 0 1.1147,0.24772 l 3.25328,-2.04775 a 0.82570583,0.82570583 0 0 0 0.2312,-1.14774 z"
     id="path278"
     inkscape:connector-curvature="0"
     style="fill:#464a5f;stroke-width:0.82570583" />
  <path
     d="m 823.13347,548.40335 -2.08077,-2.96428 a 0.82570583,0.82570583 0 0 0 -1.11471,-0.20643 l -3.07988,2.07252 a 0.82570583,0.82570583 0 0 0 -0.22294,1.1147 l 1.90738,2.93126 a 0.82570583,0.82570583 0 0 0 1.10645,0.24771 l 3.25328,-2.03949 a 0.82570583,0.82570583 0 0 0 0.23119,-1.15599 z"
     id="path280"
     inkscape:connector-curvature="0"
     style="fill:#464a5f;stroke-width:0.82570583" />
  <path
     d="m 825.72619,563.98442 -2.08078,-2.9808 a 0.82570583,0.82570583 0 0 0 -1.1147,-0.20643 l -3.07988,2.07253 a 0.82570583,0.82570583 0 0 0 -0.22294,1.1147 l 1.90738,2.93125 a 0.82570583,0.82570583 0 0 0 1.10644,0.24772 l 3.25328,-2.0395 a 0.82570583,0.82570583 0 0 0 0.2312,-1.13947 z"
     id="path282"
     inkscape:connector-curvature="0"
     style="fill:#464a5f;stroke-width:0.82570583" />
  <path
     d="m 819.91322,568.00561 -2.04775,-2.96429 a 0.82570583,0.82570583 0 0 0 -1.1147,-0.20642 l -3.07988,2.07252 a 0.82570583,0.82570583 0 0 0 -0.22294,1.12296 l 1.89912,2.93125 a 0.82570583,0.82570583 0 0 0 1.1147,0.23946 l 3.25328,-2.0395 a 0.82570583,0.82570583 0 0 0 0.19817,-1.15598 z"
     id="path284"
     inkscape:connector-curvature="0"
     style="fill:#464a5f;stroke-width:0.82570583" />
  <path
     d="m 814.0342,572.08459 -2.08078,-2.97254 a 0.82570583,0.82570583 0 0 0 -1.12296,-0.20642 l -3.07163,2.08077 a 0.82570583,0.82570583 0 0 0 -0.2312,1.11471 l 1.90738,2.93125 a 0.82570583,0.82570583 0 0 0 1.11471,0.24771 l 3.25328,-2.04775 a 0.82570583,0.82570583 0 0 0 0.2312,-1.14773 z"
     id="path286"
     inkscape:connector-curvature="0"
     style="fill:#464a5f;stroke-width:0.82570583" />
  <path
     d="m 817.7251,552.42454 -2.08078,-2.9808 a 0.82570583,0.82570583 0 0 0 -1.1147,-0.20643 l -3.07988,2.07252 a 0.82570583,0.82570583 0 0 0 -0.22294,1.11471 l 1.90738,2.93125 a 0.82570583,0.82570583 0 0 0 1.10644,0.24771 l 3.25328,-2.03949 a 0.82570583,0.82570583 0 0 0 0.2312,-1.13947 z"
     id="path288"
     inkscape:connector-curvature="0"
     style="fill:#464a5f;stroke-width:0.82570583" />
  <path
     d="m 811.91213,556.45398 -2.08078,-2.97254 a 0.82570583,0.82570583 0 0 0 -1.1147,-0.20643 l -3.07988,2.08078 a 0.82570583,0.82570583 0 0 0 -0.2312,1.11471 l 1.90738,2.93125 a 0.82570583,0.82570583 0 0 0 1.1147,0.24771 l 3.25328,-2.04775 a 0.82570583,0.82570583 0 0 0 0.2312,-1.14773 z"
     id="path290"
     inkscape:connector-curvature="0"
     style="fill:#464a5f;stroke-width:0.82570583" />
  <path
     d="m 806.03311,560.52471 -2.08078,-2.96428 a 0.82570583,0.82570583 0 0 0 -1.12296,-0.20643 l -3.07163,2.07252 a 0.82570583,0.82570583 0 0 0 -0.2312,1.11471 l 1.90739,2.93951 a 0.82570583,0.82570583 0 0 0 1.1147,0.24771 l 3.24502,-2.04775 a 0.82570583,0.82570583 0 0 0 0.23946,-1.15599 z"
     id="path292"
     inkscape:connector-curvature="0"
     style="fill:#464a5f;stroke-width:0.82570583" />
  <path
     d="m 808.14691,576.15532 -2.08077,-2.96428 a 0.82570583,0.82570583 0 0 0 -1.11471,-0.20643 l -3.07988,2.05601 a 0.82570583,0.82570583 0 0 0 -0.22294,1.1147 l 1.90738,2.93126 a 0.82570583,0.82570583 0 0 0 1.10645,0.24771 l 3.25328,-2.04775 a 0.82570583,0.82570583 0 0 0 0.23119,-1.13122 z"
     id="path294"
     inkscape:connector-curvature="0"
     style="fill:#464a5f;stroke-width:0.82570583" />
  <path
     d="m 802.26789,580.22605 -2.08078,-2.96428 a 0.82570583,0.82570583 0 0 0 -1.1147,-0.20643 l -3.07989,2.11381 a 0.82570583,0.82570583 0 0 0 -0.23119,1.1147 l 1.90738,2.93126 a 0.82570583,0.82570583 0 0 0 1.1147,0.24771 l 3.25328,-2.03949 a 0.82570583,0.82570583 0 0 0 0.2312,-1.19728 z"
     id="path296"
     inkscape:connector-curvature="0"
     style="fill:#464a5f;stroke-width:0.82570583" />
  <path
     d="m 796.64483,584.66835 -2.58446,-3.68265 a 0.37156762,0.37156762 0 0 0 -0.52019,-0.0991 l -3.74871,2.55143 a 0.37156762,0.37156762 0 0 0 -0.10734,0.52019 l 2.36978,3.64137 a 0.37156762,0.37156762 0 0 0 0.52019,0.11559 l 3.99642,-2.47711 a 0.38808174,0.38808174 0 0 0 0.0743,-0.56974 z"
     id="path298"
     inkscape:connector-curvature="0"
     style="fill:#464a5f;stroke-width:0.82570583" />
  <path
     d="m 791.44288,588.25191 -2.58445,-3.6909 a 0.38808174,0.38808174 0 0 0 -0.52846,-0.0908 l -3.78173,2.54317 a 0.3963388,0.3963388 0 0 0 -0.10734,0.52846 l 2.37803,3.64136 a 0.37982468,0.37982468 0 0 0 0.5202,0.1156 l 3.98816,-2.47712 a 0.37156762,0.37156762 0 0 0 0.11559,-0.56974 z"
     id="path300"
     inkscape:connector-curvature="0"
     style="fill:#464a5f;stroke-width:0.82570583" />
  <path
     d="m 785.60514,592.31439 -2.58445,-3.69091 a 0.37982468,0.37982468 0 0 0 -0.5202,-0.0908 l -3.78173,2.54318 a 0.38808174,0.38808174 0 0 0 -0.10734,0.52845 l 2.36977,3.64136 a 0.38808174,0.38808174 0 0 0 0.5202,0.1156 l 3.99641,-2.47712 a 0.36331057,0.36331057 0 0 0 0.10734,-0.56973 z"
     id="path302"
     inkscape:connector-curvature="0"
     style="fill:#464a5f;stroke-width:0.82570583" />
  <path
     d="m 779.96557,596.21997 -2.55968,-3.68264 a 0.37156762,0.37156762 0 0 0 -0.5202,-0.0991 l -3.78173,2.55143 a 0.37982468,0.37982468 0 0 0 -0.10734,0.5202 l 2.36977,3.64136 a 0.37982468,0.37982468 0 0 0 0.5202,0.1156 l 3.99641,-2.47712 a 0.37156762,0.37156762 0 0 0 0.0826,-0.56974 z"
     id="path304"
     inkscape:connector-curvature="0"
     style="fill:#464a5f;stroke-width:0.82570583" />
  <path
     d="m 816.04066,562.42383 -2.07252,-2.97254 a 0.82570583,0.82570583 0 0 0 -1.12296,-0.20642 l -3.07988,2.08078 a 0.82570583,0.82570583 0 0 0 -0.22294,1.1147 l 1.90738,2.93125 a 0.82570583,0.82570583 0 0 0 1.1147,0.23946 l 3.24502,-2.03949 a 0.82570583,0.82570583 0 0 0 0.2312,-1.14774 z"
     id="path306"
     inkscape:connector-curvature="0"
     style="fill:#464a5f;stroke-width:0.82570583" />
  <path
     d="m 810.16164,566.49456 -2.08078,-2.96428 a 0.82570583,0.82570583 0 0 0 -1.11471,-0.21468 l -3.07988,2.08078 a 0.82570583,0.82570583 0 0 0 -0.22294,1.1147 l 1.90738,2.93125 a 0.82570583,0.82570583 0 0 0 1.10645,0.24772 l 3.25328,-2.04775 a 0.82570583,0.82570583 0 0 0 0.2312,-1.14774 z"
     id="path308"
     inkscape:connector-curvature="0"
     style="fill:#464a5f;stroke-width:0.82570583" />
  <path
     d="m 804.28261,570.56529 -2.10555,-2.95602 a 0.82570583,0.82570583 0 0 0 -1.12296,-0.20643 l -3.00557,2.06427 a 0.82570583,0.82570583 0 0 0 -0.2312,1.1147 l 1.90738,2.93125 a 0.82570583,0.82570583 0 0 0 1.11471,0.24772 l 3.25328,-2.0395 a 0.82570583,0.82570583 0 0 0 0.18991,-1.15599 z"
     id="path310"
     inkscape:connector-curvature="0"
     style="fill:#464a5f;stroke-width:0.82570583" />
  <path
     d="m 798.39533,574.63602 -2.08078,-2.96428 a 0.82570583,0.82570583 0 0 0 -1.1147,-0.20643 l -3.07989,2.07253 a 0.82570583,0.82570583 0 0 0 -0.22294,1.1147 l 1.90738,2.93125 a 0.82570583,0.82570583 0 0 0 1.10645,0.24772 l 3.25328,-2.0395 a 0.82570583,0.82570583 0 0 0 0.2312,-1.15599 z"
     id="path312"
     inkscape:connector-curvature="0"
     style="fill:#464a5f;stroke-width:0.82570583" />
  <path
     d="m 792.78053,579.07832 -2.58446,-3.68265 a 0.37982468,0.37982468 0 0 0 -0.52845,-0.0991 l -3.78174,2.55143 a 0.37982468,0.37982468 0 0 0 -0.10734,0.52019 l 2.36978,3.64962 a 0.37982468,0.37982468 0 0 0 0.52845,0.10735 l 3.98816,-2.47712 a 0.37982468,0.37982468 0 0 0 0.1156,-0.56974 z"
     id="path314"
     inkscape:connector-curvature="0"
     style="fill:#464a5f;stroke-width:0.82570583" />
  <path
     d="m 787.57032,582.68666 -2.58445,-3.68265 a 0.37156762,0.37156762 0 0 0 -0.5202,-0.0991 l -3.75696,2.54318 a 0.38808174,0.38808174 0 0 0 -0.10734,0.52845 l 2.36977,3.64136 a 0.38808174,0.38808174 0 0 0 0.5202,0.1156 l 3.99641,-2.47712 a 0.37982468,0.37982468 0 0 0 0.0826,-0.56973 z"
     id="path316"
     inkscape:connector-curvature="0"
     style="fill:#464a5f;stroke-width:0.82570583" />
  <path
     d="m 781.74084,586.72436 -2.58446,-3.69091 a 0.38808174,0.38808174 0 0 0 -0.52845,-0.0908 l -3.77348,2.54318 a 0.38808174,0.38808174 0 0 0 -0.10734,0.52845 l 2.36978,3.64136 a 0.37982468,0.37982468 0 0 0 0.52019,0.1156 l 3.99642,-2.47712 a 0.37982468,0.37982468 0 0 0 0.10734,-0.56973 z"
     id="path318"
     inkscape:connector-curvature="0"
     style="fill:#464a5f;stroke-width:0.82570583" />
  <path
     d="m 776.09301,590.62995 -2.58446,-3.68265 a 0.37982468,0.37982468 0 0 0 -0.52845,-0.0991 l -3.77347,2.55143 a 0.37156762,0.37156762 0 0 0 -0.10734,0.5202 l 2.36977,3.64962 a 0.37156762,0.37156762 0 0 0 0.5202,0.10734 l 3.99641,-2.47712 a 0.38808174,0.38808174 0 0 0 0.10734,-0.56973 z"
     id="path320"
     inkscape:connector-curvature="0"
     style="fill:#464a5f;stroke-width:0.82570583" />
  <path
     d="m 774.31775,600.13382 -2.58446,-3.69091 a 0.38808174,0.38808174 0 0 0 -0.52846,-0.0908 l -3.78173,2.54317 a 0.38808174,0.38808174 0 0 0 -0.10734,0.52845 l 2.36978,3.64137 a 0.38808174,0.38808174 0 0 0 0.52019,0.11559 l 3.99642,-2.47711 a 0.37156762,0.37156762 0 0 0 0.1156,-0.56974 z"
     id="path322"
     inkscape:connector-curvature="0"
     style="fill:#464a5f;stroke-width:0.82570583" />
  <path
     d="m 768.66992,604.03941 -2.58446,-3.68265 a 0.37982468,0.37982468 0 0 0 -0.52845,-0.0991 l -3.78174,2.55143 a 0.37982468,0.37982468 0 0 0 -0.10734,0.52019 l 2.36978,3.64136 a 0.37982468,0.37982468 0 0 0 0.52845,0.1156 l 3.98816,-2.47711 a 0.37156762,0.37156762 0 0 0 0.1156,-0.56974 z"
     id="path324"
     inkscape:connector-curvature="0"
     style="fill:#464a5f;stroke-width:0.82570583" />
  <path
     d="m 777.52974,580.64716 -2.43583,-3.47622 a 0.51193762,0.51193762 0 0 0 -0.70185,-0.12386 l -3.59182,2.40281 a 0.51193762,0.51193762 0 0 0 -0.14037,0.70185 l 2.2294,3.43494 a 0.51193762,0.51193762 0 0 0 0.70185,0.14862 l 3.76522,-2.36977 a 0.50368056,0.50368056 0 0 0 0.1734,-0.71837 z"
     id="path326"
     inkscape:connector-curvature="0"
     style="fill:#464a5f;stroke-width:0.82570583" />
  <path
     d="m 771.88191,584.55275 -2.43583,-3.46796 a 0.50368056,0.50368056 0 0 0 -0.70185,-0.13212 l -3.56705,2.41106 a 0.50368056,0.50368056 0 0 0 -0.14037,0.6936 l 2.22941,3.43493 a 0.52019467,0.52019467 0 0 0 0.70185,0.15689 l 3.77347,-2.36978 a 0.52019467,0.52019467 0 0 0 0.14037,-0.72662 z"
     id="path328"
     inkscape:connector-curvature="0"
     style="fill:#464a5f;stroke-width:0.82570583" />
  <path
     d="m 766.23409,588.4666 -2.47712,-3.47623 a 0.50368056,0.50368056 0 0 0 -0.69359,-0.12385 l -3.57531,2.4028 a 0.51193762,0.51193762 0 0 0 -0.14037,0.70185 l 2.2294,3.43494 a 0.51193762,0.51193762 0 0 0 0.70185,0.14863 l 3.77348,-2.36978 a 0.50368056,0.50368056 0 0 0 0.18166,-0.71836 z"
     id="path330"
     inkscape:connector-curvature="0"
     style="fill:#464a5f;stroke-width:0.82570583" />
  <path
     d="m 760.66883,592.48778 -2.58446,-3.6909 a 0.38808174,0.38808174 0 0 0 -0.52845,-0.0908 l -3.78174,2.54318 a 0.38808174,0.38808174 0 0 0 -0.0991,0.52845 l 2.36978,3.64136 a 0.37982468,0.37982468 0 0 0 0.52019,0.1156 l 3.99642,-2.47712 a 0.37982468,0.37982468 0 0 0 0.10734,-0.56974 z"
     id="path332"
     inkscape:connector-curvature="0"
     style="fill:#464a5f;stroke-width:0.82570583" />
  <path
     d="m 827.50146,554.39797 -2.20464,-3.18722 a 0.82570583,0.82570583 0 0 0 -1.12296,-0.19817 l -8.78551,6.11848 a 0.82570583,0.82570583 0 0 0 -0.21468,1.10645 l 2.11381,3.25328 a 0.82570583,0.82570583 0 0 0 1.14773,0.22294 l 8.85982,-6.20105 a 0.82570583,0.82570583 0 0 0 0.20643,-1.11471 z"
     id="path334"
     inkscape:connector-curvature="0"
     style="fill:#464a5f;stroke-width:0.82570583" />
  <path
     d="m 770.42867,594.41994 -2.74134,-3.87256 a 0.37156762,0.37156762 0 0 0 -0.52845,-0.0908 l -9.42956,6.60564 a 0.37982468,0.37982468 0 0 0 -0.0991,0.5202 l 2.58446,3.9799 a 0.37982468,0.37982468 0 0 0 0.53671,0.10734 l 9.58644,-6.71299 a 0.38808174,0.38808174 0 0 0 0.0908,-0.5367 z"
     id="path336"
     inkscape:connector-curvature="0"
     style="fill:#464a5f;stroke-width:0.82570583" />
  <path
     d="m 800.42656,564.80187 -2.47711,-3.67439 a 0.38808174,0.38808174 0 0 0 -0.52845,-0.10735 l -20.93165,14.11957 a 0.37156762,0.37156762 0 0 0 -0.10734,0.5202 l 2.5762,3.96339 a 0.37982468,0.37982468 0 0 0 0.53671,0.10734 l 20.87384,-14.40031 a 0.37982468,0.37982468 0 0 0 0.0578,-0.52845 z"
     id="path338"
     inkscape:connector-curvature="0"
     style="fill:#464a5f;stroke-width:0.82570583" />
  <path
     d="M 800.52565,552.18508 789.39513,536.0095 a 2.0642646,2.0642646 0 0 0 -2.85694,-0.54496 l -30.65846,20.58485 a 2.0725216,2.0725216 0 0 0 -0.55322,2.88171 l 11.3452,16.63797 a 2.0642646,2.0642646 0 0 0 2.88171,0.54497 l 30.44378,-21.06376 a 2.0560075,2.0560075 0 0 0 0.52845,-2.8652 z"
     id="path340"
     inkscape:connector-curvature="0"
     style="opacity:0.1;stroke-width:0.82570583" />
  <path
     d="m 801.03759,552.28417 -11.13052,-16.17558 a 2.0725216,2.0725216 0 0 0 -2.85694,-0.54497 l -30.61717,20.60136 a 2.0642646,2.0642646 0 0 0 -0.56148,2.88172 l 11.31217,16.62146 a 2.0642646,2.0642646 0 0 0 2.88171,0.54496 l 30.46029,-21.06375 a 2.0560075,2.0560075 0 0 0 0.51194,-2.8652 z"
     id="path342"
     inkscape:connector-curvature="0"
     style="fill:#939498;stroke-width:0.82570583" />
  <path
     d="m 870.05834,578.42601 -23.61519,-7.87723 -75.742,52.61398 23.44179,7.63777 a 4.2936703,4.2936703 0 0 0 3.78999,-0.56148 l 72.34009,-50.30199 a 0.82570583,0.82570583 0 0 0 -0.21468,-1.51105 z"
     id="path344"
     inkscape:connector-curvature="0"
     style="fill:#00bfa6;stroke-width:0.82570583" />
</svg>
