<?xml version="1.0" encoding="UTF-8" standalone="no"?>
<svg
   xmlns:dc="http://purl.org/dc/elements/1.1/"
   xmlns:cc="http://creativecommons.org/ns#"
   xmlns:rdf="http://www.w3.org/1999/02/22-rdf-syntax-ns#"
   xmlns:svg="http://www.w3.org/2000/svg"
   xmlns="http://www.w3.org/2000/svg"
   xmlns:sodipodi="http://sodipodi.sourceforge.net/DTD/sodipodi-0.dtd"
   xmlns:inkscape="http://www.inkscape.org/namespaces/inkscape"
   id="ff89978a-9cc6-4db0-9bd2-e66489869078"
   data-name="Layer 1"
   width="1048.67"
   height="1048.67"
   viewBox="0 0 1048.67 1048.6701"
   version="1.1"
   sodipodi:docname="design.svg"
   inkscape:version="0.92.4 (5da689c313, 2019-01-14)">
  <metadata
     id="metadata890">
    <rdf:RDF>
      <cc:Work
         rdf:about="">
        <dc:format>image/svg+xml</dc:format>
        <dc:type
           rdf:resource="http://purl.org/dc/dcmitype/StillImage" />
        <dc:title>designer life</dc:title>
      </cc:Work>
    </rdf:RDF>
  </metadata>
  <sodipodi:namedview
     pagecolor="#ffffff"
     bordercolor="#666666"
     borderopacity="1"
     objecttolerance="10"
     gridtolerance="10"
     guidetolerance="10"
     inkscape:pageopacity="0"
     inkscape:pageshadow="2"
     inkscape:window-width="1920"
     inkscape:window-height="1017"
     id="namedview888"
     showgrid="false"
     inkscape:zoom="0.77408389"
     inkscape:cx="515.60171"
     inkscape:cy="536.91636"
     inkscape:window-x="-8"
     inkscape:window-y="-8"
     inkscape:window-maximized="1"
     inkscape:current-layer="ff89978a-9cc6-4db0-9bd2-e66489869078" />
  <defs
     id="defs9">
    <linearGradient
       id="f178813a-ad61-42c1-bb1e-06eeb3501bc0"
       x1="913.26001"
       y1="758.31"
       x2="913.26001"
       y2="258.95999"
       gradientTransform="matrix(-0.87188186,0,0,0.87188186,1517.6912,206.13063)"
       gradientUnits="userSpaceOnUse">
      <stop
         offset="0"
         stop-color="gray"
         stop-opacity="0.25"
         id="stop2" />
      <stop
         offset="0.54"
         stop-color="gray"
         stop-opacity="0.12"
         id="stop4" />
      <stop
         offset="1"
         stop-color="gray"
         stop-opacity="0.1"
         id="stop6" />
    </linearGradient>
  </defs>
  <title
     id="title11">designer life</title>
  <path
     style="fill:#00c2a3;fill-opacity:0.09803922;stroke:none;stroke-width:1px;stroke-linecap:butt;stroke-linejoin:miter;stroke-opacity:1"
     d="M 523.8007,811.67343 C 627.46647,856.13784 839.45876,953.887 898.31475,783.84852 916.85811,730.27564 926.6273,381.90066 902.5533,343.74236 841.05331,246.26229 641.90371,357.60126 544.15388,335.4787 409.17886,304.93139 338.77071,114.02881 221.18688,188.21222 c -324.41055,204.67002 1.48858,636.0022 311.71887,624.19733"
     id="path1820"
     inkscape:connector-curvature="0" />
  <circle
     style="fill:#00bfa6;stroke-width:0.86203927"
     cx="475.44702"
     cy="523.85254"
     r="112.0651"
     id="circle1699" />
  <path
     style="fill:#3f3d56;stroke-width:0.86203927"
     inkscape:connector-curvature="0"
     d="m 490.10159,616.95313 c -62.26838,0 -112.92715,-50.65913 -112.92715,-112.92757 0,-62.26844 50.65877,-112.92714 112.92715,-112.92714 62.26802,0 112.92714,50.65869 112.92714,112.92714 0,62.26845 -50.65912,112.92757 -112.92714,112.92757 z m 0,-224.13063 A 111.20328,111.20328 0 1 0 601.30465,504.02556 111.32899,111.32899 0 0 0 490.10159,392.82247 Z"
     id="path1701" />
  <path
     style="fill:#3f3d56;stroke-width:0.86203927"
     inkscape:connector-curvature="0"
     d="M 832.33126,668.54968 H 133.21742 V 288.38995 H 832.33126 Z M 134.9415,666.82561 H 830.60718 V 290.11403 H 134.9415 Z"
     id="path1703" />
  <rect
     style="fill:#f2f2f2;stroke-width:0.86203927"
     x="156.49251"
     y="318.5614"
     width="153.44299"
     height="15.516706"
     id="rect1705" />
  <rect
     style="fill:#f2f2f2;stroke-width:0.86203927"
     x="386.65698"
     y="318.5614"
     width="153.44299"
     height="15.516706"
     id="rect1707" />
  <rect
     style="fill:#f2f2f2;stroke-width:0.86203927"
     x="616.82141"
     y="318.5614"
     width="153.44299"
     height="15.516706"
     id="rect1709" />
  <path
     style="fill:#3f3d56;stroke-width:0.86203927"
     inkscape:connector-curvature="0"
     d="M 320.27994,327.18171 H 165.11287 V 309.94093 H 320.27994 Z M 166.83695,325.45764 H 318.55586 V 311.66501 H 166.83695 Z"
     id="path1711" />
  <path
     style="fill:#3f3d56;stroke-width:0.86203927"
     inkscape:connector-curvature="0"
     d="M 550.44442,327.18171 H 395.27735 V 309.94093 H 550.44442 Z M 397.00143,325.45764 H 548.72034 V 311.66501 H 397.00143 Z"
     id="path1713" />
  <path
     style="fill:#3f3d56;stroke-width:0.86203927"
     inkscape:connector-curvature="0"
     d="M 780.6089,327.18171 H 625.44184 V 309.94093 H 780.6089 Z M 627.16591,325.45764 H 778.88482 V 311.66501 H 627.16591 Z"
     id="path1715" />
  <polygon
     style="fill:#3f3d56"
     points="456.5,361.5 473.5,371.5 401.5,488.5 393.5,483.5 "
     id="polygon1719"
     transform="matrix(0.86203926,0,0,0.86203926,133.21742,288.38995)" />
  <path
     style="fill:#00bfa6;stroke-width:0.86203927"
     inkscape:connector-curvature="0"
     d="m 440.96543,728.03005 c 0,0 10.00966,7.86474 11.146,-8.96275 a 19.301516,19.301516 0 0 1 7.02234,-13.87021 c 4.53235,-3.62124 11.05488,-6.09798 18.89935,-1.30413 6.98252,4.26709 8.55359,10.45438 8.16955,15.96959 a 24.542542,24.542542 0 0 1 -12.26906,19.18391 c -7.78189,4.61915 -20.06603,8.09583 -32.96818,-3.25805 0,-10e-6 -7.75835,-8.6204 0,-7.75836 z"
     id="path1721" />
  <circle
     style="fill:#ffb8b8;stroke-width:0.86203927"
     cx="536.99384"
     cy="458.0181"
     r="20.9184"
     id="circle1723" />
  <path
     style="fill:#ffb8b8;stroke-width:0.86203927"
     inkscape:connector-curvature="0"
     d="m 525.98423,467.92678 c 0,0 5.50481,28.62518 3.3029,34.13001 -2.20191,5.50484 30.82713,-2.20193 30.82713,-2.20193 0,0 -6.60581,-28.62518 -5.5049,-35.23099 1.101,-6.6058 -28.62513,3.30291 -28.62513,3.30291 z"
     id="path1725" />
  <polygon
     style="fill:#ffb8b8"
     points="428.71,411.854 432.636,426.666 439.022,403.677 432.636,351.313 430.467,327.738 413.479,323.215 416.033,357.698 "
     id="polygon1727"
     transform="matrix(0.86203926,0,0,0.86203926,133.21742,288.38995)" />
  <path
     style="fill:#ffb8b8;stroke-width:0.86203927"
     inkscape:connector-curvature="0"
     d="m 605.25391,562.61008 v 30.82711 c 0,0 -3.3029,39.63485 -9.90871,49.54357 -6.60581,9.90873 -8.80771,-39.63484 -8.80771,-39.63484 l 5.17628,-36.33195 z"
     id="path1729" />
  <path
     style="fill:#2f2e41;stroke-width:0.86203927"
     inkscape:connector-curvature="0"
     d="m 507.26772,658.39435 c 0,0 -5.50481,6.60581 -1.10091,73.76487 4.40381,67.15907 -2.202,115.60166 12.11061,115.60166 0,0 -4.4039,14.31258 7.70681,15.41355 12.11062,1.10097 17.61543,2.20194 18.71642,-1.10097 1.101,-3.3029 3.30291,-18.71646 0,-18.71646 0,0 0,4.40388 2.20191,-13.21161 2.20199,-17.61549 2.20199,-101.28909 7.7068,-112.29877 l 17.61552,40.73583 c 0,0 0,18.71646 3.3029,27.52421 3.3029,8.80775 8.80771,59.45226 8.80771,59.45226 l -1.10091,7.70678 c 0,0 26.42323,4.40387 27.52414,0 1.101,-4.40388 1.101,-11.00968 0,-13.21162 -1.10091,-2.20193 -1.10091,-2.20194 1.101,-6.6058 2.20199,-4.40387 2.20199,-7.70678 1.10099,-11.00968 -1.10099,-3.30291 -1.10099,-74.86585 -1.10099,-74.86585 0,0 -2.20191,-86.97649 -15.41352,-91.38036 -13.21162,-4.40388 -89.17848,2.20196 -89.17848,2.20196 z"
     id="path1731" />
  <path
     style="fill:#2f2e41;stroke-width:0.86203927"
     inkscape:connector-curvature="0"
     d="m 521.58033,854.36669 -8.80772,15.41355 c 0,0 -13.76211,-4.95435 -11.0097,7.70678 23.67082,1.65146 40.18534,-0.55048 40.18534,-0.55048 0,0 5.50489,2.20194 6.6058,-1.10097 1.101,-3.30292 -2.7524,-14.86307 -6.0553,-14.86307 -3.30291,0 -20.91842,-6.60581 -20.91842,-6.60581 z"
     id="path1733" />
  <path
     style="fill:#2f2e41;stroke-width:0.86203927"
     inkscape:connector-curvature="0"
     d="m 585.43649,849.96281 c 0,0 -8.80771,19.81742 -5.50481,20.9184 3.3029,1.10098 33.02903,5.50485 35.23094,6.60581 2.20199,1.10096 13.21161,2.20194 14.31261,-4.40387 1.101,-6.6058 -5.50481,-8.80775 -5.50481,-8.80775 0,0 -12.1107,-2.20194 -15.41361,-13.21161 -3.3029,-11.00967 -23.12032,-1.10098 -23.12032,-1.10098 z"
     id="path1735" />
  <path
     style="fill:#8985a8;stroke-width:0.86203927"
     inkscape:connector-curvature="0"
     d="m 562.31617,496.55198 c 0,0 -29.72614,-5.50484 -36.33194,0 -6.60581,5.50485 -34.13003,16.51453 -34.13003,22.01936 0,5.50484 14.31261,59.45226 14.31261,59.45226 0,0 -7.70681,81.47165 0,83.6736 7.70671,2.20194 20.91833,-4.40388 36.33194,3.3029 15.41352,7.70678 59.45226,-6.60581 59.45226,-6.60581 0,0 -16.51452,-70.46197 -12.11071,-83.6736 4.4039,-13.21162 7.70681,-58.35131 7.70681,-58.35131 0,0 -18.71643,-19.8174 -35.23094,-19.8174 z"
     id="path1737" />
  <path
     style="fill:#8985a8;stroke-width:0.86203927"
     inkscape:connector-curvature="0"
     d="m 499.561,515.26844 -7.7068,2.20193 c 0,0 -16.51452,51.74552 -9.90871,53.94745 6.6058,2.20194 25.32223,6.60581 27.52422,6.60581 2.20191,0 -9.90871,-62.75519 -9.90871,-62.75519 z"
     id="path1739" />
  <path
     style="fill:#8985a8;stroke-width:0.86203927"
     inkscape:connector-curvature="0"
     d="m 579.93168,509.7636 17.61551,6.6058 c 0,0 23.12033,42.93776 17.61543,48.44261 -5.50481,5.50484 -29.72613,11.00968 -29.72613,11.00968 z"
     id="path1741" />
  <path
     style="fill:#2f2e41;stroke-width:0.86203927"
     inkscape:connector-curvature="0"
     d="m 536.35853,432.18085 a 11.823498,11.823498 0 0 0 -5.23276,0.23103 13.643832,13.643832 0 0 0 -3.71875,2.43945 43.52644,43.52644 0 0 1 -6.35831,4.21256 c -1.78399,0.9685 -3.70177,1.8649 -4.94724,3.4679 a 10.526723,10.526723 0 0 0 -1.39625,2.64301 31.671598,31.671598 0 0 0 -1.66529,17.23729 7.9230804,7.9230804 0 0 0 0.73343,2.3669 c 1.14427,2.10825 3.67159,2.93909 5.80057,4.04426 4.0421,2.09825 7.10614,5.63143 10.42145,8.75395 a 20.373307,20.373307 0 0 0 4.11762,3.17324 c 4.72966,2.57876 10.51084,1.73749 15.82014,0.82562 a 2.8510655,2.8510655 0 0 0 2.84551,-2.87825 l 4.1908,-18.84912 a 30.751664,30.751664 0 0 0 1.0741,-8.57254 c -0.2924,-4.57562 -2.76956,-10.91393 -6.12763,-14.16416 -3.9128,-3.78705 -10.44283,-4.38967 -15.55739,-4.93114 z"
     id="path1743" />
  <ellipse
     style="fill:#00bfa6;stroke-width:0.86203927"
     cx="450.44791"
     cy="875.43878"
     rx="30.171373"
     ry="1.7240785"
     id="ellipse1745" />
  <ellipse
     style="fill:#00bfa6;stroke-width:0.86203927"
     cx="443.55157"
     cy="878.8869"
     rx="30.171373"
     ry="1.7240785"
     id="ellipse1747" />
  <ellipse
     style="fill:#00bfa6;stroke-width:0.86203927"
     cx="413.38022"
     cy="868.54248"
     rx="16.378746"
     ry="0.93592471"
     id="ellipse1749" />
  <ellipse
     style="fill:#00bfa6;stroke-width:0.86203927"
     cx="471.99887"
     cy="889.23138"
     rx="16.378746"
     ry="0.93592471"
     id="ellipse1751" />
</svg>
