<?xml version="1.0" encoding="UTF-8" standalone="no"?>
<svg
   xmlns:dc="http://purl.org/dc/elements/1.1/"
   xmlns:cc="http://creativecommons.org/ns#"
   xmlns:rdf="http://www.w3.org/1999/02/22-rdf-syntax-ns#"
   xmlns:svg="http://www.w3.org/2000/svg"
   xmlns="http://www.w3.org/2000/svg"
   xmlns:xlink="http://www.w3.org/1999/xlink"
   xmlns:sodipodi="http://sodipodi.sourceforge.net/DTD/sodipodi-0.dtd"
   xmlns:inkscape="http://www.inkscape.org/namespaces/inkscape"
   id="ebf8a77a-edff-4dc3-b5b4-de0e5991af45"
   data-name="Layer 1"
   width="1084.99"
   height="1084.99"
   viewBox="0 0 1084.99 1084.99"
   version="1.1"
   sodipodi:docname="web.svg"
   inkscape:version="0.92.4 (5da689c313, 2019-01-14)">
  <metadata
     id="metadata316">
    <rdf:RDF>
      <cc:Work
         rdf:about="">
        <dc:format>image/svg+xml</dc:format>
        <dc:type
           rdf:resource="http://purl.org/dc/dcmitype/StillImage" />
        <dc:title>setup analytics</dc:title>
      </cc:Work>
    </rdf:RDF>
  </metadata>
  <sodipodi:namedview
     pagecolor="#ffffff"
     bordercolor="#666666"
     borderopacity="1"
     objecttolerance="10"
     gridtolerance="10"
     guidetolerance="10"
     inkscape:pageopacity="0"
     inkscape:pageshadow="2"
     inkscape:window-width="1920"
     inkscape:window-height="1017"
     id="namedview314"
     showgrid="false"
     inkscape:zoom="0.37408575"
     inkscape:cx="557.46338"
     inkscape:cy="516.76893"
     inkscape:window-x="-8"
     inkscape:window-y="-8"
     inkscape:window-maximized="1"
     inkscape:current-layer="ebf8a77a-edff-4dc3-b5b4-de0e5991af45" />
  <defs
     id="defs10">
    <linearGradient
       id="3dbb7376-c47c-4ca7-b468-761ae3cf9a96"
       x1="609.82001"
       y1="674.03998"
       x2="609.82001"
       y2="135.71001"
       gradientUnits="userSpaceOnUse">
      <stop
         offset="0"
         stop-color="gray"
         stop-opacity="0.25"
         id="stop2" />
      <stop
         offset="0.54"
         stop-color="gray"
         stop-opacity="0.12"
         id="stop4" />
      <stop
         offset="1"
         stop-color="gray"
         stop-opacity="0.1"
         id="stop6" />
    </linearGradient>
    <linearGradient
       id="9599d617-6377-49c4-b753-a452dc901e54"
       x1="629.85999"
       y1="815.17999"
       x2="629.85999"
       y2="282.75"
       gradientTransform="matrix(0.81744832,-0.0314032,0.0314032,0.81744832,34.603764,274.79553)"
       xlink:href="#3dbb7376-c47c-4ca7-b468-761ae3cf9a96" />
    <linearGradient
       inkscape:collect="always"
       xlink:href="#3dbb7376-c47c-4ca7-b468-761ae3cf9a96"
       id="linearGradient1123"
       gradientUnits="userSpaceOnUse"
       x1="609.82001"
       y1="674.03998"
       x2="609.82001"
       y2="135.71001"
       gradientTransform="matrix(0.81805129,0,0,0.81805129,98.706265,288.97236)" />
  </defs>
  <title
     id="title12">setup analytics</title>
  <path
     d="m 273.88377,295.82764 c 0,0 -3.08405,12.03353 18.4716,46.0481 21.55565,34.01458 20.05862,38.8329 18.81518,48.55953 -1.24344,9.72663 -1.16982,15.05214 -13.69418,26.99569 0,0 -37.52401,12.31985 -42.53867,20.00136 -5.01465,7.6815 8.28686,35.60977 8.28686,35.60977 0,0 12.77796,33.92459 -33.10653,46.93978 0,0 -35.90428,0.0491 -45.85996,7.95964 0,0 3.85302,-13.7678 -8.12325,-34.01457 -11.97627,-20.24677 4.52382,-39.98635 4.52382,-39.98635 0,0 13.28516,-7.31338 21.71927,-7.87783 8.4341,-0.56446 11.10913,-4.42566 5.68545,-14.11957 0,0 -7.84511,-4.09025 -18.70883,4.67108 -10.86372,8.76132 -18.97879,15.00306 -28.44364,14.26681 -9.46486,-0.73625 -22.9627,-4.72834 -31.8222,-22.24282 -8.8595,-17.51447 -13.52239,-42.27689 -20.15678,-53.58235 -6.6344,-11.30547 -10.225645,-13.78417 -10.225645,-13.78417 0,0 8.385025,6.36444 37.335865,-15.24029 28.95083,-21.60474 44.06024,-12.36076 44.06024,-12.36076 0,0 23.26538,6.24991 26.99569,47.27518 0,0 6.76529,39.09468 20.51673,15.41209 0,0 -4.65471,-13.33424 -13.95596,-32.96747 -9.30124,-19.63323 15.59206,-38.11301 33.81824,-44.29747 18.22619,-6.18447 26.4067,-23.26538 26.4067,-23.26538 z"
     id="path14"
     inkscape:connector-curvature="0"
     style="fill:#00bfa6;stroke-width:0.81805128" />
  <path
     d="m 124.05767,369.9349 -0.0818,-0.20451 c 5.72636,-2.38871 32.14124,11.91901 53.26332,24.34521 l -0.11453,0.18815 C 147.33123,376.74109 128.48333,368.10247 124.05767,369.9349 Z"
     id="path16"
     inkscape:connector-curvature="0"
     style="fill:#444053;stroke-width:0.81805128" />
  <path
     d="m 176.6911,393.99379 0.22905,-0.12271 c 16.86822,9.93933 37.10681,22.55368 52.2653,32.79568 1.43977,0.97348 2.9368,1.93878 4.46656,2.84682 l -0.23724,0.38448 c -1.52975,-0.91621 -3.03497,-1.88151 -4.48292,-2.86318 -15.14213,-10.23382 -35.38072,-23.10994 -52.24075,-33.04109 z"
     id="path18"
     inkscape:connector-curvature="0"
     style="fill:#444053;stroke-width:0.81805128" />
  <path
     d="m 232.97302,429.65265 0.37631,-0.2945 c 30.40696,18.25072 73.18287,13.90687 73.55917,13.90687 l -4.72016,5.35824 c -0.3763,0.0245 -38.59566,-0.59718 -69.21532,-18.97061 z"
     id="path20"
     inkscape:connector-curvature="0"
     style="fill:#444053;stroke-width:0.81805128" />
  <path
     d="m 262.46377,323.32234 c 0,0 -9.95568,27.72376 -2.38871,47.25882 7.56698,19.53507 -8.18051,67.93916 -8.18051,67.93916 0,0 -5.22735,20.3613 -13.63691,25.44958 0,0 -12.19715,15.14213 -19.34692,16.8764 -7.14977,1.73427 -23.5926,17.09727 -23.15903,25.59682"
     stroke-miterlimit="10"
     id="path22"
     inkscape:connector-curvature="0"
     style="fill:none;stroke:#444053;stroke-width:0.81805128;stroke-miterlimit:10" />
  <path
     d="m 275.9289,325.27748 c 0,0 -7.01888,14.2341 -17.4654,14.11139"
     stroke-miterlimit="10"
     id="path24"
     inkscape:connector-curvature="0"
     style="fill:none;stroke:#444053;stroke-width:0.81805128;stroke-miterlimit:10" />
  <path
     d="m 289.99938,343.7818 c 0,0 -4.24569,19.57597 -30.54604,25.04873"
     stroke-miterlimit="10"
     id="path26"
     inkscape:connector-curvature="0"
     style="fill:none;stroke:#444053;stroke-width:0.81805128;stroke-miterlimit:10" />
  <path
     d="m 300.95309,372.95351 c 0,0 -12.37712,19.82957 -39.04559,17.41632"
     stroke-miterlimit="10"
     id="path28"
     inkscape:connector-curvature="0"
     style="fill:none;stroke:#444053;stroke-width:0.81805128;stroke-miterlimit:10" />
  <path
     d="m 298.638,410.10122 c 0,0 -23.28992,15.25666 -40.90256,6.87981"
     stroke-miterlimit="10"
     id="path30"
     inkscape:connector-curvature="0"
     style="fill:none;stroke:#444053;stroke-width:0.81805128;stroke-miterlimit:10" />
  <path
     d="m 246.00458,325.27748 c 0,0 6.0863,12.87613 12.81886,8.99857"
     stroke-miterlimit="10"
     id="path32"
     inkscape:connector-curvature="0"
     style="fill:none;stroke:#444053;stroke-width:0.81805128;stroke-miterlimit:10" />
  <path
     d="m 223.72086,344.83709 c 0,0 8.18052,17.27724 33.77734,14.24227"
     stroke-miterlimit="10"
     id="path34"
     inkscape:connector-curvature="0"
     style="fill:none;stroke:#444053;stroke-width:0.81805128;stroke-miterlimit:10" />
  <path
     d="m 221.25035,370.8184 c 0,0 22.51277,13.67782 40.77168,9.97204"
     stroke-miterlimit="10"
     id="path36"
     inkscape:connector-curvature="0"
     style="fill:none;stroke:#444053;stroke-width:0.81805128;stroke-miterlimit:10" />
  <path
     d="m 233.10391,398.50944 c 0,0 17.81716,14.20955 26.17764,10.94552"
     stroke-miterlimit="10"
     id="path38"
     inkscape:connector-curvature="0"
     style="fill:none;stroke:#444053;stroke-width:0.81805128;stroke-miterlimit:10" />
  <path
     d="m 228.93185,409.1032 c 0,0 4.81832,14.92944 0.0818,17.75171"
     stroke-miterlimit="10"
     id="path40"
     inkscape:connector-curvature="0"
     style="fill:none;stroke:#444053;stroke-width:0.81805128;stroke-miterlimit:10" />
  <path
     d="m 213.15164,431.49326 c 0,0 9.18672,-9.12127 6.62622,-10.79827"
     stroke-miterlimit="10"
     id="path42"
     inkscape:connector-curvature="0"
     style="fill:none;stroke:#444053;stroke-width:0.81805128;stroke-miterlimit:10" />
  <path
     d="m 196.27524,355.72535 c 0,0 8.04145,38.19482 -2.40507,48.50226"
     stroke-miterlimit="10"
     id="path44"
     inkscape:connector-curvature="0"
     style="fill:none;stroke:#444053;stroke-width:0.81805128;stroke-miterlimit:10" />
  <path
     d="m 162.65333,446.60267 c 0,0 36.39511,-23.37172 39.56915,-37.18043"
     stroke-miterlimit="10"
     id="path46"
     inkscape:connector-curvature="0"
     style="fill:none;stroke:#444053;stroke-width:0.81805128;stroke-miterlimit:10" />
  <path
     d="m 141.57215,430.12712 c 0,0 34.23545,-15.96018 43.52033,-31.24956"
     stroke-miterlimit="10"
     id="path48"
     inkscape:connector-curvature="0"
     style="fill:none;stroke:#444053;stroke-width:0.81805128;stroke-miterlimit:10" />
  <path
     d="m 164.55939,343.48731 c 0,0 16.56554,27.63377 6.21719,46.9725"
     stroke-miterlimit="10"
     id="path50"
     inkscape:connector-curvature="0"
     style="fill:none;stroke:#444053;stroke-width:0.61353844;stroke-miterlimit:10" />
  <path
     d="m 130.40575,405.0293 c 0,0 25.35959,-10.26654 30.48877,-20.15678"
     stroke-miterlimit="10"
     id="path52"
     inkscape:connector-curvature="0"
     style="fill:none;stroke:#444053;stroke-width:0.61353844;stroke-miterlimit:10" />
  <path
     d="m 135.75581,351.91323 c 0,0 8.48319,15.64114 4.532,22.43915"
     stroke-miterlimit="10"
     id="path54"
     inkscape:connector-curvature="0"
     style="fill:none;stroke:#444053;stroke-width:0.61353844;stroke-miterlimit:10" />
  <path
     d="m 223.64724,444.4512 c 0,0 22.90544,-3.0677 25.35959,2.91226"
     stroke-miterlimit="10"
     id="path56"
     inkscape:connector-curvature="0"
     style="fill:none;stroke:#444053;stroke-width:0.81805128;stroke-miterlimit:10" />
  <path
     d="m 260.2714,491.39098 c 0,0 -1.23526,-25.04873 -15.54298,-34.73446"
     stroke-miterlimit="10"
     id="path58"
     inkscape:connector-curvature="0"
     style="fill:none;stroke:#444053;stroke-width:0.81805128;stroke-miterlimit:10" />
  <path
     d="m 197.46142,454.52959 c 0,0 24.04252,2.83864 32.54208,18.52068"
     stroke-miterlimit="10"
     id="path60"
     inkscape:connector-curvature="0"
     style="fill:none;stroke:#444053;stroke-width:0.81805128;stroke-miterlimit:10" />
  <path
     d="m 237.78317,509.5599 c 0,0 3.71395,-18.34889 -13.84961,-31.32319"
     stroke-miterlimit="10"
     id="path62"
     inkscape:connector-curvature="0"
     style="fill:none;stroke:#444053;stroke-width:0.81805128;stroke-miterlimit:10" />
  <path
     d="m 180.14327,476.69878 c 0,0 19.94409,-1.02257 30.62784,8.45865"
     stroke-miterlimit="10"
     id="path64"
     inkscape:connector-curvature="0"
     style="fill:none;stroke:#444053;stroke-width:0.81805128;stroke-miterlimit:10" />
  <path
     d="m 207.6298,512.97117 c 0,0 -1.86516,-14.56131 -7.06797,-17.31814"
     stroke-miterlimit="10"
     id="path66"
     inkscape:connector-curvature="0"
     style="fill:none;stroke:#444053;stroke-width:0.81805128;stroke-miterlimit:10" />
  <path
     d="m 516.96771,450.43933 c -44.88647,22.5864 -93.97773,32.43574 -141.84191,40.02725 -47.86418,7.59152 -96.17829,13.44058 -143.34713,29.31078 -30.33334,10.20928 -62.39277,26.7421 -77.34675,52.42891 -14.41406,24.66424 -9.08855,50.96459 -1.46431,73.88639 5.72636,17.23634 13.08882,34.67719 28.76268,45.21369 10.89644,7.31338 25.04055,10.74102 36.91866,16.96639 41.31977,21.63746 48.01961,72.38936 41.36067,119.07554 -3.12496,21.89924 -8.49137,44.08479 -8.41775,65.55046 0.0736,21.46567 6.26627,42.735 23.2981,55.4148 16.88458,12.56525 42.23599,15.11755 67.08021,13.08885 50.48194,-4.0903 101.24203,-25.02422 149.58886,-47.52063 107.05019,-49.79479 209.59292,-109.16077 311.89841,-168.37951 37.84306,-21.91559 75.8579,-43.93753 110.69871,-69.8943 19.34691,-14.41406 38.44841,-30.97142 47.38153,-50.78462 11.37909,-25.1469 2.69957,-52.54344 -20.23859,-63.85709 -38.44841,-18.97879 -102.73088,6.0454 -135.8865,-18.74155 -18.31617,-13.6451 -20.70488,-38.61202 -17.71899,-62.04919 6.39716,-50.35924 32.83658,-105.86402 12.65525,-148.47631 -13.85779,-29.26988 -50.32652,-46.30171 -90.14925,-42.08874 -41.72062,4.41747 -87.95688,31.84673 -100.39126,68.82265 -12.77796,38.08029 -53.20605,72.02124 -92.84064,92.00623 z"
     id="path68"
     inkscape:connector-curvature="0"
     style="opacity:0.1;fill:#00bfa6;stroke-width:0.81805128" />
  <ellipse
     cx="624.5824"
     cy="911.77118"
     rx="81.895119"
     ry="20.230408"
     id="ellipse70"
     style="opacity:0.1;fill:#00bfa6;stroke-width:0.81805128" />
  <rect
     x="208.86505"
     y="399.99011"
     width="777.4187"
     height="440.38156"
     rx="10.217461"
     ry="10.217461"
     id="rect72"
     style="fill:url(#linearGradient1123);stroke-width:0.81805128" />
  <rect
     x="210.10031"
     y="406.18277"
     width="775.03815"
     height="432.72458"
     rx="10.217461"
     ry="10.217461"
     id="rect74"
     style="fill:#ffffff;stroke-width:0.81805128" />
  <rect
     x="210.10031"
     y="406.18277"
     width="775.03815"
     height="432.72458"
     rx="10.217461"
     ry="10.217461"
     id="rect76"
     style="fill:#ffffff;stroke-width:0.81805128" />
  <rect
     x="210.10031"
     y="406.18277"
     width="775.03815"
     height="432.72458"
     rx="10.217461"
     ry="10.217461"
     id="rect78"
     style="opacity:0.03999999;fill:#5a5773;stroke-width:0.81805128" />
  <path
     d="m 981.21182,401.21719 h -767.1685 a 3.9348267,3.9348267 0 0 0 -3.93483,3.93482 v 16.65553 h 775.03816 v -16.65553 a 3.9348267,3.9348267 0 0 0 -3.93483,-3.93482 z"
     id="path80"
     inkscape:connector-curvature="0"
     style="fill:#5a5773;stroke-width:0.81805128" />
  <g
     id="4856ee63-6c9d-47e3-9e79-3603b2312fc4"
     data-name="buttons"
     transform="matrix(0.81805129,0,0,0.81805129,98.706265,288.97237)">
    <circle
       cx="155.09"
       cy="149.78"
       r="6.5"
       id="circle82"
       style="fill:#ffffff" />
    <circle
       cx="172.59"
       cy="149.78"
       r="6.5"
       id="circle84"
       style="fill:#ffffff" />
    <circle
       cx="190.09"
       cy="149.78"
       r="6.5"
       id="circle86"
       style="fill:#ffffff" />
  </g>
  <rect
     x="261.98111"
     y="517.59314"
     width="646.2605"
     height="248.68759"
     rx="8.3359423"
     ry="8.3359423"
     id="rect89"
     style="opacity:0.1;fill:#00bfa6;stroke-width:0.81805128" />
  <rect
     x="290.21494"
     y="486.04681"
     width="646.2605"
     height="248.68759"
     rx="8.3359423"
     ry="8.3359423"
     transform="rotate(1.46)"
     id="rect91"
     style="fill:#ffffff;stroke-width:0.81805128" />
  <line
     x1="374.40591"
     y1="546.05316"
     x2="824.59595"
     y2="557.49768"
     stroke-miterlimit="10"
     id="line93"
     style="opacity:0.2;fill:#f4f4f7;stroke:#5a5773;stroke-width:0.81805128;stroke-miterlimit:10" />
  <line
     x1="373.51422"
     y1="581.22119"
     x2="823.70422"
     y2="592.66571"
     stroke-miterlimit="10"
     id="line95"
     style="opacity:0.2;fill:#f4f4f7;stroke:#5a5773;stroke-width:0.81805128;stroke-miterlimit:10" />
  <line
     x1="372.62256"
     y1="616.38104"
     x2="822.8125"
     y2="627.82556"
     stroke-miterlimit="10"
     id="line97"
     style="opacity:0.2;fill:#f4f4f7;stroke:#5a5773;stroke-width:0.81805128;stroke-miterlimit:10" />
  <line
     x1="371.72269"
     y1="651.54901"
     x2="821.9209"
     y2="662.99359"
     stroke-miterlimit="10"
     id="line99"
     style="opacity:0.2;fill:#f4f4f7;stroke:#5a5773;stroke-width:0.81805128;stroke-miterlimit:10" />
  <line
     x1="412.64163"
     y1="643.04132"
     x2="411.50455"
     y2="687.7478"
     stroke-miterlimit="10"
     id="line101"
     style="opacity:0.2;fill:none;stroke:#5a5773;stroke-width:0.81805128;stroke-miterlimit:10;stroke-dasharray:9.81661553" />
  <line
     x1="370.83102"
     y1="686.71704"
     x2="821.021"
     y2="698.15344"
     stroke-miterlimit="10"
     id="line103"
     style="opacity:0.2;fill:#f4f4f7;stroke:#5a5773;stroke-width:0.81805128;stroke-miterlimit:10" />
  <line
     x1="462.42004"
     y1="689.04034"
     x2="464.1134"
     y2="622.39368"
     stroke-miterlimit="10"
     id="line105"
     style="opacity:0.2;fill:none;stroke:#5a5773;stroke-width:0.81805128;stroke-miterlimit:10;stroke-dasharray:9.81661553" />
  <path
     d="m 760.23162,617.12546 c -8.02508,0.69535 -15.86201,-3.80394 -20.66397,-8.53227 -4.97375,-4.90831 -8.58136,-10.94553 -12.06626,-16.81914 -1.10437,-1.85697 -2.24964,-3.77121 -3.40309,-5.62001 -6.07812,-9.63664 -12.14806,-16.11561 -19.09332,-20.39402 a 36.354199,36.354199 0 0 0 -8.12325,-3.71395 5.7263591,5.7263591 0 0 1 -1.15345,1.75063 5.7263591,5.7263591 0 0 1 -4.00845,1.75881 h -0.26996 a 5.7263591,5.7263591 0 0 1 -5.52184,-4.96557 24.909662,24.909662 0 0 0 -7.53426,1.54612 c -7.14158,2.69138 -12.56526,8.47501 -17.49811,14.17682 -5.97178,6.888 -11.73086,14.11139 -17.09728,21.48203 q -1.6361,2.23328 -3.2722,4.4911 c -5.82453,8.13143 -11.84538,16.53282 -19.63323,23.10177 -10.4547,8.86768 -23.02815,12.68798 -33.63827,10.22564 -12.72888,-2.95316 -21.83379,-14.20137 -28.3373,-23.6744 -0.81805,-1.22708 -1.6361,-2.45416 -2.5196,-3.70577 -6.06994,-8.99857 -12.34439,-18.29981 -21.60473,-23.72349 -12.19715,-7.15795 -29.04082,-5.92269 -40.08451,2.92044 -5.38278,4.31113 -9.42396,10.16838 -13.34242,15.82929 -1.34161,1.94697 -2.73229,3.95937 -4.16388,5.88997 -7.36246,9.89024 -14.78219,15.25666 -22.78273,16.41829 a 43.307635,43.307635 0 0 1 -9.54666,0 c -2.11057,-0.14725 -4.29477,-0.31086 -6.42988,-0.25359 a 30.914158,30.914158 0 0 0 -25.82588,16.09107 l -1.12891,47.08703 353.65175,8.99856 1.97969,-77.90302 a 4.9083078,4.9083078 0 0 1 -6.888,-2.45416 z"
     id="path107"
     inkscape:connector-curvature="0"
     style="opacity:0.2;fill:#00bfa6;stroke-width:0.81805128" />
  <line
     x1="517.50763"
     y1="579.85504"
     x2="514.70172"
     y2="690.37378"
     stroke-miterlimit="10"
     id="line109"
     style="opacity:0.2;fill:none;stroke:#5a5773;stroke-width:0.81805128;stroke-miterlimit:10;stroke-dasharray:9.81661553" />
  <line
     x1="566.82794"
     y1="622.14008"
     x2="565.06097"
     y2="691.6499"
     stroke-miterlimit="10"
     id="line111"
     style="opacity:0.2;fill:none;stroke:#5a5773;stroke-width:0.81805128;stroke-miterlimit:10;stroke-dasharray:9.81661553" />
  <line
     x1="615.8783"
     y1="630.29608"
     x2="614.29126"
     y2="692.90155"
     stroke-miterlimit="10"
     id="line113"
     style="opacity:0.2;fill:none;stroke:#5a5773;stroke-width:0.81805128;stroke-miterlimit:10;stroke-dasharray:9.81661553" />
  <line
     x1="663.48071"
     y1="574.26776"
     x2="660.43756"
     y2="694.07135"
     stroke-miterlimit="10"
     id="line115"
     style="opacity:0.2;fill:none;stroke:#5a5773;stroke-width:0.81805128;stroke-miterlimit:10;stroke-dasharray:9.81661553" />
  <line
     x1="711.92566"
     y1="570.08752"
     x2="708.74347"
     y2="695.30658"
     stroke-miterlimit="10"
     id="line117"
     style="opacity:0.2;fill:none;stroke:#5a5773;stroke-width:0.81805128;stroke-miterlimit:10;stroke-dasharray:9.81661553" />
  <line
     x1="765.58167"
     y1="617.16638"
     x2="763.55292"
     y2="696.69727"
     stroke-miterlimit="10"
     id="line119"
     style="opacity:0.2;fill:none;stroke:#5a5773;stroke-width:0.81805128;stroke-miterlimit:10;stroke-dasharray:9.81661553" />
  <path
     d="m 696.3909,556.52422 a 5.7263591,5.7263591 0 0 0 -4.09025,-1.5952 5.7263591,5.7263591 0 0 0 -5.55457,4.85105 5.5545683,5.5545683 0 0 0 -0.0655,0.98166 c 0,0.22087 0,0.44175 0.0491,0.65444 a 5.7263591,5.7263591 0 0 0 1.70972,3.36219 5.6200124,5.6200124 0 0 0 3.81212,1.6361 h 0.26996 a 5.7263591,5.7263591 0 0 0 4.01663,-1.75063 5.8654278,5.8654278 0 0 0 1.15345,-1.75063 5.6527344,5.6527344 0 0 0 0.40903,-1.5952 4.5401847,4.5401847 0 0 0 0,-0.74442 5.7263591,5.7263591 0 0 0 -1.70973,-4.04936 z m -0.28632,5.88997 a 3.7139529,3.7139529 0 0 1 -0.74442,1.07165 4.0902565,4.0902565 0 0 1 -6.96162,-2.11057 3.4030934,3.4030934 0 0 1 -0.0736,-0.64626 3.9266462,3.9266462 0 0 1 0.0982,-0.98166 4.0902565,4.0902565 0 0 1 3.91029,-3.1904 h 0.18815 a 4.0902565,4.0902565 0 0 1 3.98391,4.00027 c 0,0.0818 0,0.17179 0,0.25359 a 3.8039385,3.8039385 0 0 1 -0.40085,1.60338 z"
     id="path121"
     inkscape:connector-curvature="0"
     style="fill:#00bfa6;stroke-width:0.81805128" />
  <circle
     cx="765.6308"
     cy="616.09473"
     r="4.9083076"
     id="circle123"
     style="fill:#00bfa6;stroke-width:0.81805128" />
  <path
     d="m 688.32492,560.72901 a 3.4030934,3.4030934 0 0 0 0.0736,0.64626 c -0.55627,0 -1.11255,0 -1.6361,0.0409 a 25.016009,25.016009 0 0 0 -7.54242,1.54612 c -7.14158,2.69139 -12.56526,8.47501 -17.50629,14.17683 -5.97178,6.87981 -11.73086,14.11138 -17.10546,21.47384 -1.088,1.48886 -2.15965,2.99407 -3.2722,4.49928 -5.83271,8.13143 -11.85356,16.52464 -19.63323,23.10177 -10.46288,8.8595 -23.04451,12.6798 -33.66281,10.21746 -12.71252,-2.94498 -21.81743,-14.20137 -28.36184,-23.6744 -0.81805,-1.2189 -1.68519,-2.45415 -2.5196,-3.70577 -6.07812,-8.99857 -12.36075,-18.29981 -21.62109,-23.72349 -12.19715,-7.15795 -29.05719,-5.92269 -40.08452,2.92044 -5.30915,4.30295 -9.39941,10.1602 -13.31787,15.82111 -1.34979,1.94697 -2.74047,3.96755 -4.17206,5.88997 -7.36247,9.89024 -14.79037,15.25666 -22.79091,16.41829 a 43.823008,43.823008 0 0 1 -9.54666,0 62.556382,62.556382 0 0 0 -6.43807,-0.25359 30.856895,30.856895 0 0 0 -26.8239,18.09529 l -1.50521,-0.65444 a 32.558441,32.558441 0 0 1 28.28003,-19.07695 60.993904,60.993904 0 0 1 6.60986,0.26177 42.57957,42.57957 0 0 0 9.18671,0 c 7.55062,-1.08801 14.6513,-6.24991 21.71108,-15.77203 1.41523,-1.90606 2.79774,-3.91028 4.13934,-5.84906 3.98391,-5.72636 8.10689,-11.70632 13.66964,-16.17288 a 37.720345,37.720345 0 0 1 41.93331,-3.05133 c 9.58756,5.62001 15.97654,15.07669 22.16101,24.23068 0.81805,1.22708 1.6361,2.45415 2.51142,3.68941 6.33989,9.22762 15.17485,20.18133 27.37199,23.0036 10.11112,2.34781 22.16101,-1.3416 32.23122,-9.87388 7.5997,-6.43806 13.57965,-14.72492 19.34692,-22.80727 1.07164,-1.50521 2.15965,-3.01042 3.2722,-4.50746 5.40732,-7.36246 11.19094,-14.65948 17.17908,-21.58837 5.0801,-5.85725 10.63467,-11.80448 18.16892,-14.62676 a 26.79118,26.79118 0 0 1 8.13143,-1.6361 c 0.54809,0 1.11255,-0.0491 1.6361,0 a 3.9266462,3.9266462 0 0 0 -0.0736,0.94076 z"
     id="path125"
     inkscape:connector-curvature="0"
     style="fill:#00bfa6;stroke-width:0.81805128" />
  <path
     d="m 765.91708,616.86369 c -9.59574,3.58306 -19.73958,-1.76699 -25.51502,-7.44427 -4.97375,-4.90831 -8.58136,-10.95371 -12.06626,-16.82731 -1.10436,-1.8488 -2.24964,-3.77122 -3.41127,-5.61184 -6.07812,-9.64482 -12.14806,-16.12379 -19.1015,-20.4022 a 36.485088,36.485088 0 0 0 -8.12325,-3.70577 c -0.52355,-0.17179 -1.05528,-0.31904 -1.6361,-0.45811 a 3.8039385,3.8039385 0 0 0 0.40085,-1.5952 c 0.53991,0.13907 1.07164,0.2945 1.6361,0.45811 a 37.908497,37.908497 0 0 1 8.565,3.91029 c 7.18249,4.40929 13.41604,11.05187 19.63323,20.91757 1.16981,1.86516 2.31508,3.78758 3.43581,5.66091 3.43582,5.77545 6.98616,11.7554 11.80448,16.48374 5.42368,5.33369 14.92126,10.39743 23.79711,7.08432 z"
     id="path127"
     inkscape:connector-curvature="0"
     style="fill:#00bfa6;stroke-width:0.81805128" />
  <rect
     x="388.18481"
     y="528.99915"
     width="16.688246"
     height="7.3624616"
     rx="0.73624617"
     ry="0.73624617"
     transform="rotate(1.46)"
     id="rect129"
     style="opacity:0.5;fill:#00bfa6;stroke-width:0.81805128" />
  <rect
     x="388.17715"
     y="564.16895"
     width="16.688246"
     height="7.3624616"
     rx="0.73624617"
     ry="0.73624617"
     transform="rotate(1.46)"
     id="rect131"
     style="fill:#00bfa6;stroke-width:0.81805128" />
  <rect
     x="388.17795"
     y="599.35516"
     width="16.688246"
     height="7.3624616"
     rx="0.73624617"
     ry="0.73624617"
     transform="rotate(1.46)"
     id="rect133"
     style="opacity:0.5;fill:#00bfa6;stroke-width:0.81805128" />
  <rect
     x="388.17844"
     y="634.52502"
     width="16.688246"
     height="7.3624616"
     rx="0.73624617"
     ry="0.73624617"
     transform="rotate(1.46)"
     id="rect135"
     style="opacity:0.5;fill:#00bfa6;stroke-width:0.81805128" />
  <rect
     x="388.17899"
     y="669.703"
     width="16.688246"
     height="7.3624616"
     rx="0.73624617"
     ry="0.73624617"
     transform="rotate(1.46)"
     id="rect137"
     style="opacity:0.5;fill:#00bfa6;stroke-width:0.81805128" />
  <rect
     x="419.5148"
     y="684.42596"
     width="16.688246"
     height="7.3624616"
     rx="0.73624617"
     ry="0.73624617"
     transform="rotate(1.46)"
     id="rect139"
     style="opacity:0.5;fill:#00bfa6;stroke-width:0.81805128" />
  <rect
     x="471.46017"
     y="684.42511"
     width="16.688246"
     height="7.3624616"
     rx="0.73624617"
     ry="0.73624617"
     transform="rotate(1.46)"
     id="rect141"
     style="opacity:0.5;fill:#00bfa6;stroke-width:0.81805128" />
  <rect
     x="525.05328"
     y="684.30725"
     width="16.695755"
     height="7.3657742"
     rx="0.73657739"
     ry="0.73657739"
     transform="rotate(1.718358)"
     id="rect143"
     style="fill:#00bfa6;stroke-width:0.81841934" />
  <rect
     x="574.13269"
     y="684.42346"
     width="16.688246"
     height="7.3624616"
     rx="0.73624617"
     ry="0.73624617"
     transform="rotate(1.46)"
     id="rect145"
     style="opacity:0.5;fill:#00bfa6;stroke-width:0.81805128" />
  <rect
     x="623.37219"
     y="684.43085"
     width="16.688246"
     height="7.3624616"
     rx="0.73624617"
     ry="0.73624617"
     transform="rotate(1.46)"
     id="rect147"
     style="opacity:0.5;fill:#00bfa6;stroke-width:0.81805128" />
  <rect
     x="669.52942"
     y="684.42194"
     width="16.688246"
     height="7.3624616"
     rx="0.73624617"
     ry="0.73624617"
     transform="rotate(1.46)"
     id="rect149"
     style="fill:#00bfa6;stroke-width:0.81805128" />
  <rect
     x="718.19647"
     y="684.42114"
     width="16.688246"
     height="7.3624616"
     rx="0.73624617"
     ry="0.73624617"
     transform="rotate(1.46)"
     id="rect151"
     style="fill:#00bfa6;stroke-width:0.81805128" />
  <rect
     x="774.08026"
     y="684.31384"
     width="16.695755"
     height="7.3657742"
     rx="1.1376029"
     ry="1.1376029"
     transform="rotate(1.718358)"
     id="rect153"
     style="fill:#00bfa6;stroke-width:0.81841934" />
  <path
     d="m 901.10824,784.29425 a 8.0987078,8.0987078 0 1 1 -5.72636,2.37234 8.0578052,8.0578052 0 0 1 5.72636,-2.37234 m 0,-1.2598 a 9.3666873,9.3666873 0 1 0 9.36669,9.35032 9.3585068,9.3585068 0 0 0 -9.36669,-9.35032 z"
     id="path155"
     inkscape:connector-curvature="0"
     style="fill:#00bfa6;stroke-width:0.81805128" />
  <path
     d="m 898.59682,795.14979 0.49083,-0.65444 a 2.6014031,2.6014031 0 0 0 1.79153,0.74442 c 0.81805,0 1.46432,-0.4172 1.46432,-1.07983 0,-0.66262 -0.59718,-1.19435 -2.24965,-1.19435 v -0.75261 c 1.4725,0 2.02877,-0.49083 2.02877,-1.12891 0,-0.63808 -0.49901,-0.94076 -1.22708,-0.94076 a 2.3968903,2.3968903 0 0 0 -1.54611,0.6299 l -0.52356,-0.6299 a 3.2722052,3.2722052 0 0 1 2.11058,-0.81805 c 1.26798,0 2.20874,0.61354 2.20874,1.68519 0,0.7526 -0.5481,1.25162 -1.34979,1.52157 v 0.0409 a 1.7588103,1.7588103 0 0 1 1.57066,1.63611 c 0,1.16163 -1.09619,1.86515 -2.40507,1.86515 a 3.1658585,3.1658585 0 0 1 -2.36417,-0.92439 z"
     id="path157"
     inkscape:connector-curvature="0"
     style="fill:#00bfa6;stroke-width:0.81805128" />
  <path
     d="m 939.79388,784.84234 a 8.0987078,8.0987078 0 1 1 -5.72636,2.37235 8.0496247,8.0496247 0 0 1 5.72636,-2.37235 m 0,-1.2598 a 9.3666873,9.3666873 0 1 0 9.36669,9.36669 9.3585068,9.3585068 0 0 0 -9.36669,-9.36669 z"
     id="path159"
     inkscape:connector-curvature="0"
     style="fill:#5a5773;stroke-width:0.81805128" />
  <path
     d="m 939.91659,791.96757 c 0,-0.40085 0,-0.90804 0.0573,-1.30889 h -0.0573 c -0.22905,0.35177 -0.49083,0.70353 -0.71988,1.05529 l -1.63611,2.13511 h 4.42566 v 0.85896 h -5.57093 v -0.68716 l 3.32129,-4.3684 h 1.2189 v 6.95344 h -1.01439 z"
     id="path161"
     inkscape:connector-curvature="0"
     style="fill:#5a5773;stroke-width:0.81805128" />
  <path
     d="m 918.45093,787.59917 a 0.85895386,0.85895386 0 0 1 1.20253,0 l 4.22115,4.23751 a 0.81805129,0.81805129 0 0 1 0,1.17799 l -4.15571,4.17206 a 0.81805129,0.81805129 0 0 1 -1.21071,0 0.81805129,0.81805129 0 0 1 0,-1.20253 l 3.5667,-3.59943 -3.62396,-3.58306 a 0.81805129,0.81805129 0 0 1 0,-1.21072 z"
     id="path163"
     inkscape:connector-curvature="0"
     style="fill:#5a5773;stroke-width:0.81805128" />
  <path
     d="m 911.25207,792.38477 a 9.2030771,9.2030771 0 1 0 9.18672,-9.18671 9.1948965,9.1948965 0 0 0 -9.18672,9.18671 z m 1.41523,0 a 7.7960288,7.7960288 0 1 1 2.28237,5.49731 7.7060432,7.7060432 0 0 1 -2.28237,-5.49731 z"
     id="path165"
     inkscape:connector-curvature="0"
     style="fill:#5a5773;stroke-width:0.81805128" />
  <rect
     x="234.5764"
     y="443.62497"
     width="185.89398"
     height="19.510523"
     rx="3.1576779"
     ry="3.1576779"
     id="rect167"
     style="opacity:0.2;fill:#5a5773;stroke-width:0.81805128" />
  <path
     d="m 677.22396,908.35173 c -1.35797,-4.90831 -2.24146,-9.24398 -2.24146,-9.24398 0,0 0.0573,-5.39914 -2.5196,-9.36669 l -0.0491,-1.34979 v 0 l -0.38449,-9.98022 a 33.97367,33.97367 0 0 1 2.31509,-5.32552 c 1.68518,-3.20676 -0.55628,-14.62675 -0.55628,-14.62675 0,0 -7.28883,-15.94382 -6.06176,-26.28399 1.22708,-10.34017 -15.42844,-45.11553 -15.42844,-45.11553 a 44.600157,44.600157 0 0 1 1.0471,-10.15202 8.3032206,8.3032206 0 0 0 0.11453,-2.12693 c 0,-0.09 0,-0.16361 0,-0.26178 0,0 0,0.0573 0,0.0818 -0.48265,-6.76529 -6.33172,-19.26511 -6.33172,-19.26511 l -0.21269,-24.23886 c 0,0 2.87136,-14.41406 -3.45218,-33.36013 -2.20056,-6.60986 -3.65669,-11.91083 -4.60563,-16.01745 -0.10634,-0.45811 -0.21269,-0.90803 -0.30267,-1.33342 11.45271,-2.20056 20.13224,-3.99209 20.13224,-3.99209 0,0 -7.73059,-27.60923 -12.41802,-32.31303 -4.68744,-4.70379 -8.87586,-19.88682 -8.87586,-19.88682 0,0 -3.10041,-19.59233 0.45811,-25.49048 3.55852,-5.89815 3.72213,-15.83747 3.72213,-15.83747 0,0 8.39321,-6.60986 9.36669,-9.43214 0.97348,-2.82227 2.52778,-9.17035 2.40507,-12.48346 -0.12271,-3.31311 -1.32524,-6.22537 -1.03074,-7.98418 0.2945,-1.75881 -2.83864,-8.26232 -1.52158,-11.45272 a 8.6386217,8.6386217 0 0 0 0.45811,-3.04315 c 0,0 0,-0.0654 0,-0.09 0,-0.0245 0,0 0,-0.0409 a 42.489584,42.489584 0 0 0 -1.07165,-8.13961 23.11813,23.11813 0 0 0 -8.72042,-4.24568 l -0.22088,-0.73625 -0.57263,-1.9715 c -0.2945,-0.17997 -0.58082,-0.3354 -0.86714,-0.47447 l -0.0491,-0.71171 -0.18815,-2.82227 1.10437,-6.3808 c 2.2251,-11.1664 -12.58981,-12.27077 -12.58981,-12.27077 a 7.7305847,7.7305847 0 0 0 -4.32749,-3.50126 c -3.01043,-0.93258 0.14725,16.65552 1.57884,17.72717 1.07164,0.81805 4.51564,6.23355 6.17628,8.9004 v 0 l 0.26178,0.43356 a 7.7060432,7.7060432 0 0 0 -0.64626,0.73625 l 0.7117,3.8203 0.10635,0.58082 a 16.131972,16.131972 0 0 0 -2.20056,4.09025 c 0,0 2.8141,2.86318 2.40507,6.19265 -0.40902,3.32947 1.11255,7.40336 1.18618,7.62424 -0.16361,-0.17997 -2.1433,-2.15966 -4.01663,-1.58702 -1.87334,0.57263 -7.11705,2.36417 -7.11705,2.36417 0,0 -3.93483,0.81805 -3.54216,1.70972 0.39266,0.89168 -2.5196,4.81015 -2.5196,4.81015 l -11.02733,-9.67755 c -0.11453,-0.2945 -0.23724,-0.589 -0.34358,-0.89986 a 24.811496,24.811496 0 0 1 -1.09619,-4.37657 25.03237,25.03237 0 0 0 3.36219,-1.2189 7.3624616,7.3624616 0 0 0 2.87136,-1.99604 c 1.02256,-1.31707 1.16163,-3.05133 1.53793,-4.65472 0.71989,-3.12495 2.45416,-5.95541 3.60761,-8.94948 a 28.689059,28.689059 0 0 0 1.50522,-15.82929 10.495598,10.495598 0 0 0 -1.8079,-4.56473 c -1.83243,-2.32326 -5.01465,-3.17403 -7.36246,-4.99011 -2.34781,-1.81607 -3.95937,-4.67107 -6.68348,-6.00449 -2.45415,-1.19436 -5.39914,-0.93258 -8.09871,-0.37631 a 43.438524,43.438524 0 0 0 -14.92125,6.0454 c -1.5134,0.97348 -3.17404,2.10239 -4.97375,1.8488 -1.53794,-0.22088 -2.70775,-1.39887 -3.7385,-2.52778 0,-0.0491 0,-0.0982 0.0409,-0.14725 l -0.1227,-0.13907 a 18.741555,18.741555 0 0 0 -1.34161,8.02508 q 0,0.63808 0.0982,1.27616 c 0,0.14725 0,0.2945 0.0409,0.44175 a 2.7650134,2.7650134 0 0 1 0,0.36812 v 0 a 2.2087385,2.2087385 0 0 1 -0.0573,0.56446 4.1393395,4.1393395 0 0 1 -0.94076,1.48067 8.5240945,8.5240945 0 0 0 -0.81805,1.21072 c 0,-0.14725 0.0818,-0.2945 0.13089,-0.43357 a 6.2826339,6.2826339 0 0 0 -0.97349,3.39491 3.3294688,3.3294688 0 0 0 0.89168,2.36417 11.575426,11.575426 0 0 0 1.79153,1.33343 19.731397,19.731397 0 0 0 -0.17997,3.55852 20.549449,20.549449 0 0 0 10.70011,17.17908 l 0.39267,0.89985 c 1.49703,3.5258 2.68321,7.65696 2.38053,11.52635 0,0.28631 -0.0573,0.56445 -0.0982,0.81805 -0.13089,0.14725 -0.2536,0.30268 -0.36812,0.45811 v 0 c 0,0 -17.56356,0.81805 -21.84197,-2.74048 -4.27841,-3.55852 -10.08658,9.54666 -10.08658,9.54666 0,0 -6.24991,1.46431 -7.55061,0.2945 -1.3007,-1.16981 -8.6468,0.15543 -8.6468,0.15543 a 15.911098,15.911098 0 0 0 -11.13368,-3.58306 32.427553,32.427553 0 0 0 -8.22141,-4.17207 v 0 l -0.19634,-0.0654 v 0 a 9.0476473,9.0476473 0 0 0 -3.98391,-0.35176 c 0,0 -8.90858,-6.80619 -11.57542,-10.54468 -2.66685,-3.7385 -15.21576,-17.48994 -15.27302,-17.5472 l -0.0573,-0.69535 -0.2127,-2.06149 a 8.3768452,8.3768452 0 0 1 -1.07164,0.13089 q -0.10635,-0.30268 -0.26996,-0.7117 a 39.39735,39.39735 0 0 0 -2.77319,-5.72636 c 0,0 -0.0982,-2.61777 0.63808,-3.27221 0.73624,-0.65444 -0.71171,-10.22564 -0.71171,-10.22564 0,0 -8.48319,-17.89896 -14.93762,-4.04117 0,0 -12.8434,9.30124 -1.3825,19.10968 0,0 4.49928,1.96332 5.18644,3.63214 0.44993,1.08801 2.06967,4.09026 3.15768,6.10267 l 0.48265,0.89985 -0.12271,0.10635 0.22906,1.70155 0.09,0.66262 c -2.03694,1.26798 -3.40309,2.49506 -3.02679,3.36219 a 19.567787,19.567787 0 0 1 1.43977,4.65471 c 0,0 16.03381,18.57795 18.33253,26.68483 0,0 41.96603,22.80727 55.52932,24.03435 l -1.86515,12.27077 c 0,0 -0.44175,7.36246 -0.16361,9.9475 0.27813,2.58505 -1.06347,14.52042 -1.06347,14.52042 0,0 -1.6361,17.51447 -3.55034,20.02589 -1.91424,2.51142 -1.12891,12.94975 -1.12891,12.94975 a 87.71964,87.71964 0 0 1 -2.12694,14.91308 c -1.72608,6.69166 0,14.82309 0,14.82309 0,0 -6.23355,15.94382 9.72663,4.68743 0,0 8.02509,-0.81805 17.26907,-1.48067 0,0.30268 0,0.60536 0,0.9244 0,1.19435 0.0491,2.45415 0.09,3.84484 0.22088,8.99856 0.64626,21.35932 1.40705,30.70146 1.35797,16.51646 7.65696,49.08308 7.65696,49.08308 l 0.6299,16.45101 a 22.365522,22.365522 0 0 0 -0.28632,4.72016 30.562396,30.562396 0 0 0 5.06374,16.29558 l 1.68519,10.92916 c 0,0 3.2722,7.10887 3.45217,11.45272 a 6.012677,6.012677 0 0 1 -0.0818,1.05529 7.5424329,7.5424329 0 0 0 -0.0818,1.68518 c 0,4.99012 3.4849,16.7946 3.4849,16.7946 0,0 0.64626,12.00899 2.45415,12.63889 1.56248,0.53991 -1.79153,7.00252 -2.78955,8.86768 0,-0.11453 -0.0573,-0.22906 -0.0818,-0.34359 l -0.20451,0.36813 a 8.4422894,8.4422894 0 0 0 -0.44993,3.05951 4.3765744,4.3765744 0 0 0 2.15966,4.14752 c 3.50126,1.96332 5.40732,3.63215 2.52778,4.44202 a 31.404989,31.404989 0 0 0 -3.14132,0.81805 l -0.16361,-0.39267 a 1.91424,1.91424 0 0 0 -1.03893,2.06149 c -0.0491,0.87532 0.2945,2.15148 1.22708,4.033 3.12496,6.33172 5.21917,8.69589 5.21917,8.69589 l 1.37432,-0.21269 a 6.8798114,6.8798114 0 0 1 -0.74442,1.52157 5.7263591,5.7263591 0 0 1 -1.96332,1.88152 6.2662729,6.2662729 0 0 1 -2.45416,0.94076 6.9288945,6.9288945 0 0 0 -5.00647,2.67503 c -1.70155,2.38871 -2.70775,5.59547 0.94894,8.23777 l 13.03973,3.94301 c 0,0 22.24282,2.02877 20.87667,-2.8959 -1.36614,-4.92467 -2.24146,-9.24398 -2.24146,-9.24398 a 19.739578,19.739578 0 0 0 -2.13511,-8.73679 9.9720453,9.9720453 0 0 0 -0.81805,-1.26798 l 0.77715,-0.12271 c 0,0 1.20253,-11.03552 3.2722,-13.20335 0.47447,-0.50719 0.57264,-0.87532 0.44993,-1.16163 0.19633,-0.60536 -0.3763,-0.93258 -1.11255,-1.10437 -0.0491,0.14725 -0.0982,0.28631 -0.13907,0.44174 a 10.348349,10.348349 0 0 0 -2.10239,-0.14724 c 0,0 -0.94076,-5.72636 1.31706,-7.90238 a 2.184197,2.184197 0 0 0 0.38449,-1.72609 9.3094237,9.3094237 0 0 0 -0.32722,-2.33144 c 0,0 -0.0491,0.09 -0.0818,0.13906 -1.38251,-5.17008 -5.68546,-13.30969 -5.68546,-13.30969 0,0 -0.3763,-5.21917 0.98167,-7.36246 1.35796,-2.1433 -1.27616,-28.38638 -1.27616,-28.38638 0,0 0.0491,-12.73706 -1.79972,-18.59431 -1.84879,-5.85725 1.44795,-12.96611 1.44795,-12.96611 0,0 0,-0.13907 -0.0573,-0.3763 a 0.40084513,0.40084513 0 0 0 0.0409,-0.09 c 0,0 -0.10634,-0.81805 -0.28632,-1.99605 0,0 0,0.0818 0,0.12271 -0.49083,-3.35401 -1.41522,-9.42395 -2.02876,-12.22168 -0.87532,-3.97573 -0.71171,-23.1754 -0.71171,-23.1754 l 2.92863,-8.3114 6.29899,13.90687 6.83891,18.57795 c 0,0 3.1904,3.85302 3.41127,7.87783 0,0.19633 0,0.39267 0,0.589 0,0.43357 0,0.81805 0,1.2598 a 11.199122,11.199122 0 0 0 2.12694,6.63439 c 0,0 1.96332,8.8186 4.56472,10.98643 2.60141,2.16784 2.78138,6.54441 2.78138,6.54441 0,0 3.55034,12.76978 5.0801,14.97852 1.28434,1.86516 1.55429,7.10887 1.6361,8.71225 v 0 c 0,0.2945 0,0.46629 0,0.46629 0,0 0.60536,4.58927 0.73625,8.46683 0,0.47447 0,0.94076 0,1.37433 0,0 0,-0.0655 0,-0.0982 a 13.620554,13.620554 0 0 1 -0.2536,3.1495 c 0,0.0491 0,0.11452 -0.0491,0.17997 0,-0.22088 0,-0.44175 0,-0.65444 a 33.00837,33.00837 0 0 0 -0.61354,8.06598 c 0.0982,4.63835 1.01438,10.09476 3.94301,13.21153 5.07191,5.39096 8.10688,4.57291 8.10688,4.57291 0,0 -2.06967,7.05978 -4.9083,8.56499 a 1.4561313,1.4561313 0 0 0 -0.2945,0.20452 c 0,-0.13089 -0.0655,-0.26996 -0.09,-0.40085 a 3.3785518,3.3785518 0 0 0 -0.74443,2.62595 c -0.09,3.07587 2.03695,7.976 3.95937,10.19292 a 5.7672616,5.7672616 0 0 0 2.45416,1.32525 4.1475201,4.1475201 0 0 1 -0.44175,0.2945 8.6877047,8.6877047 0 0 1 -0.97348,0.50719 4.7119755,4.7119755 0 0 1 -1.45613,0.44175 6.8879919,6.8879919 0 0 0 -4.9983,2.67502 c -1.70154,2.38053 -2.71593,5.58729 0.94076,8.2296 l 13.04792,3.94301 c 0,0 22.24282,1.98786 20.87667,-2.93681 z"
     id="path169"
     inkscape:connector-curvature="0"
     style="fill:url(#9599d617-6377-49c4-b753-a452dc901e54);stroke-width:0.81805128" />
  <path
     d="m 592.9974,919.83717 -12.62253,-3.92664 c -3.54217,-2.65049 -2.57686,-5.85725 -0.9244,-8.23778 a 6.6262155,6.6262155 0 0 1 4.83468,-2.67503 5.8408862,5.8408862 0 0 0 2.34781,-0.93258 5.5954708,5.5954708 0 0 0 1.90606,-1.88151 9.2685212,9.2685212 0 0 0 1.23526,-4.86741 c 0,0 13.52238,-4.532 17.41631,-0.6708 a 10.070211,10.070211 0 0 1 1.75063,2.36417 20.295853,20.295853 0 0 1 2.08603,8.72042 c 0,0 0.85895,4.31931 2.1842,9.24398 1.32524,4.92467 -20.21405,2.86318 -20.21405,2.86318 z"
     id="path171"
     inkscape:connector-curvature="0"
     style="fill:#2d293d;stroke-width:0.81805128" />
  <path
     d="m 653.75407,911.35398 -12.63071,-3.95937 c -3.54217,-2.65048 -2.56868,-5.85724 -0.9244,-8.23777 a 6.5853129,6.5853129 0 0 1 4.83468,-2.66685 4.433838,4.433838 0 0 0 1.40705,-0.44175 7.7142237,7.7142237 0 0 0 0.94894,-0.49901 c 3.41127,-2.05331 3.13314,-6.74893 3.13314,-6.74893 0,0 13.52238,-4.53201 17.42449,-0.6708 a 9.9556842,9.9556842 0 0 1 1.37432,1.72608 c 2.50324,3.96756 2.45416,9.38306 2.45416,9.38306 0,0 0.86713,4.32749 2.1842,9.24398 1.31706,4.91649 -20.20587,2.87136 -20.20587,2.87136 z"
     id="path173"
     inkscape:connector-curvature="0"
     style="fill:#2d293d;stroke-width:0.81805128" />
  <path
     d="m 607.19059,896.6127 a 10.070211,10.070211 0 0 1 1.75063,2.36416 v 0 l -20.4022,3.16586 a 9.2685212,9.2685212 0 0 0 1.23526,-4.8674 c 0,0 13.52238,-4.52383 17.41631,-0.66262 z"
     id="path175"
     inkscape:connector-curvature="0"
     style="opacity:0.1;stroke-width:0.81805128" />
  <path
     d="m 669.29704,889.85558 0.14725,3.83667 c -2.9777,5.3746 -18.44705,4.81833 -23.02814,2.35599 a 7.7142237,7.7142237 0 0 0 0.94894,-0.49901 c 3.41127,-2.05331 3.13313,-6.74893 3.13313,-6.74893 0,0 13.52239,-4.53201 17.4245,-0.6708 a 9.9556842,9.9556842 0 0 1 1.37432,1.72608 z"
     id="path177"
     inkscape:connector-curvature="0"
     style="opacity:0.1;stroke-width:0.81805128" />
  <path
     d="m 671.09676,873.2246 a 34.178183,34.178183 0 0 0 -2.23328,5.31733 l 0.53173,13.75963 c -3.27221,5.88179 -21.45749,4.6629 -24.01799,1.63611 -2.5605,-3.0268 -5.48094,-11.12551 -2.74865,-12.63072 2.73229,-1.50522 4.72834,-8.54864 4.72834,-8.54864 0,0 -2.93681,0.81805 -7.8533,-4.58108 -4.91648,-5.39914 -4.00027,-17.81716 -3.2722,-20.81123 0.72807,-2.99407 -0.50719,-12.89249 -0.50719,-12.89249 0,0 -0.09,-6.9698 -1.57066,-9.17853 -1.48067,-2.20874 -4.90831,-14.9867 -4.90831,-14.9867 0,0 -0.16361,-4.36022 -2.69139,-6.54441 -2.52778,-2.1842 -4.43384,-10.99461 -4.43384,-10.99461 a 11.452718,11.452718 0 0 1 -2.02876,-7.41973 c 0.35176,-4.37657 -3.31311,-8.94948 -3.31311,-8.94948 l -6.64258,-18.57794 -6.11902,-13.90688 -2.82228,8.3114 c 0,0 -0.13089,19.19149 0.71989,23.16722 0.85077,3.97573 2.3069,14.56949 2.3069,14.56949 0,0 -3.22312,7.10069 -1.42341,12.95793 1.79972,5.85725 1.75881,18.60249 1.75881,18.60249 0,0 2.58505,26.24309 1.26798,28.38638 -1.31706,2.14329 -0.93258,7.36246 -0.93258,7.36246 0,0 7.73059,15.05215 5.54639,17.22816 -2.18419,2.17602 -1.26798,7.8942 -1.26798,7.8942 0,0 4.90831,-0.18816 2.86318,1.98786 -2.04513,2.17602 -3.1495,13.20336 -3.1495,13.20336 l -20.96665,3.2722 c 0,0 -2.02877,-2.36417 -5.06374,-8.70407 -3.03497,-6.3399 0.30268,-5.76726 3.07588,-6.54441 2.77319,-0.77715 0.94075,-2.45416 -2.45416,-4.44202 -3.39491,-1.98787 -1.6361,-6.74074 -1.6361,-6.74074 0,0 4.72015,-8.72861 2.95316,-9.35851 -1.76699,-0.6299 -2.40507,-12.63889 -2.40507,-12.63889 0,0 -4.03299,-14.15229 -3.2722,-17.99713 0.76079,-3.84484 -3.27221,-12.95793 -3.27221,-12.95793 l -1.6361,-10.92917 c -6.7571,-10.61012 -4.71198,-20.61489 -4.71198,-20.61489 l -0.65444,-16.90094 c 0,0 -6.13538,-32.55844 -7.4688,-49.08308 -0.81806,-10.58558 -1.28435,-25.04873 -1.48068,-34.08002 -0.11452,-5.07191 -0.15543,-8.42592 -0.15543,-8.42592 l 74.94986,-10.73284 c 0,0 0.0573,3.47672 1.79153,11.1255 0.9244,4.09026 2.33963,9.40759 4.48293,16.02563 6.13538,18.94606 3.37855,33.36013 3.37855,33.36013 l 0.23723,24.23886 c 0,0 7.23976,15.94382 6.06176,21.57201 a 46.448952,46.448952 0 0 0 -0.97348,10.14384 c 0,0 16.1647,34.79172 14.99488,45.13189 -1.16981,10.34016 5.88997,26.28398 5.88997,26.28398 0,0 2.16784,11.42818 0.5481,14.63494 z"
     id="path179"
     inkscape:connector-curvature="0"
     style="fill:#575988;stroke-width:0.81805128" />
  <path
     d="m 624.58236,784.13064 22.79091,-3.93483 c 0,0 -12.43438,13.74326 -22.79091,3.93483 z"
     id="path181"
     inkscape:connector-curvature="0"
     style="opacity:0.05;stroke-width:0.81805128" />
  <path
     d="m 643.20121,757.94481 c 0,0 1.09619,8.06599 -3.75486,11.30547 0,0 8.83495,-1.73427 3.75486,-11.30547 z"
     id="path183"
     inkscape:connector-curvature="0"
     style="opacity:0.1;stroke-width:0.81805128" />
  <path
     d="m 640.80432,732.2171 c 0,0 -18.54523,16.50009 -25.55593,15.46117 -7.0107,-1.03893 25.55593,-15.46117 25.55593,-15.46117 z"
     id="path185"
     inkscape:connector-curvature="0"
     style="opacity:0.1;stroke-width:0.81805128" />
  <path
     d="m 596.49048,792.62201 c 0,0 -14.43043,3.85302 -14.64312,9.71845 -0.21269,5.86542 14.64312,-9.71845 14.64312,-9.71845 z"
     id="path187"
     inkscape:connector-curvature="0"
     style="opacity:0.1;stroke-width:0.81805128" />
  <path
     d="m 602.47043,865.13407 c 0,0 -20.4022,4.62199 -14.47132,7.0107 5.93087,2.38871 15.60023,4.09026 15.60023,4.09026 0,0 6.62622,0.11453 -1.12891,-11.10096 z"
     id="path189"
     inkscape:connector-curvature="0"
     style="opacity:0.05;stroke-width:0.81805128" />
  <g
     id="g213"
     style="opacity:0.05"
     transform="matrix(0.81805129,0,0,0.81805129,98.706265,288.97237)">
    <path
       d="m 650.74,756.76 a 5,5 0 0 1 -2.43,-3.55 l -0.24,0.46 c 0,0 -2.13,5.84 2,8.24 0.48,0.27 0.92,0.54 1.35,0.81 0.73,-0.17 1.54,-0.3 2.3,-0.53 3.42,-0.98 1.17,-3.03 -2.98,-5.43 z"
       transform="translate(-57.5,-38.62)"
       id="path191"
       inkscape:connector-curvature="0" />
    <path
       d="m 683,753.82 c 0.67,-0.67 0.58,-2.3 0.08,-4.39 -1.07,1.7 -1.25,4.27 -1.19,6.22 a 4.89,4.89 0 0 1 1.11,-1.83 z"
       transform="translate(-57.5,-38.62)"
       id="path193"
       inkscape:connector-curvature="0" />
    <path
       d="m 675.1,648 a 29,29 0 0 0 -1.4,7.89 31.11,31.11 0 0 1 1.74,-5.46 c 0,0 -0.13,-0.91 -0.34,-2.43 z"
       transform="translate(-57.5,-38.62)"
       id="path195"
       inkscape:connector-curvature="0" />
    <path
       d="m 732.19,634.64 a 10,10 0 0 0 0.15,-2.34 c -0.26,1.61 -0.42,3.09 -0.53,4.39 0.11,-0.69 0.24,-1.35 0.38,-2.05 z"
       transform="translate(-57.5,-38.62)"
       id="path197"
       inkscape:connector-curvature="0" />
    <path
       d="m 677.41,723.75 c 0.32,-0.53 0.45,-2.3 0.45,-4.75 a 16.13,16.13 0 0 0 -1,6 5.71,5.71 0 0 1 0.55,-1.25 z"
       transform="translate(-57.5,-38.62)"
       id="path199"
       inkscape:connector-curvature="0" />
    <path
       d="m 684.23,763.7 c -1.57,4.86 -2.43,13.19 -2.43,13.19 l -25.63,4 c 0,0 -2.48,-2.89 -6.17,-10.66 -0.32,-0.68 -0.59,-1.29 -0.8,-1.85 -1.51,0.77 -2.06,2.39 0.15,7 3.71,7.75 6.18,10.64 6.18,10.64 l 25.63,-4 c 0,0 1.4,-13.49 3.86,-16.15 1.19,-1.28 0.36,-1.87 -0.79,-2.17 z"
       transform="translate(-57.5,-38.62)"
       id="path201"
       inkscape:connector-curvature="0" />
    <path
       d="m 648.74,726.77 c 0,0 0.78,14.69 2.94,15.46 v 0 c 1,-2.48 1.61,-4.81 0.64,-5.15 -2.16,-0.77 -2.94,-15.46 -2.94,-15.46 0,0 -4.93,-17.29 -4,-22 0.93,-4.71 -4,-15.84 -4,-15.84 l -2,-13.35 c -8.17,-12.91 -5.66,-25.16 -5.66,-25.16 l -0.8,-20.65 c 0,0 -7.5,-39.8 -9.13,-60 -1,-12.93 -1.57,-30.62 -1.81,-41.66 0,-2 -0.08,-3.76 -0.11,-5.25 l -0.73,0.1 c 0,0 0,4.1 0.18,10.3 0.25,11 0.77,28.72 1.82,41.65 1.63,20.2 9.13,60 9.13,60 L 633,650.4 c 0,0 -2.51,12.25 5.66,25.16 l 2,13.36 c 0,0 4.91,11.11 4,15.83 -0.91,4.72 4.08,22.02 4.08,22.02 z"
       transform="translate(-57.5,-38.62)"
       id="path203"
       inkscape:connector-curvature="0" />
    <path
       d="m 726.41,772.4 a 24.66,24.66 0 0 1 -4.47,-9.95 c -2.54,2.47 0.84,11.56 3.81,15.1 3.13,3.72 25.36,5.21 29.35,-2 l -0.16,-4.06 c -5.53,5.95 -25.58,4.43 -28.53,0.91 z"
       transform="translate(-57.5,-38.62)"
       id="path205"
       inkscape:connector-curvature="0" />
    <path
       d="m 757.84,747.1 a 41.78,41.78 0 0 0 -2.73,6.5 l 0.11,3 c 0.44,-1.11 1.08,-2.59 2,-4.35 a 13,13 0 0 0 0.73,-5.31 c -0.06,0.06 -0.08,0.11 -0.11,0.16 z"
       transform="translate(-57.5,-38.62)"
       id="path207"
       inkscape:connector-curvature="0" />
    <path
       d="m 726.92,751.65 a 42.06,42.06 0 0 0 1.9,-5.14 c 0,0 -3.59,1 -9.6,-5.6 -4.37,-4.8 -5,-14.15 -4.61,-20.29 -0.93,3.66 -2.05,18.84 4,25.43 3.89,4.31 6.78,5.38 8.31,5.6 z"
       transform="translate(-57.5,-38.62)"
       id="path209"
       inkscape:connector-curvature="0" />
    <path
       d="m 714,704.86 a 116.39,116.39 0 0 1 0.91,12.6 16.38,16.38 0 0 1 0.36,-2 c 0.93,-3.66 -0.62,-15.75 -0.62,-15.75 0,0 -0.11,-8.53 -1.92,-11.23 -1.81,-2.7 -6,-18.32 -6,-18.32 0,0 -0.2,-5.32 -3.29,-8 -3.09,-2.68 -5.44,-13.41 -5.44,-13.41 a 13.93,13.93 0 0 1 -2.48,-9.07 c 0.43,-5.35 -4,-10.93 -4,-10.93 l -8.19,-22.75 -7.48,-17 -3.45,10.2 c 0,0 0,1.26 0,3.24 l 2.8,-8.25 7.48,17 8.13,22.72 c 0,0 4.48,5.59 4,10.93 a 14,14 0 0 0 2.48,9.08 c 0,0 2.34,10.78 5.42,13.44 3.08,2.66 3.3,8 3.3,8 0,0 4.22,15.62 6,18.32 1.78,2.7 1.99,11.18 1.99,11.18 z"
       transform="translate(-57.5,-38.62)"
       id="path211"
       inkscape:connector-curvature="0" />
  </g>
  <path
     d="m 638.04748,512.96299 -1.06346,6.41352 0.18815,2.82228 0.13089,2.08603 -7.23158,1.03075 -0.87531,-1.4725 v 0 c -1.6361,-2.66684 -4.94921,-8.09052 -5.98814,-8.90857 -1.39068,-1.07165 -4.46656,-18.65975 -1.54611,-17.72718 a 7.6405991,7.6405991 0 0 1 4.18842,3.50944 c 0,0 14.34044,1.08801 12.19714,12.24623 z"
     id="path215"
     inkscape:connector-curvature="0"
     style="fill:#ffcdd3;stroke-width:0.81805128" />
  <path
     d="m 637.30306,524.28482 -7.23158,1.03075 -0.87531,-1.4725 v 0 a 6.4217027,6.4217027 0 0 1 7.976,-1.6361 z"
     id="path217"
     inkscape:connector-curvature="0"
     style="opacity:0.1;stroke-width:0.81805128" />
  <path
     d="m 639.27456,527.66337 -9.49758,2.58505 -0.26177,-1.41523 -0.68716,-3.8203 c 0,0 3.59942,-5.20281 9.22761,-1.6361 l 0.55628,1.93878 z"
     id="path219"
     inkscape:connector-curvature="0"
     style="fill:#dce6f2;stroke-width:0.81805128" />
  <path
     d="m 483.48487,519.60557 -10.01295,5.88997 c 0,0 -0.42538,-0.81805 -1.0062,-1.89788 -1.0471,-2.00423 -2.61776,-5.02284 -3.05951,-6.10266 -0.6708,-1.63611 -5.02284,-3.64851 -5.02284,-3.64851 -11.10095,-9.81662 1.31707,-19.1015 1.31707,-19.1015 6.22537,-13.84961 14.46314,4.09026 14.46314,4.09026 0,0 1.40705,9.54666 0.69535,10.22564 -0.71171,0.67898 -0.61354,3.2722 -0.61354,3.2722 a 38.325703,38.325703 0 0 1 2.69139,5.72636 c 0.35994,0.95712 0.54809,1.54612 0.54809,1.54612 z"
     id="path221"
     inkscape:connector-curvature="0"
     style="fill:#ffcdd3;stroke-width:0.81805128" />
  <path
     d="m 483.48487,519.60557 -10.01295,5.88997 c 0,0 -0.42538,-0.81805 -1.0062,-1.89788 1.39887,-1.2598 6.35626,-5.61183 8.04963,-5.48913 a 12.998835,12.998835 0 0 0 2.45415,0 c 0.32722,0.90804 0.51537,1.49704 0.51537,1.49704 z"
     id="path223"
     inkscape:connector-curvature="0"
     style="opacity:0.1;stroke-width:0.81805128" />
  <path
     d="m 484.6465,522.66508 -11.27274,6.10266 -0.32722,-2.45415 -0.22906,-1.70155 c 0,0 6.44625,-5.96359 8.41775,-5.82452 a 10.52832,10.52832 0 0 0 3.00225,-0.12271 l 0.21269,2.06967 z"
     id="path225"
     inkscape:connector-curvature="0"
     style="fill:#dce6f2;stroke-width:0.81805128" />
  <path
     d="m 611.8044,556.27881 c 0,0 -49.90113,7.58333 -40.65715,4.18024 6.43806,-2.37235 8.87585,-6.61803 9.2358,-11.24002 0.2945,-3.86939 -0.81805,-8.00055 -2.30691,-11.52635 a 49.901129,49.901129 0 0 0 -4.83468,-8.88403 c 0,0 37.50765,-22.55368 30.61148,-3.1086 a 30.546035,30.546035 0 0 0 -1.82426,9.16218 25.474117,25.474117 0 0 0 1.33343,9.15399 27.380177,27.380177 0 0 0 8.44229,12.26259 z"
     id="path227"
     inkscape:connector-curvature="0"
     style="fill:#ffcdd3;stroke-width:0.81805128" />
  <path
     d="m 603.85294,525.70005 a 30.546035,30.546035 0 0 0 -1.82426,9.16218 c -3.49307,3.17403 -7.46062,3.12495 -12.54072,3.32128 -3.91029,0.14725 -8.18051,1.2598 -11.38728,-0.49901 a 49.901129,49.901129 0 0 0 -4.83468,-8.88403 c 0,0 37.48311,-22.5455 30.58694,-3.10042 z"
     id="path229"
     inkscape:connector-curvature="0"
     style="opacity:0.1;stroke-width:0.81805128" />
  <circle
     cx="588.0318"
     cy="518.81201"
     r="20.745781"
     id="circle231"
     style="fill:#ffcdd3;stroke-width:0.81805128" />
  <path
     d="m 611.8044,556.27881 c 0,0 -49.90113,7.58333 -40.65715,4.18024 6.43806,-2.37235 8.87585,-6.61803 9.2358,-11.24002 2.39689,-2.79774 7.36246,-4.90831 10.51196,-6.10267 a 15.052144,15.052144 0 0 1 9.08037,-0.49901 12.516185,12.516185 0 0 1 3.36219,1.40705 27.380177,27.380177 0 0 0 8.46683,12.25441 z"
     id="path233"
     inkscape:connector-curvature="0"
     style="opacity:0.1;stroke-width:0.81805128" />
  <path
     d="m 639.27456,527.66337 -9.49758,2.58505 -0.26177,-1.41523 a 8.4831919,8.4831919 0 0 1 9.09673,-3.50944 z"
     id="path235"
     inkscape:connector-curvature="0"
     style="opacity:0.1;stroke-width:0.81805128" />
  <path
     d="m 484.6465,522.66508 -11.27274,6.10266 -0.32722,-2.45415 c 4.01663,-2.58504 10.81464,-5.34188 11.40363,-5.57911 z"
     id="path237"
     inkscape:connector-curvature="0"
     style="opacity:0.1;stroke-width:0.81805128" />
  <path
     d="m 636.49319,681.82514 c -19.28965,3.81212 -46.768,8.86768 -51.20183,7.69786 -3.68124,-0.9653 -15.28938,-0.40084 -25.35959,0.3354 -0.11453,-5.07191 -0.15543,-8.42592 -0.15543,-8.42592 l 74.94986,-10.73284 c 0,0 0.0327,3.47672 1.76699,11.1255 z"
     id="path239"
     inkscape:connector-curvature="0"
     style="opacity:0.1;stroke-width:0.81805128" />
  <path
     d="m 655.68467,676.52417 c 0,0 -63.50532,13.4324 -70.45058,11.60815 -6.94525,-1.82426 -42.07238,1.79153 -42.07238,1.79153 -15.4448,11.23184 -9.42395,-4.69562 -9.42395,-4.69562 0,0 -1.70972,-8.13143 -0.0491,-14.82309 a 90.803694,90.803694 0 0 0 2.04513,-14.90489 c 0,0 -0.75261,-10.43833 1.07165,-12.94975 1.82425,-2.51142 3.41127,-20.01772 3.41127,-20.01772 0,0 1.28434,-11.919 1.01438,-14.52041 -0.26995,-2.6014 0.13907,-9.9475 0.13907,-9.9475 l 1.79153,-12.27077 C 530.07287,584.55066 489.383,561.69431 489.383,561.69431 c -2.23328,-8.11507 -17.77625,-26.7012 -17.77625,-26.7012 a 19.829563,19.829563 0 0 0 -1.39887,-4.65471 c -1.15345,-2.74865 14.30772,-8.92494 14.30772,-8.92494 0,0 12.22168,13.83325 14.80672,17.57174 2.58505,3.7385 11.22367,10.55287 11.22367,10.55287 a 8.6140801,8.6140801 0 0 1 3.85302,0.35994 1.1125498,1.1125498 0 0 1 0.20451,0.0573 v 0 a 31.380448,31.380448 0 0 1 7.976,4.18024 c 6.24992,-0.58899 10.77374,3.59943 10.77374,3.59943 0,0 7.10068,-1.31706 8.36866,-0.14725 1.26798,1.16981 7.31338,-0.27814 7.31338,-0.27814 0,0 5.60365,-13.12972 9.75117,-9.53848 4.14752,3.59125 21.14663,2.76502 21.14663,2.76502 2.15147,-3.10042 7.57515,-5.47276 10.97825,-6.7162 a 15.052144,15.052144 0 0 1 9.08037,-0.49901 11.755397,11.755397 0 0 1 3.65669,1.6361 l 10.70011,9.70209 c 0,0 2.81409,-3.94301 2.45415,-4.80196 -0.35994,-0.85896 3.42764,-1.70155 3.42764,-1.70155 0,0 4.99011,-1.76699 6.88799,-2.35599 1.89788,-0.589 3.73031,1.40705 3.88574,1.58702 -0.0654,-0.22087 -1.53793,-4.38475 -1.15345,-7.62424 0.38448,-3.23948 -2.33145,-6.19265 -2.33145,-6.19265 5.52185,-15.21575 19.76412,-3.19858 19.76412,-3.19858 0,0 1.88152,8.12325 0.60536,11.31365 -1.27616,3.1904 1.76699,9.70209 1.48885,11.45272 -0.27813,1.75063 0.87532,4.67925 1.00621,7.98418 0.13088,3.30493 -1.39069,9.5712 -2.35599,12.4262 -0.9653,2.855 -8.99857,9.41577 -8.99857,9.41577 0,0 -0.13906,9.94751 -3.57488,15.82929 -3.43581,5.88179 -0.41721,25.49048 -0.41721,25.49048 0,0 4.09026,15.19121 8.61408,19.90319 4.52383,4.71198 12.03354,32.33757 12.03354,32.33757 z"
     id="path241"
     inkscape:connector-curvature="0"
     style="fill:#656691;stroke-width:0.81805128" />
  <path
     d="m 558.08297,565.49825 c 0,0 -2.13511,-5.67728 -3.90211,-6.12721 a 41.442479,41.442479 0 0 1 -5.13736,-2.06967 l 1.03893,-2.19238 c 0,0 6.61803,1.54612 7.73058,3.41946 1.11255,1.87334 0.26996,6.9698 0.26996,6.9698 z"
     id="path243"
     inkscape:connector-curvature="0"
     style="opacity:0.1;stroke-width:0.81805128" />
  <path
     d="m 522.58772,554.12733 c -0.28631,1.75881 -15.72294,3.91847 -15.72294,3.91847 l 7.53425,-8.18051 v 0 l 0.19633,0.0654 v 0 a 31.380448,31.380448 0 0 1 7.99236,4.1966 z"
     id="path245"
     inkscape:connector-curvature="0"
     style="opacity:0.1;stroke-width:0.81805128" />
  <circle
     cx="476.80957"
     cy="531.94995"
     r="1.3906872"
     id="circle247"
     style="fill:#575988;stroke-width:0.81805128" />
  <circle
     cx="478.69928"
     cy="534.66589"
     r="1.3906872"
     id="circle249"
     style="fill:#575988;stroke-width:0.81805128" />
  <circle
     cx="480.53989"
     cy="537.16913"
     r="1.3906872"
     id="circle251"
     style="fill:#575988;stroke-width:0.81805128" />
  <circle
     cx="482.47867"
     cy="539.88501"
     r="1.3906872"
     id="circle253"
     style="fill:#575988;stroke-width:0.81805128" />
  <circle
     cx="646.66156"
     cy="533.41425"
     r="1.1370913"
     id="circle255"
     style="fill:#575988;stroke-width:0.81805128" />
  <circle
     cx="646.93152"
     cy="535.97479"
     r="1.1370913"
     id="circle257"
     style="fill:#575988;stroke-width:0.81805128" />
  <circle
     cx="647.18512"
     cy="538.53528"
     r="1.1370913"
     id="circle259"
     style="fill:#575988;stroke-width:0.81805128" />
  <path
     d="m 559.98903,612.69981 c -0.17179,-0.20452 41.00073,47.87236 70.35241,18.04621 0.0327,0 -47.88054,8.38502 -70.35241,-18.04621 z"
     id="path261"
     inkscape:connector-curvature="0"
     style="opacity:0.1;stroke-width:0.81805128" />
  <path
     d="m 538.40884,639.34374 c 0,0 23.51897,-0.26178 26.2349,6.39716 l 0.26996,7.03524 a 4.4829211,4.4829211 0 0 1 -4.3684,0.17179 c -2.45415,-1.19436 -16.90094,-7.86147 -21.77652,-4.1966 z"
     id="path263"
     inkscape:connector-curvature="0"
     style="opacity:0.1;stroke-width:0.81805128" />
  <path
     d="m 538.85876,639.32738 c 0,0 22.49641,-0.2536 25.08964,6.10266 l 0.26177,6.69984 a 4.3111303,4.3111303 0 0 1 -4.18024,0.16361 c -2.31508,-1.12891 -16.16469,-7.49335 -20.82758,-3.99209 z"
     id="path265"
     inkscape:connector-curvature="0"
     style="fill:#656691;stroke-width:0.81805128" />
  <path
     d="m 549.28074,587.87195 a 75.776091,75.776091 0 0 0 9.71845,15.27302 61.206598,61.206598 0 0 0 14.79854,13.23607 c 0,0 -23.99344,-25.33505 -24.51699,-28.50909 z"
     id="path267"
     inkscape:connector-curvature="0"
     style="opacity:0.1;stroke-width:0.81805128" />
  <path
     d="m 540.54395,560.82717 c 0,0 4.57291,16.77005 14.89671,22.12829 z"
     id="path269"
     inkscape:connector-curvature="0"
     style="opacity:0.1;stroke-width:0.81805128" />
  <path
     d="m 534.6049,562.76596 c -0.11453,-0.31086 -2.96953,13.5142 13.82506,20.45128 0,0.008 -7.10068,-2.10239 -13.82506,-20.45128 z"
     id="path271"
     inkscape:connector-curvature="0"
     style="opacity:0.1;stroke-width:0.81805128" />
  <path
     d="m 636.76314,547.4684 c -0.26177,0 8.35231,5.03919 10.72466,7.43608 0,0 -5.77545,-7.9351 -10.72466,-7.43608 z"
     id="path273"
     inkscape:connector-curvature="0"
     style="opacity:0.1;stroke-width:0.81805128" />
  <path
     d="m 583.15624,537.82357 c 0.3354,1.05529 0.74443,2.20874 1.72609,2.73229 a 4.2211447,4.2211447 0 0 0 1.9715,0.35994 c 6.33172,0.15543 12.91703,0.17998 18.66793,-2.45415 a 7.0516022,7.0516022 0 0 0 2.78138,-2.00422 c 0.98984,-1.30889 1.12073,-3.04316 1.48067,-4.64654 0.69534,-3.12495 2.33963,-5.95541 3.4849,-8.94948 a 29.548013,29.548013 0 0 0 1.43977,-15.88655 10.634667,10.634667 0 0 0 -1.75881,-4.56473 c -1.76699,-2.33145 -4.85923,-3.18222 -7.14977,-4.99829 -2.29054,-1.81608 -3.82848,-4.67926 -6.47078,-6.01268 -2.38053,-1.20254 -5.22735,-0.94076 -7.83694,-0.39266 a 41.082536,41.082536 0 0 0 -14.38952,6.06176 c -1.46431,0.97348 -3.06769,2.10239 -4.81014,1.84061 -1.52976,-0.22087 -2.67503,-1.45613 -3.69759,-2.60958 a 19.346913,19.346913 0 0 0 -1.20254,9.08855 4.0329929,4.0329929 0 0 1 0,1.36614 4.1393395,4.1393395 0 0 1 -0.90803,1.4725 c -1.48886,1.87333 -2.35599,4.76923 -0.74443,6.54441 0.70352,0.76896 1.75063,1.16163 2.45415,1.94696 1.22708,1.41523 0.91622,3.5258 0.95712,5.39096 a 2.7568329,2.7568329 0 0 0 0.53174,1.81607 2.6832082,2.6832082 0 0 0 2.57686,0.51537 6.9288945,6.9288945 0 0 1 2.71593,-0.36812 4.4911016,4.4911016 0 0 1 2.45415,1.73427 c 3.03497,3.55852 4.33567,7.59151 5.72636,12.01717 z"
     id="path275"
     inkscape:connector-curvature="0"
     style="fill:#2d293d;stroke-width:0.81805128" />
  <g
     id="g281"
     style="opacity:0.1"
     transform="matrix(0.81805129,0,0,0.81805129,98.706265,288.97237)">
    <path
       d="m 681.21,339.14 a 8.56,8.56 0 0 1 -3.39,2.44 c -7,3.25 -15.08,3.22 -22.83,3 a 5.33,5.33 0 0 1 -2.41,-0.44 c -1.19,-0.64 -1.7,-2.06 -2.11,-3.35 -1.7,-5.4 -3.29,-10.34 -7,-14.74 a 5.54,5.54 0 0 0 -3,-2.11 8.63,8.63 0 0 0 -3.32,0.44 3.3,3.3 0 0 1 -3.16,-0.62 3.46,3.46 0 0 1 -0.65,-2.23 c -0.05,-2.28 0.33,-4.86 -1.16,-6.58 -0.84,-1 -2.12,-1.44 -3,-2.39 a 5,5 0 0 1 -0.68,-5.06 c -1.27,2.2 -1.75,5 -0.1,6.8 0.85,0.94 2.14,1.42 3,2.39 1.5,1.72 1.12,4.3 1.17,6.58 a 3.37,3.37 0 0 0 0.65,2.22 3.28,3.28 0 0 0 3.15,0.63 8.66,8.66 0 0 1 3.32,-0.45 5.49,5.49 0 0 1 3,2.12 c 3.75,4.4 5.33,9.33 7,14.74 0.41,1.29 0.91,2.7 2.11,3.35 a 5.28,5.28 0 0 0 2.41,0.44 c 7.74,0.18 15.79,0.21 22.82,-3 a 8.7,8.7 0 0 0 3.4,-2.44 7.05,7.05 0 0 0 1,-2.1 c -0.06,0.12 -0.13,0.22 -0.22,0.36 z"
       transform="translate(-57.5,-38.62)"
       id="path277"
       inkscape:connector-curvature="0" />
    <path
       d="m 630.49,304.11 a 3.59,3.59 0 0 0 0.72,-1.31 4.63,4.63 0 0 0 0,-1.66 23.48,23.48 0 0 1 0.83,-9.21 l -0.15,-0.17 a 23.66,23.66 0 0 0 -1.47,11.11 6.5,6.5 0 0 1 0.07,1.24 z"
       transform="translate(-57.5,-38.62)"
       id="path279"
       inkscape:connector-curvature="0" />
  </g>
  <path
     d="m 579.9413,550.52791 c 0,0 26.02221,2.45415 28.20641,-1.54612"
     id="path283"
     inkscape:connector-curvature="0"
     style="opacity:0.1;stroke-width:0.81805128" />
  <path
     d="m 629.86697,537.87265 c 0,0 14.38952,-0.53173 17.75989,4.73652"
     id="path285"
     inkscape:connector-curvature="0"
     style="opacity:0.1;stroke-width:0.81805128" />
  <path
     d="m 944.49768,811.19995 c 0,0 4.85104,6.3399 -2.24146,15.91928 -7.09251,9.57938 -12.93339,17.66173 -10.56922,23.6335 0,0 10.70011,-17.78443 19.40417,-18.03803 8.70407,-0.25359 2.98589,-10.831 -6.59349,-21.51475 z"
     id="path287"
     inkscape:connector-curvature="0"
     style="fill:#00bfa6;stroke-width:0.81805128" />
  <path
     d="m 944.49768,811.19995 a 7.5342524,7.5342524 0 0 1 0.98984,1.98787 c 8.49955,9.98022 13.02338,19.29783 4.85923,19.52688 -7.60788,0.22088 -16.73733,13.82507 -18.92153,17.2527 a 8.0332637,8.0332637 0 0 0 0.26178,0.81805 c 0,0 10.70011,-17.78443 19.40417,-18.03803 8.70407,-0.25359 2.98589,-10.86372 -6.59349,-21.54747 z"
     id="path289"
     inkscape:connector-curvature="0"
     style="opacity:0.1;stroke-width:0.81805128" />
  <path
     d="m 953.52078,819.27412 c 0,2.23328 -0.25359,4.04117 -0.56445,4.04117 -0.31086,0 -0.55628,-1.80789 -0.55628,-4.04117 0,-2.23328 0.31086,-1.178 0.62172,-1.178 0.31086,0 0.49901,-1.05528 0.49901,1.178 z"
     id="path291"
     inkscape:connector-curvature="0"
     style="fill:#ffd037;stroke-width:0.81805128" />
  <path
     d="m 956.61302,821.94097 c -1.96332,1.06346 -3.67305,1.70972 -3.8203,1.43977 -0.14725,-0.26996 1.32524,-1.35797 3.2722,-2.45416 1.94697,-1.09619 1.18618,-0.2945 1.34161,0 0.15543,0.2945 1.16163,-0.0573 -0.79351,1.01439 z"
     id="path293"
     inkscape:connector-curvature="0"
     style="fill:#ffd037;stroke-width:0.81805128" />
  <path
     d="m 918.87631,811.19995 c 0,0 -4.85104,6.3399 2.23328,15.91928 7.08433,9.57938 12.94157,17.66173 10.57741,23.6335 0,0 -10.70012,-17.78443 -19.40418,-18.03803 -8.70407,-0.25359 -2.98589,-10.831 6.59349,-21.51475 z"
     id="path295"
     inkscape:connector-curvature="0"
     style="fill:#00bfa6;stroke-width:0.81805128" />
  <path
     d="m 918.87631,811.19995 a 7.5342524,7.5342524 0 0 0 -0.98984,1.98787 c -8.49955,9.98022 -13.02338,19.29783 -4.85922,19.52688 7.60787,0.22088 16.72914,13.82507 18.92152,17.2527 a 8.0332637,8.0332637 0 0 1 -0.26177,0.81805 c 0,0 -10.70012,-17.78443 -19.40418,-18.03803 -8.70407,-0.25359 -2.98589,-10.86372 6.59349,-21.54747 z"
     id="path297"
     inkscape:connector-curvature="0"
     style="opacity:0.1;stroke-width:0.81805128" />
  <path
     d="m 909.85321,819.27412 c 0,2.23328 0.25359,4.04117 0.56445,4.04117 0.31086,0 0.55628,-1.80789 0.55628,-4.04117 0,-2.23328 -0.31086,-1.178 -0.62172,-1.178 -0.31086,0 -0.49901,-1.05528 -0.49901,1.178 z"
     id="path299"
     inkscape:connector-curvature="0"
     style="fill:#ffd037;stroke-width:0.81805128" />
  <path
     d="m 906.76097,821.94097 c 1.96333,1.06346 3.67305,1.70972 3.8203,1.43977 0.14725,-0.26996 -1.32524,-1.35797 -3.2722,-2.45416 -1.94697,-1.09619 -1.19436,-0.2945 -1.34161,0 -0.14725,0.2945 -1.16981,-0.0573 0.79351,1.01439 z"
     id="path301"
     inkscape:connector-curvature="0"
     style="fill:#ffd037;stroke-width:0.81805128" />
  <ellipse
     cx="931.67883"
     cy="891.4917"
     rx="50.719181"
     ry="7.7796679"
     id="ellipse303"
     style="opacity:0.1;fill:#00bfa6;stroke-width:0.81805128" />
  <path
     d="m 957.79101,842.19592 -0.24541,1.97968 -0.3354,2.79774 -0.13907,1.16981 -0.34358,2.79773 -0.14725,1.16982 -0.34359,2.78955 -3.87756,31.8222 c -0.35176,2.83864 -4.99011,5.05555 -10.58558,5.05555 h -20.17315 c -5.60365,0 -10.23382,-2.21691 -10.5774,-5.05555 l -3.89392,-31.8222 -0.33541,-2.78955 -0.13906,-1.16982 -0.35177,-2.79773 -0.13907,-1.16981 -0.34358,-2.79774 -0.23723,-1.97968 c -0.19633,-1.63611 2.31508,-2.96135 5.48094,-2.96135 h 41.27887 c 3.13314,0 5.65273,1.34978 5.44822,2.96135 z"
     id="path305"
     inkscape:connector-curvature="0"
     style="fill:#65617d;stroke-width:0.81805128" />
  <polygon
     points="987.04,682.11 986.63,678.69 1049.86,678.69 1049.44,682.11 "
     id="polygon307"
     style="fill:#9d9cb5"
     transform="matrix(0.81805129,0,0,0.81805129,98.706265,288.97237)" />
  <polygon
     points="987.64,686.96 987.22,683.53 1049.27,683.53 1048.86,686.96 "
     id="polygon309"
     style="fill:#9d9cb5"
     transform="matrix(0.81805129,0,0,0.81805129,98.706265,288.97237)" />
  <polygon
     points="988.23,691.8 987.81,688.38 1048.67,688.38 1048.26,691.8 "
     id="polygon311"
     style="fill:#9d9cb5"
     transform="matrix(0.81805129,0,0,0.81805129,98.706265,288.97237)" />
</svg>
