<?xml version="1.0" encoding="UTF-8" standalone="no"?>
<!-- Created with Inkscape (http://www.inkscape.org/) -->

<svg
   xmlns:dc="http://purl.org/dc/elements/1.1/"
   xmlns:cc="http://creativecommons.org/ns#"
   xmlns:rdf="http://www.w3.org/1999/02/22-rdf-syntax-ns#"
   xmlns:svg="http://www.w3.org/2000/svg"
   xmlns="http://www.w3.org/2000/svg"
   xmlns:sodipodi="http://sodipodi.sourceforge.net/DTD/sodipodi-0.dtd"
   xmlns:inkscape="http://www.inkscape.org/namespaces/inkscape"
   width="1000"
   height="1000"
   viewBox="0 0 264.58333 264.58334"
   version="1.1"
   id="svg8"
   inkscape:version="0.92.4 (5da689c313, 2019-01-14)"
   sodipodi:docname="brand-category.svg">
  <defs
     id="defs2">
    <clipPath
       clipPathUnits="userSpaceOnUse"
       id="clipPath823">
      <rect
         ry="0"
         y="32.416653"
         x="0"
         height="264.58337"
         width="264.58337"
         id="rect825"
         style="opacity:1;fill:#f2f2f2;fill-opacity:1;stroke:none;stroke-width:4.01188374;stroke-linecap:round;stroke-linejoin:round;stroke-miterlimit:4;stroke-dasharray:none;stroke-dashoffset:0;stroke-opacity:1" />
    </clipPath>
    <clipPath
       clipPathUnits="userSpaceOnUse"
       id="clipPath1833">
      <rect
         y="31.709221"
         x="41.788864"
         height="192.65283"
         width="192.65283"
         id="rect1835"
         style="opacity:1;fill:#999999;fill-opacity:1;stroke:none;stroke-width:1.11995304;stroke-linecap:round;stroke-linejoin:round;stroke-miterlimit:4;stroke-dasharray:none;stroke-dashoffset:0;stroke-opacity:1" />
    </clipPath>
    <clipPath
       clipPathUnits="userSpaceOnUse"
       id="clipPath1862">
      <rect
         y="32.416653"
         x="-1.7763568e-15"
         height="264.58337"
         width="264.58337"
         id="rect1864"
         style="opacity:1;fill:#999999;fill-opacity:1;stroke:none;stroke-width:1.53810847;stroke-linecap:round;stroke-linejoin:round;stroke-miterlimit:4;stroke-dasharray:none;stroke-dashoffset:0;stroke-opacity:1" />
    </clipPath>
    <style
       id="style3008">.cls-1{fill:url(#linear-gradient);}.cls-2{fill:url(#linear-gradient-2);}.cls-3{fill:url(#linear-gradient-3);}.cls-4{fill:url(#linear-gradient-4);}</style>
    <linearGradient
       y2="1.301"
       y1="513.347"
       x2="510.699"
       x1="-1.347"
       id="linear-gradient"
       gradientUnits="userSpaceOnUse">
      <stop
         id="stop3010"
         stop-color="#111"
         offset="0" />
      <stop
         id="stop3012"
         stop-color="#323232"
         offset="1" />
    </linearGradient>
    <linearGradient
       y2="161.914"
       y1="376.967"
       x2="368.112"
       x1="153.06"
       id="linear-gradient-2"
       gradientUnits="userSpaceOnUse">
      <stop
         id="stop3015"
         stop-color="#b5053c"
         offset="0" />
      <stop
         id="stop3017"
         stop-color="#c90441"
         offset="0.233" />
      <stop
         id="stop3019"
         stop-color="#f0014b"
         offset="0.737" />
      <stop
         id="stop3021"
         stop-color="#ff004f"
         offset="1" />
    </linearGradient>
    <linearGradient
       y2="139.555"
       y1="366.084"
       x2="362.722"
       x1="136.192"
       id="linear-gradient-3"
       gradientUnits="userSpaceOnUse">
      <stop
         id="stop3024"
         stop-color="#00b2c9"
         offset="0" />
      <stop
         id="stop3026"
         stop-color="#00c8d4"
         offset="0.283" />
      <stop
         id="stop3028"
         stop-color="#00e6e4"
         offset="0.741" />
      <stop
         id="stop3030"
         stop-color="#00f1ea"
         offset="1" />
    </linearGradient>
    <linearGradient
       y2="5.448"
       y1="506.873"
       x2="510.704"
       x1="9.279"
       id="linear-gradient-4"
       gradientUnits="userSpaceOnUse">
      <stop
         id="stop3033"
         stop-color="#dde3e4"
         offset="0" />
      <stop
         id="stop3035"
         stop-color="#fcf7f7"
         offset="1" />
    </linearGradient>
    <clipPath
       clipPathUnits="userSpaceOnUse"
       id="clipPath3152">
      <path
         sodipodi:nodetypes="cssssssssssssc"
         inkscape:connector-curvature="0"
         id="path3154"
         d="M 62.661376,49.153178 C 51.572727,50.769288 40.727581,46.002052 29.778129,48.719834 24.677156,49.985957 23.275236,56.742068 21.065597,60.044467 7.6747803,80.057599 9.2307612,86.715586 20.227549,108.80205 c 7.845876,15.75802 -9.353664,32.13017 9.749087,46.50755 13.409289,10.0923 32.151591,8.28451 47.604568,12.17541 9.572594,2.41028 15.427743,11.71848 23.785736,15.91508 8.06026,4.0471 17.49799,4.6501 25.30719,10.24798 17.35476,12.44044 60.89085,57.90046 81.94307,46.25113 51.26446,-28.36741 22.70089,-29.62871 29.23013,-74.79019 1.67805,-11.60674 5.48276,-24.25404 9.1306,-35.13645 14.90431,-44.463223 -44.2729,-69.304759 -77.74015,-73.080401 -29.01671,-3.273547 -51.28476,0.983519 -78.231414,-5.801372 -8.475838,-2.134129 -20.932814,0.856202 -28.34499,-1.937609 z"
         style="fill:#ffffff;fill-opacity:1;stroke:#000000;stroke-width:2.86500001;stroke-linecap:butt;stroke-linejoin:miter;stroke-miterlimit:4;stroke-dasharray:none;stroke-opacity:1" />
    </clipPath>
  </defs>
  <sodipodi:namedview
     id="base"
     pagecolor="#ffffff"
     bordercolor="#666666"
     borderopacity="1.0"
     inkscape:pageopacity="0.0"
     inkscape:pageshadow="2"
     inkscape:zoom="0.24748738"
     inkscape:cx="-31.464953"
     inkscape:cy="211.14355"
     inkscape:document-units="mm"
     inkscape:current-layer="layer1"
     showgrid="false"
     units="px"
     inkscape:window-width="1920"
     inkscape:window-height="1017"
     inkscape:window-x="-8"
     inkscape:window-y="-8"
     inkscape:window-maximized="1" />
  <metadata
     id="metadata5">
    <rdf:RDF>
      <cc:Work
         rdf:about="">
        <dc:format>image/svg+xml</dc:format>
        <dc:type
           rdf:resource="http://purl.org/dc/dcmitype/StillImage" />
        <dc:title />
      </cc:Work>
    </rdf:RDF>
  </metadata>
  <g
     inkscape:label="Layer 1"
     inkscape:groupmode="layer"
     id="layer1"
     transform="translate(0,-32.41665)">
    <rect
       style="opacity:1;fill:#7d5ae2;fill-opacity:1;stroke:none;stroke-width:1.53810847;stroke-linecap:round;stroke-linejoin:round;stroke-miterlimit:4;stroke-dasharray:none;stroke-dashoffset:0;stroke-opacity:1"
       id="rect1060"
       width="264.58334"
       height="264.58334"
       x="-1.7763568e-15"
       y="32.416653" />
    <path
       style="fill:#ffcc9a;fill-opacity:1;stroke:#000000;stroke-width:2.865;stroke-linecap:butt;stroke-linejoin:miter;stroke-miterlimit:4;stroke-dasharray:none;stroke-opacity:1"
       d="m -1.0690781,183.6777 c 23.8856741,-4.77781 45.1668001,-0.58869 64.6792231,7.21628 22.861783,9.14471 39.803865,15.01939 60.402915,29.13238 20.0341,13.72593 51.61653,90.44727 34.2105,90.33709 -25.34169,-0.16042 -53.14748,3.20725 -77.508163,3.20725 -62.353941,0 -98.284482,14.33073 -89.8025607,-62.00654 2.7325944,-24.59335 1.3143294,-47.77519 8.0180856,-67.88646 z"
       id="path2926"
       inkscape:connector-curvature="0"
       sodipodi:nodetypes="csssssc" />
    <path
       style="fill:#000000;stroke:none;stroke-width:0.26458332px;stroke-linecap:butt;stroke-linejoin:miter;stroke-opacity:1;fill-opacity:1"
       d="m 130.21279,269.97468 c -19.728,0.48588 -3.79655,21.11487 5.48066,14.93006 6.7198,-4.47986 2.02221,-15.76371 -5.48066,-14.93006 z"
       id="path2930"
       inkscape:connector-curvature="0" />
    <path
       inkscape:connector-curvature="0"
       id="path2932"
       d="m 31.561005,269.97468 c -19.728,0.48588 -3.79655,21.11487 5.48066,14.93006 6.7198,-4.47986 2.02221,-15.76371 -5.48066,-14.93006 z"
       style="fill:#000000;fill-opacity:1;stroke:none;stroke-width:0.26458332px;stroke-linecap:butt;stroke-linejoin:miter;stroke-opacity:1" />
    <circle
       style="opacity:1;fill:#ffffff;fill-opacity:1;stroke:#000000;stroke-width:2.865;stroke-linecap:round;stroke-linejoin:round;stroke-miterlimit:4;stroke-dasharray:none;stroke-dashoffset:0;stroke-opacity:1"
       id="path2934"
       cx="63.743782"
       cy="219.35817"
       r="6.8153729" />
    <circle
       r="12.563357"
       cy="196.50662"
       cx="82.586288"
       id="circle2936"
       style="opacity:1;fill:#ffffff;fill-opacity:1;stroke:#000000;stroke-width:2.865;stroke-linecap:round;stroke-linejoin:round;stroke-miterlimit:4;stroke-dasharray:none;stroke-dashoffset:0;stroke-opacity:1" />
    <path
       style="fill:#ffffff;fill-opacity:1;stroke:#000000;stroke-width:2.86500001;stroke-linecap:butt;stroke-linejoin:miter;stroke-miterlimit:4;stroke-dasharray:none;stroke-opacity:1"
       d="m 62.744048,49.047603 c -11.085912,1.634778 -21.93907,-3.114191 -32.88393,-0.377976 -5.098834,1.274709 -6.489376,8.033171 -8.693452,11.339286 -13.3571009,20.035651 -11.7899119,26.691008 -0.755952,48.758927 7.872397,15.74479 -9.299552,32.14587 9.82738,46.49107 13.426262,10.0697 32.165493,8.23036 47.624999,12.09524 9.576639,2.39416 15.447454,11.69248 23.812497,15.875 8.06707,4.03353 17.5058,4.62064 25.32441,10.20536 17.37568,12.4112 60.98826,57.79785 82.02083,46.11309 51.21663,-28.45368 22.65097,-29.66689 29.10416,-74.83929 1.65851,-11.60955 5.44192,-24.26324 9.07143,-35.15178 C 262.02584,85.068275 202.80689,60.326413 169.33333,56.607127 140.31115,53.382441 118.0503,57.676994 91.09226,50.937484 82.61284,48.817629 70.160916,51.82893 62.744048,49.047603 Z"
       id="path2940"
       inkscape:connector-curvature="0"
       sodipodi:nodetypes="cssssssssssssc" />
    <text
       xml:space="preserve"
       style="font-style:normal;font-variant:normal;font-weight:normal;font-stretch:normal;font-size:14.41183758px;line-height:1.25;font-family:Spartan;-inkscape-font-specification:Spartan;letter-spacing:0px;word-spacing:0px;fill:#000000;fill-opacity:0.95454544;stroke:none;stroke-width:0.36029589;"
       x="-23.054651"
       y="40.159386"
       id="text3126"
       transform="rotate(-0.09647098)"
       clip-path="url(#clipPath3152)"><tspan
         sodipodi:role="line"
         x="-23.054651"
         y="40.159386"
         style="font-style:normal;font-variant:normal;font-weight:900;font-stretch:normal;font-family:Roboto;-inkscape-font-specification:'Roboto Heavy';fill:#000000;fill-opacity:0.95454544;stroke-width:0.36029589;"
         id="tspan3128">h2 {</tspan><tspan
         sodipodi:role="line"
         x="-23.054651"
         y="58.431534"
         style="font-style:normal;font-variant:normal;font-weight:900;font-stretch:normal;font-family:Roboto;-inkscape-font-specification:'Roboto Heavy';fill:#000000;fill-opacity:0.95454544;stroke-width:0.36029589;"
         id="tspan3132">        position: absolute;</tspan><tspan
         sodipodi:role="line"
         x="-23.054651"
         y="76.70369"
         style="font-style:normal;font-variant:normal;font-weight:900;font-stretch:normal;font-family:Roboto;-inkscape-font-specification:'Roboto Heavy';fill:#000000;fill-opacity:0.95454544;stroke-width:0.36029589;"
         id="tspan3134">        bottom: 10%;</tspan><tspan
         sodipodi:role="line"
         x="-23.054651"
         y="94.975838"
         style="font-style:normal;font-variant:normal;font-weight:900;font-stretch:normal;font-family:Roboto;-inkscape-font-specification:'Roboto Heavy';fill:#000000;fill-opacity:0.95454544;stroke-width:0.36029589;"
         id="tspan3136">        left: 50%;</tspan><tspan
         sodipodi:role="line"
         x="-23.054651"
         y="113.24799"
         style="font-style:normal;font-variant:normal;font-weight:900;font-stretch:normal;font-family:Roboto;-inkscape-font-specification:'Roboto Heavy';fill:#000000;fill-opacity:0.95454544;stroke-width:0.36029589;"
         id="tspan3138">        color: white;</tspan><tspan
         sodipodi:role="line"
         x="-23.054651"
         y="131.52014"
         style="font-style:normal;font-variant:normal;font-weight:900;font-stretch:normal;font-family:Roboto;-inkscape-font-specification:'Roboto Heavy';fill:#000000;fill-opacity:0.95454544;stroke-width:0.36029589;"
         id="tspan3140">        transform: translateX(-50%);</tspan><tspan
         sodipodi:role="line"
         x="-23.054651"
         y="149.7923"
         style="font-style:normal;font-variant:normal;font-weight:900;font-stretch:normal;font-family:Roboto;-inkscape-font-specification:'Roboto Heavy';fill:#000000;fill-opacity:0.95454544;stroke-width:0.36029589;"
         id="tspan3142">        text-align: center;</tspan><tspan
         sodipodi:role="line"
         x="-23.054651"
         y="168.06444"
         style="font-style:normal;font-variant:normal;font-weight:900;font-stretch:normal;font-family:Roboto;-inkscape-font-specification:'Roboto Heavy';fill:#000000;fill-opacity:0.95454544;stroke-width:0.36029589;"
         id="tspan3144">        font-weight: 500;</tspan><tspan
         sodipodi:role="line"
         x="-23.054651"
         y="186.33659"
         style="font-style:normal;font-variant:normal;font-weight:900;font-stretch:normal;font-family:Roboto;-inkscape-font-specification:'Roboto Heavy';fill:#000000;fill-opacity:0.95454544;stroke-width:0.36029589;"
         id="tspan3146">        background-color: black;</tspan><tspan
         sodipodi:role="line"
         x="-23.054651"
         y="204.60875"
         style="font-style:normal;font-variant:normal;font-weight:900;font-stretch:normal;font-family:Roboto;-inkscape-font-specification:'Roboto Heavy';fill:#000000;fill-opacity:0.95454544;stroke-width:0.36029589;"
         id="tspan3148">    }</tspan></text>
    <text
       xml:space="preserve"
       style="font-style:normal;font-variant:normal;font-weight:normal;font-stretch:normal;font-size:39.15473938px;line-height:1.25;font-family:Spartan;-inkscape-font-specification:Spartan;letter-spacing:0px;word-spacing:0px;fill:#000000;fill-opacity:1;stroke:none;stroke-width:0.97886842"
       x="169.40013"
       y="105.41358"
       id="text2944"><tspan
         sodipodi:role="line"
         id="tspan2942"
         x="169.40013"
         y="105.41358"
         style="font-style:normal;font-variant:normal;font-weight:900;font-stretch:normal;font-family:Roboto;-inkscape-font-specification:'Roboto Heavy';stroke-width:0.97886842">R</tspan></text>
    <g
       id="g3161"
       transform="matrix(0.76931452,0,0,0.76931452,34.457029,16.654604)">
      <path
         inkscape:connector-curvature="0"
         id="path2946"
         d="m 119.54035,74.875016 c -3.83072,-5.563416 -45.805873,1.579617 -26.19243,9.304635 5.779351,2.276277 14.18188,-1.650057 20.41199,-1.316712 3.62723,0.194077 9.75492,3.708647 13.53987,2.062716 8.09289,-3.519281 -3.61297,-9.82878 -7.75943,-10.050639 z"
         style="fill:#fd76fd;fill-opacity:1;stroke:none;stroke-width:0.26458332px;stroke-linecap:butt;stroke-linejoin:miter;stroke-opacity:1" />
      <path
         inkscape:connector-curvature="0"
         id="path2948"
         d="m 86.333008,90.227958 c -9.937235,6.815535 44.880892,12.937472 46.725052,12.135512 17.66027,-7.67976 -9.94648,-10.435308 -17.35312,-10.831604 -4.2702,-0.228479 -8.54041,-0.456958 -12.81061,-0.685438 -5.437025,-0.290911 -11.794755,-0.891427 -16.561322,-0.61847 z"
         style="fill:#1972ff;fill-opacity:1;stroke:none;stroke-width:0.26458332px;stroke-linecap:butt;stroke-linejoin:miter;stroke-opacity:1" />
      <path
         inkscape:connector-curvature="0"
         id="path2950"
         d="m 93.063307,104.50596 c -2.668735,0.23577 -6.71977,-1.33048 -8.302082,0.0911 -7.620437,6.84638 17.566765,7.91811 19.082965,8.5153 2.77553,1.09317 4.76796,5.3483 8.04505,4.71288 14.26406,-2.76582 -10.23847,-13.81104 -18.825933,-13.31928 z"
         style="fill:#ffcc9a;fill-opacity:1;stroke:none;stroke-width:0.26458332px;stroke-linecap:butt;stroke-linejoin:miter;stroke-opacity:1" />
      <path
         inkscape:connector-curvature="0"
         id="path2952"
         d="m 130.33627,109.09115 c -2.39716,-0.11344 -4.11366,1.09093 -5.71865,2.5329 -5.43682,4.88456 12.09686,9.1235 14.97159,8.46602 8.65282,-1.97901 3.62039,-13.14535 -9.25294,-10.99892 z"
         style="fill:#ffd42a;fill-opacity:1;stroke:none;stroke-width:0.26458332px;stroke-linecap:butt;stroke-linejoin:miter;stroke-opacity:1" />
      <path
         style="fill:#7d5ae2;fill-opacity:1;stroke:none;stroke-width:0.26458332px;stroke-linecap:butt;stroke-linejoin:miter;stroke-opacity:1"
         d="m 149.43034,81.618468 c -1.50603,-1.868463 -3.5461,-2.353193 -5.68991,-2.596825 -7.262,-0.825319 1.20335,15.103785 3.603,16.817857 7.22284,5.1593 12.23594,-6.015732 2.08691,-14.221032 z"
         id="path2954"
         inkscape:connector-curvature="0" />
    </g>
    <g
       id="g2992"
       transform="matrix(1.022028,0.21383927,-0.21383927,1.022028,428.2684,-944.49917)">
      <path
         id="path2982"
         transform="translate(0,1028.4)"
         d="m 8.875,19 c 0.0128,0.169 0.0312,0.327 0.0312,0.5 0,1.863 -0.7465,3.505 -1.9062,4.5 h 4 2 4 c -1.16,-0.995 -1.906,-2.637 -1.906,-4.5 0,-0.173 0.018,-0.331 0.031,-0.5 H 13 11 Z"
         inkscape:connector-curvature="0"
         style="fill:#95a5a6" />
      <path
         id="path2984"
         d="m 8.875,1047.4 c 0.0128,0.1 0.0312,0.3 0.0312,0.5 0,0.5 -0.0462,1 -0.1562,1.5 h 6.5 c -0.11,-0.5 -0.156,-1 -0.156,-1.5 0,-0.2 0.018,-0.4 0.031,-0.5 H 13 11 Z"
         inkscape:connector-curvature="0"
         style="fill:#7f8c8d" />
      <path
         id="path2986"
         d="m 1,1031.4 c -0.55228,0 -1,0.4 -1,1 v 1 2 2 2 1 1 1 2 2 1 c 0,0.5 0.44772,1 1,1 h 1 13 6 1 1 c 0.552,0 1,-0.5 1,-1 v -1 -7 -1 -1 -2 -2 -1 c 0,-0.6 -0.448,-1 -1,-1 H 22 17 16 7 3 2 Z"
         inkscape:connector-curvature="0"
         style="fill:#bdc3c7" />
      <rect
         id="rect2988"
         y="1032.4"
         x="1"
         width="22"
         height="14"
         style="fill:#34495e" />
      <path
         id="path2990"
         d="m 23,1033.4 -21,13 H 21.582 23 v -1.6 z"
         inkscape:connector-curvature="0"
         style="fill:#2c3e50" />
    </g>
    <g
       id="g3076"
       transform="matrix(0.06700027,-0.02170275,0.02170275,0.06700027,127.59589,143.44689)">
      <path
         id="path3042"
         d="M 256,0 C 114.615,0 0,114.615 0,256 0,397.385 114.615,512 256,512 397.385,512 512,397.385 512,256 512,114.615 397.385,0 256,0 Z"
         class="cls-1"
         inkscape:connector-curvature="0"
         style="fill:url(#linear-gradient)" />
      <path
         id="path3044"
         d="m 393.729,187.531 a 72.364,72.364 0 0 1 -72.365,-72.364 h -51.7 v 202.448 a 43.964,43.964 0 1 1 -31.547,-42.221 v -50.256 a 93.308,93.308 0 1 0 80.839,92.477 l 1.5,-102.332 a 123.5,123.5 0 0 0 73.267,23.946 z"
         class="cls-2"
         inkscape:connector-curvature="0"
         style="fill:url(#linear-gradient-2)" />
      <path
         id="path3046"
         d="M 380.062,173.448 A 72.364,72.364 0 0 1 307.7,101.083 H 256 v 202.448 a 43.964,43.964 0 1 1 -31.547,-42.22 v -50.257 a 93.308,93.308 0 1 0 80.839,92.477 L 306.8,201.2 a 123.5,123.5 0 0 0 73.267,23.945 z"
         class="cls-3"
         inkscape:connector-curvature="0"
         style="fill:url(#linear-gradient-3)" />
      <path
         id="path3048"
         d="m 380.062,186.237 a 72.365,72.365 0 0 1 -44.615,-28.176 72.346,72.346 0 0 1 -26.375,-42.894 h -39.405 v 202.448 a 44.015,44.015 0 0 1 -81.653,22.815 44.018,44.018 0 0 1 36.439,-79.119 V 224.328 A 93.3,93.3 0 0 0 152.217,375.169 93.3,93.3 0 0 0 305.292,303.531 L 306.8,201.2 a 123.5,123.5 0 0 0 73.267,23.945 z"
         class="cls-4"
         inkscape:connector-curvature="0"
         style="fill:url(#linear-gradient-4)" />
    </g>
    <g
       id="g3104"
       transform="matrix(0.47412764,0,0,0.47412764,-5.1838677,104.12602)">
      <path
         inkscape:connector-curvature="0"
         id="path2000"
         d="m 465.22535,217.24499 c 0.97807,7.30018 -1.2521,15.67755 0.33563,22.82229"
         style="fill:none;stroke:#000000;stroke-width:1.91458929;stroke-linecap:round;stroke-linejoin:miter;stroke-miterlimit:4;stroke-dasharray:none;stroke-opacity:1" />
      <path
         inkscape:connector-curvature="0"
         id="path2002"
         d="m 431.09739,173.5791 c 0.37297,6.08777 -1.55206,12.17007 -1.55206,18.06039 0,4.03729 -3.63993,19.78214 -0.42328,22.99878 3.84363,3.84363 39.50429,6.21387 42.32904,0.56438 3.87542,-7.75084 0.93254,-22.00461 -0.70548,-30.19471 -0.61321,-3.06603 -0.99722,-15.24322 -3.80963,-16.64942 -10.93895,-5.46949 -27.47469,3.93383 -35.83859,5.22058 z"
         style="fill:#ffd42a;fill-opacity:1;stroke:#000000;stroke-width:1.91499996;stroke-linecap:butt;stroke-linejoin:miter;stroke-miterlimit:4;stroke-dasharray:none;stroke-opacity:1" />
      <path
         inkscape:connector-curvature="0"
         id="path2004"
         d="m 452.75066,126.54301 c -9.2938,1.11663 -20.61015,5.09951 -24.83304,13.54529 -21.62863,43.25724 51.50034,60.47011 51.50034,16.22614 0,-13.9464 -13.42671,-32.82695 -26.6673,-29.77143 z"
         style="fill:#ffcc9a;fill-opacity:1;stroke:#000000;stroke-width:1.91458929;stroke-linecap:butt;stroke-linejoin:miter;stroke-miterlimit:4;stroke-dasharray:none;stroke-opacity:1" />
      <path
         style="fill:none;stroke:#000000;stroke-width:1.91458929;stroke-linecap:round;stroke-linejoin:miter;stroke-miterlimit:4;stroke-dasharray:none;stroke-opacity:1"
         d="m 436.3147,217.24499 c -0.97805,7.30018 1.2521,15.67755 -0.33561,22.82229"
         id="path2006"
         inkscape:connector-curvature="0" />
      <path
         style="fill:#000000;fill-opacity:1;stroke:#000000;stroke-width:0.64394647px;stroke-linecap:butt;stroke-linejoin:miter;stroke-opacity:1"
         d="m 433.1413,149.66608 c -1.25105,0.15796 -1.65716,1.01818 -1.95145,2.1954 -0.28775,1.15097 0.39459,1.45162 0.97572,2.03275 4.64573,4.64576 6.67735,-7.07897 0.97573,-4.22815 z"
         id="path2008"
         inkscape:connector-curvature="0" />
      <path
         inkscape:connector-curvature="0"
         id="path2010"
         d="m 469.46888,148.07529 c -1.25107,0.15794 -1.65717,1.01817 -1.95146,2.19538 -0.28775,1.15098 0.39459,1.45164 0.97571,2.03276 4.64573,4.64575 6.67736,-7.07897 0.97575,-4.22814 z"
         style="fill:#000000;fill-opacity:1;stroke:#000000;stroke-width:0.64394647px;stroke-linecap:butt;stroke-linejoin:miter;stroke-opacity:1" />
      <path
         inkscape:connector-curvature="0"
         id="path2012"
         d="m 452.02233,159.81962 c 1.26957,2.56034 3.18745,1.4755 4.6008,0.0622"
         style="fill:none;stroke:#000000;stroke-width:1.66462719;stroke-linecap:round;stroke-linejoin:miter;stroke-miterlimit:4;stroke-dasharray:none;stroke-opacity:1" />
      <path
         inkscape:connector-curvature="0"
         id="path2052"
         d="m 424.67904,140.32885 c 13.40751,0.64611 26.70092,1.6064 40.25447,1.6064 1.25452,0 22.4623,-1.72817 18.9933,-5.19717 -1.30167,-1.30167 -3.53976,-1.08292 -5.00819,-2.55134 -2.40361,-2.40362 -0.20084,-10.55387 -2.36235,-13.79613 -8.28109,-12.42165 -26.96482,-8.71765 -38.83705,-3.96875 -5.20134,2.08053 -8.25661,11.53447 -10.96131,15.59151 -0.98969,1.48454 -7.24654,5.79365 -6.52009,6.52009 0.75456,0.75456 3.24699,1.6627 4.44122,1.79539 z"
         style="fill:#ffd42a;fill-opacity:1;stroke:#000000;stroke-width:2.2650001;stroke-linecap:butt;stroke-linejoin:miter;stroke-miterlimit:4;stroke-dasharray:none;stroke-opacity:1" />
      <path
         inkscape:connector-curvature="0"
         id="path2054"
         d="m 440.99471,123.00752 c -1.30962,3.40476 -2.30514,7.99797 -4.27631,10.7576"
         style="fill:none;stroke:#000000;stroke-width:2.2650001;stroke-linecap:round;stroke-linejoin:miter;stroke-miterlimit:4;stroke-dasharray:none;stroke-opacity:1" />
      <path
         inkscape:connector-curvature="0"
         id="path2056"
         d="m 452.68776,122.80707 c -0.44765,3.8138 -2.00453,7.57102 -2.00453,11.49259"
         style="fill:none;stroke:#000000;stroke-width:2.2650001;stroke-linecap:round;stroke-linejoin:miter;stroke-miterlimit:4;stroke-dasharray:none;stroke-opacity:1" />
      <path
         inkscape:connector-curvature="0"
         id="path2058"
         d="m 463.17809,122.87389 c 0.0348,3.92692 3.45376,9.7662 6.48128,12.36121"
         style="fill:none;stroke:#000000;stroke-width:2.2650001;stroke-linecap:round;stroke-linejoin:miter;stroke-miterlimit:4;stroke-dasharray:none;stroke-opacity:1" />
      <path
         sodipodi:nodetypes="ccscsc"
         inkscape:connector-curvature="0"
         id="path2066"
         d="m 431.09739,173.5791 c 2.99957,1.56476 5.15843,3.13372 6.24386,6.39 1.23068,3.69207 -1.08697,11.52828 -5.48066,11.52828 -0.49954,0 -1.57613,-0.11147 -1.88988,-0.42523 -1.13403,-1.11424 0.24777,-6.96702 0.28348,-9.14229 0.0198,-1.20832 0.68571,-6.63053 0.8432,-8.35076 z"
         style="fill:#ffcc9a;fill-opacity:1;stroke:#000000;stroke-width:1.56500006;stroke-linecap:butt;stroke-linejoin:miter;stroke-miterlimit:4;stroke-dasharray:none;stroke-opacity:1" />
      <path
         style="fill:none;stroke:#000000;stroke-width:1.91499996;stroke-linecap:round;stroke-linejoin:miter;stroke-miterlimit:4;stroke-dasharray:none;stroke-opacity:1"
         d="m 430.46371,174.64101 c -6.8571,10.14637 -8.20889,22.83311 -8.20889,34.55376"
         id="path2060"
         inkscape:connector-curvature="0" />
      <path
         style="fill:#ffcc9a;fill-opacity:1;stroke:#000000;stroke-width:1.56500006;stroke-linecap:butt;stroke-linejoin:miter;stroke-miterlimit:4;stroke-dasharray:none;stroke-opacity:1"
         d="m 469.90516,177.65519 c -2.86803,1.79452 -4.89759,3.5275 -5.72506,6.85869 -0.9382,3.777 1.98513,11.40798 6.36536,11.0644 0.49801,-0.0391 1.56259,-0.23438 1.85084,-0.57171 0.65524,-1.13457 -1.03789,-7.35335 -0.99751,-9.09213 0.0281,-1.20816 -1.20211,-6.55661 -1.49363,-8.25925 z"
         id="path2068"
         inkscape:connector-curvature="0"
         sodipodi:nodetypes="ccscsc" />
      <path
         inkscape:connector-curvature="0"
         id="path2062"
         d="m 470.19172,178.74719 c 6.8571,10.14637 8.20889,22.83311 8.20889,34.55376"
         style="fill:none;stroke:#000000;stroke-width:1.91499996;stroke-linecap:round;stroke-linejoin:miter;stroke-miterlimit:4;stroke-dasharray:none;stroke-opacity:1" />
    </g>
  </g>
  <style
     id="style1569"
     type="text/css">
	.st0{fill:#F5F5F5;}
	.st1{fill:#EA4335;}
	.st2{fill:#FBBC05;}
	.st3{fill:#4285F4;}
	.st4{fill:#34A853;}
</style>
</svg>
