<?xml version="1.0" encoding="UTF-8" standalone="no"?>
<!-- Created with Inkscape (http://www.inkscape.org/) -->

<svg
   xmlns:dc="http://purl.org/dc/elements/1.1/"
   xmlns:cc="http://creativecommons.org/ns#"
   xmlns:rdf="http://www.w3.org/1999/02/22-rdf-syntax-ns#"
   xmlns:svg="http://www.w3.org/2000/svg"
   xmlns="http://www.w3.org/2000/svg"
   xmlns:sodipodi="http://sodipodi.sourceforge.net/DTD/sodipodi-0.dtd"
   xmlns:inkscape="http://www.inkscape.org/namespaces/inkscape"
   width="1000"
   height="1000"
   viewBox="0 0 264.58333 264.58334"
   version="1.1"
   id="svg8"
   inkscape:version="0.92.4 (5da689c313, 2019-01-14)"
   sodipodi:docname="media-category.svg">
  <defs
     id="defs2">
    <clipPath
       clipPathUnits="userSpaceOnUse"
       id="clipPath823">
      <rect
         ry="0"
         y="32.416653"
         x="0"
         height="264.58337"
         width="264.58337"
         id="rect825"
         style="opacity:1;fill:#f2f2f2;fill-opacity:1;stroke:none;stroke-width:4.01188374;stroke-linecap:round;stroke-linejoin:round;stroke-miterlimit:4;stroke-dasharray:none;stroke-dashoffset:0;stroke-opacity:1" />
    </clipPath>
    <clipPath
       clipPathUnits="userSpaceOnUse"
       id="clipPath1833">
      <rect
         y="31.709221"
         x="41.788864"
         height="192.65283"
         width="192.65283"
         id="rect1835"
         style="opacity:1;fill:#999999;fill-opacity:1;stroke:none;stroke-width:1.11995304;stroke-linecap:round;stroke-linejoin:round;stroke-miterlimit:4;stroke-dasharray:none;stroke-dashoffset:0;stroke-opacity:1" />
    </clipPath>
    <clipPath
       clipPathUnits="userSpaceOnUse"
       id="clipPath1862">
      <rect
         y="32.416653"
         x="-1.7763568e-15"
         height="264.58337"
         width="264.58337"
         id="rect1864"
         style="opacity:1;fill:#999999;fill-opacity:1;stroke:none;stroke-width:1.53810847;stroke-linecap:round;stroke-linejoin:round;stroke-miterlimit:4;stroke-dasharray:none;stroke-dashoffset:0;stroke-opacity:1" />
    </clipPath>
    <style
       id="style2200">.cls-1{fill:url(#linear-gradient);}.cls-2{fill:url(#linear-gradient-2);}.cls-3{fill:url(#linear-gradient-3);}.cls-4{fill:url(#linear-gradient-4);}</style>
    <linearGradient
       y2="1.301"
       y1="513.347"
       x2="510.699"
       x1="-1.347"
       id="linear-gradient"
       gradientUnits="userSpaceOnUse">
      <stop
         id="stop2202"
         stop-color="#111"
         offset="0" />
      <stop
         id="stop2204"
         stop-color="#323232"
         offset="1" />
    </linearGradient>
    <linearGradient
       y2="161.914"
       y1="376.967"
       x2="368.112"
       x1="153.06"
       id="linear-gradient-2"
       gradientUnits="userSpaceOnUse">
      <stop
         id="stop2207"
         stop-color="#b5053c"
         offset="0" />
      <stop
         id="stop2209"
         stop-color="#c90441"
         offset="0.233" />
      <stop
         id="stop2211"
         stop-color="#f0014b"
         offset="0.737" />
      <stop
         id="stop2213"
         stop-color="#ff004f"
         offset="1" />
    </linearGradient>
    <linearGradient
       y2="139.555"
       y1="366.084"
       x2="362.722"
       x1="136.192"
       id="linear-gradient-3"
       gradientUnits="userSpaceOnUse">
      <stop
         id="stop2216"
         stop-color="#00b2c9"
         offset="0" />
      <stop
         id="stop2218"
         stop-color="#00c8d4"
         offset="0.283" />
      <stop
         id="stop2220"
         stop-color="#00e6e4"
         offset="0.741" />
      <stop
         id="stop2222"
         stop-color="#00f1ea"
         offset="1" />
    </linearGradient>
    <linearGradient
       y2="5.448"
       y1="506.873"
       x2="510.704"
       x1="9.279"
       id="linear-gradient-4"
       gradientUnits="userSpaceOnUse">
      <stop
         id="stop2225"
         stop-color="#dde3e4"
         offset="0" />
      <stop
         id="stop2227"
         stop-color="#fcf7f7"
         offset="1" />
    </linearGradient>
  </defs>
  <sodipodi:namedview
     id="base"
     pagecolor="#ffffff"
     bordercolor="#666666"
     borderopacity="1.0"
     inkscape:pageopacity="0.0"
     inkscape:pageshadow="2"
     inkscape:zoom="0.35"
     inkscape:cx="-342.86065"
     inkscape:cy="755.92446"
     inkscape:document-units="mm"
     inkscape:current-layer="layer1"
     showgrid="false"
     units="px"
     inkscape:window-width="1920"
     inkscape:window-height="1017"
     inkscape:window-x="-8"
     inkscape:window-y="-8"
     inkscape:window-maximized="1" />
  <metadata
     id="metadata5">
    <rdf:RDF>
      <cc:Work
         rdf:about="">
        <dc:format>image/svg+xml</dc:format>
        <dc:type
           rdf:resource="http://purl.org/dc/dcmitype/StillImage" />
        <dc:title></dc:title>
      </cc:Work>
    </rdf:RDF>
  </metadata>
  <g
     inkscape:label="Layer 1"
     inkscape:groupmode="layer"
     id="layer1"
     transform="translate(0,-32.41665)">
    <rect
       style="opacity:1;fill:#ffffff;fill-opacity:1;stroke:none;stroke-width:1.53810847;stroke-linecap:round;stroke-linejoin:round;stroke-miterlimit:4;stroke-dasharray:none;stroke-dashoffset:0;stroke-opacity:1"
       id="rect2332"
       width="264.58334"
       height="264.58334"
       x="-1.7763568e-15"
       y="32.416653" />
    <path
       style="opacity:1;fill:#ede8fb;fill-opacity:1;stroke:none;stroke-width:1.53810847;stroke-linecap:round;stroke-linejoin:round;stroke-miterlimit:4;stroke-dasharray:none;stroke-dashoffset:0;stroke-opacity:1"
       d="M 0,32.416653 63.877976,50.181534 264.58334,32.416653 V 297 L 52.538691,266.00595 0,297 Z"
       id="rect2329"
       inkscape:connector-curvature="0"
       sodipodi:nodetypes="ccccccc" />
    <path
       style="opacity:1;fill:#fffce4;fill-opacity:1;stroke:none;stroke-width:1.53810847;stroke-linecap:round;stroke-linejoin:round;stroke-miterlimit:4;stroke-dasharray:none;stroke-dashoffset:0;stroke-opacity:1"
       d="M 26.080357,157.90475 139.85119,32.416653 H 264.58334 V 297 L 207.13095,231.9881 0,297 Z"
       id="rect1060"
       inkscape:connector-curvature="0"
       sodipodi:nodetypes="ccccccc" />
    <path
       style="fill:none;stroke:#000000;stroke-width:1.99319112;stroke-linecap:round;stroke-linejoin:miter;stroke-miterlimit:4;stroke-dasharray:none;stroke-opacity:1"
       d="m 150.31586,242.36889 c 1.01822,7.59988 -1.30351,16.32118 0.34941,23.75924"
       id="path2000"
       inkscape:connector-curvature="0" />
    <path
       style="fill:#ffcc9a;fill-opacity:1;stroke:#000000;stroke-width:1.99361861;stroke-linecap:butt;stroke-linejoin:miter;stroke-miterlimit:4;stroke-dasharray:none;stroke-opacity:1"
       d="m 114.7868,196.91033 c 0.38829,6.3377 -1.61577,12.66971 -1.61577,18.80185 0,4.20303 -3.78937,20.59428 -0.44066,23.94297 4.00142,4.00143 41.1261,6.46898 44.06682,0.58755 4.03452,-8.06904 0.97082,-22.90799 -0.73444,-31.43433 -0.63839,-3.1919 -1.03816,-15.86901 -3.96603,-17.33294 -11.38804,-5.69404 -28.60264,4.09533 -37.30992,5.4349 z"
       id="path2002"
       inkscape:connector-curvature="0" />
    <path
       style="fill:#ffcc9a;fill-opacity:1;stroke:#000000;stroke-width:1.99319112;stroke-linecap:butt;stroke-linejoin:miter;stroke-miterlimit:4;stroke-dasharray:none;stroke-opacity:1"
       d="m 137.32903,147.94322 c -9.67535,1.16247 -21.45628,5.30886 -25.85254,14.10138 -22.516573,45.03313 53.61464,62.95266 53.61464,16.89229 0,-14.51896 -13.97793,-34.17463 -27.7621,-30.99367 z"
       id="path2004"
       inkscape:connector-curvature="0" />
    <path
       inkscape:connector-curvature="0"
       id="path2006"
       d="m 120.21831,242.36889 c -1.01821,7.59988 1.3035,16.32118 -0.34939,23.75924"
       style="fill:none;stroke:#000000;stroke-width:1.99319112;stroke-linecap:round;stroke-linejoin:miter;stroke-miterlimit:4;stroke-dasharray:none;stroke-opacity:1" />
    <path
       inkscape:connector-curvature="0"
       id="path2008"
       d="m 116.91462,163.9975 c -1.30241,0.16444 -1.72519,1.05998 -2.03156,2.28553 -0.29956,1.19822 0.41079,1.51121 1.01578,2.1162 4.83645,4.83649 6.95148,-7.36959 1.01578,-4.40173 z"
       style="fill:#000000;fill-opacity:1;stroke:#000000;stroke-width:0.67038316px;stroke-linecap:butt;stroke-linejoin:miter;stroke-opacity:1" />
    <path
       style="fill:#000000;fill-opacity:1;stroke:#000000;stroke-width:0.67038316px;stroke-linecap:butt;stroke-linejoin:miter;stroke-opacity:1"
       d="m 150.32365,159.00054 c -1.30243,0.16442 -1.7252,1.05997 -2.03157,2.28551 -0.29957,1.19823 0.41079,1.51123 1.01576,2.11621 4.83646,4.83648 6.9515,-7.36959 1.01581,-4.40172 z"
       id="path2010"
       inkscape:connector-curvature="0" />
    <path
       id="path2101"
       style="clip-rule:evenodd;fill:#3a589b;fill-rule:evenodd;stroke-width:0.54428345"
       d="m 225.14562,91.183379 h 3.67064 v -8.88379 h 2.44873 l 0.32438,-3.06105 h -2.77311 l 0.004,-1.5327 c 0,-0.79793 0.0761,-1.22628 1.22136,-1.22628 h 1.53052 v -3.0616 h -2.44926 c -2.94187,0 -3.97708,1.48536 -3.97708,3.98254 v 1.83804 h -1.83369 v 3.06159 h 1.83369 z m 2.30503,7.4458 c -9.0177,0 -16.3285,-7.31081 -16.3285,-16.3285 0,-9.01824 7.3108,-16.32851 16.3285,-16.32851 9.01767,0 16.3285,7.31027 16.3285,16.32851 0,9.01769 -7.31083,16.3285 -16.3285,16.3285 z"
       inkscape:connector-curvature="0" />
    <g
       id="g2119"
       transform="matrix(0.032657,0,0,0.032657,115.87214,65.972174)">
      <path
         id="path2115"
         d="m 500,1000 v 0 C 223.9,1000 0,776.1 0,500 v 0 C 0,223.9 223.9,0 500,0 v 0 c 276.1,0 500,223.9 500,500 v 0 c 0,276.1 -223.9,500 -500,500 z"
         class="st0"
         inkscape:connector-curvature="0"
         style="fill:#ff0000" />
      <path
         id="path2117"
         d="M 818.2,339.1 C 810.6,310.3 788.1,287.7 759.5,280 707.7,266 500.1,266 500.1,266 c 0,0 -207.7,0 -259.4,14 -28.6,7.7 -51.1,30.3 -58.7,59.1 -14,52.1 -14,160.9 -14,160.9 0,0 0,108.8 13.9,160.9 7.6,28.8 30.1,51.4 58.7,59.1 51.8,14 259.4,14 259.4,14 0,0 207.7,0 259.4,-14 28.6,-7.7 51.1,-30.3 58.7,-59.1 C 832,608.8 832,500 832,500 c 0,0 0,-108.8 -13.8,-160.9 z M 432.1,598.7 V 401.3 L 605.6,500 Z"
         class="st1"
         inkscape:connector-curvature="0"
         style="fill:#ffffff" />
    </g>
    <path
       id="path2132"
       style="clip-rule:evenodd;fill:#007ab9;fill-rule:evenodd;stroke-width:0.54428333"
       d="m 188.98974,89.995194 v -6.37464 c 0,-3.41538 -1.82334,-5.00468 -4.25411,-5.00468 -1.9616,0 -2.84062,1.07932 -3.33048,1.8364 v -1.57515 h -3.69568 c 0.049,1.04338 0,11.11807 0,11.11807 h 3.69568 v -6.20919 c 0,-0.33146 0.0239,-0.66346 0.12199,-0.90077 0.26668,-0.66403 0.87465,-1.35146 1.89519,-1.35146 1.33784,0 1.87232,1.01943 1.87232,2.51349 v 5.94849 h 3.69515 z M 173.8162,77.359664 c 1.28832,0 2.09113,-0.85453 2.09113,-1.92186 -0.0239,-1.0902 -0.80281,-1.92023 -2.06663,-1.92023 -1.26382,0 -2.09059,0.82948 -2.09059,1.92023 0,1.06733 0.80227,1.92186 2.0427,1.92186 z m 6.00944,21.26951 c -9.01769,0 -16.3285,-7.31083 -16.3285,-16.3285 0,-9.01823 7.31081,-16.3285 16.3285,-16.3285 9.01769,0 16.3285,7.31027 16.3285,16.3285 0,9.01767 -7.31081,16.3285 -16.3285,16.3285 z m -4.16158,-8.63398 v -11.11807 h -3.69515 v 11.11807 z"
       inkscape:connector-curvature="0" />
    <g
       id="g2268"
       transform="matrix(0.0637832,0,0,0.0637832,20.622149,65.972175)">
      <path
         id="path2234"
         d="M 256,0 C 114.615,0 0,114.615 0,256 0,397.385 114.615,512 256,512 397.385,512 512,397.385 512,256 512,114.615 397.385,0 256,0 Z"
         class="cls-1"
         inkscape:connector-curvature="0"
         style="fill:url(#linear-gradient)" />
      <path
         id="path2236"
         d="m 393.729,187.531 a 72.364,72.364 0 0 1 -72.365,-72.364 h -51.7 v 202.448 a 43.964,43.964 0 1 1 -31.547,-42.221 v -50.256 a 93.308,93.308 0 1 0 80.839,92.477 l 1.5,-102.332 a 123.5,123.5 0 0 0 73.267,23.946 z"
         class="cls-2"
         inkscape:connector-curvature="0"
         style="fill:url(#linear-gradient-2)" />
      <path
         id="path2238"
         d="M 380.062,173.448 A 72.364,72.364 0 0 1 307.7,101.083 H 256 v 202.448 a 43.964,43.964 0 1 1 -31.547,-42.22 v -50.257 a 93.308,93.308 0 1 0 80.839,92.477 L 306.8,201.2 a 123.5,123.5 0 0 0 73.267,23.945 z"
         class="cls-3"
         inkscape:connector-curvature="0"
         style="fill:url(#linear-gradient-3)" />
      <path
         id="path2240"
         d="m 380.062,186.237 a 72.365,72.365 0 0 1 -44.615,-28.176 72.346,72.346 0 0 1 -26.375,-42.894 h -39.405 v 202.448 a 44.015,44.015 0 0 1 -81.653,22.815 44.018,44.018 0 0 1 36.439,-79.119 V 224.328 A 93.3,93.3 0 0 0 152.217,375.169 93.3,93.3 0 0 0 305.292,303.531 L 306.8,201.2 a 123.5,123.5 0 0 0 73.267,23.945 z"
         class="cls-4"
         inkscape:connector-curvature="0"
         style="fill:url(#linear-gradient-4)" />
    </g>
    <g
       id="g2289"
       transform="matrix(1.0205357,0,0,1.0205357,68.247074,65.972103)">
      <linearGradient
         y2="32"
         y1="32"
         x2="1"
         x1="-1.206969e-06"
         id="SVGID_1_"
         gradientUnits="userSpaceOnUse"
         gradientTransform="matrix(16.0027,-27.7174,27.7174,16.0027,-878.9595,-482.2268)">
        <stop
           id="stop2272"
           style="stop-color:#FEC053"
           offset="0" />
        <stop
           id="stop2274"
           style="stop-color:#F2203E"
           offset="0.327" />
        <stop
           id="stop2276"
           style="stop-color:#B729A8"
           offset="0.648" />
        <stop
           id="stop2278"
           style="stop-color:#5342D6"
           offset="1" />
      </linearGradient>
      <path
         id="path2281"
         d="M 16,0 V 0 C 24.8,0 32,7.2 32,16 32,24.8 24.8,32 16,32 7.2,32 0,24.8 0,16 0,7.2 7.2,0 16,0 Z"
         class="st0"
         inkscape:connector-curvature="0"
         style="fill:url(#SVGID_1_)" />
      <path
         id="path2283"
         d="M 20.7,6 H 11.2 C 8.3,6 6,8.4 6,11.4 v 9.2 c 0,2.9 2.3,5.3 5.3,5.4 h 9.5 c 2.9,0 5.3,-2.4 5.3,-5.4 V 11.4 C 26,8.4 23.7,6 20.7,6 Z m 3.5,14.5 c 0,2 -1.6,3.7 -3.7,3.7 h -9.1 c -2,0 -3.7,-1.7 -3.6,-3.7 v -9 c 0,-2 1.6,-3.7 3.6,-3.7 h 9.1 c 2,0 3.7,1.7 3.7,3.7 z"
         class="st1"
         inkscape:connector-curvature="0"
         style="fill:#ffffff" />
      <path
         id="path2285"
         d="m 16,10.9 c -2.8,-0.1 -5.2,2.2 -5.2,5 -0.1,2.8 2.2,5.2 5,5.2 2.8,0 5.2,-2.2 5.2,-5 V 16 c 0.1,-2.8 -2.2,-5.1 -5,-5.1 z m 0,8.4 c -1.8,0 -3.3,-1.4 -3.4,-3.2 0,-1.8 1.4,-3.3 3.2,-3.4 1.8,-0.1 3.3,1.4 3.4,3.2 V 16 c 0.1,1.8 -1.4,3.3 -3.2,3.3 z"
         class="st1"
         inkscape:connector-curvature="0"
         style="fill:#ffffff" />
      <path
         id="path2287"
         d="m 21.3,9.4 c 0.6,0 1.1,0.5 1.1,1.2 0,0.7 -0.5,1.2 -1.1,1.2 -0.6,0 -1.1,-0.5 -1.1,-1.2 0,-0.7 0.5,-1.2 1.1,-1.2 z"
         class="st1"
         inkscape:connector-curvature="0"
         style="fill:#ffffff" />
    </g>
    <path
       style="fill:none;stroke:#000000;stroke-width:2;stroke-linecap:butt;stroke-linejoin:miter;stroke-miterlimit:4;stroke-dasharray:12, 4;stroke-dashoffset:0;stroke-opacity:1"
       d="m 38.175594,108.76784 c 0,0 21.544644,59.34226 57.074405,60.09822"
       id="path2311"
       inkscape:connector-curvature="0" />
    <path
       style="fill:none;stroke:#ac2cad;stroke-width:2;stroke-linecap:butt;stroke-linejoin:miter;stroke-miterlimit:4;stroke-dasharray:12, 4;stroke-dashoffset:0;stroke-opacity:1"
       d="m 86.556547,105.36606 c 0,0 4.130875,25.36436 19.627893,39.72745"
       id="path2313"
       inkscape:connector-curvature="0"
       sodipodi:nodetypes="cc" />
    <path
       style="fill:none;stroke:#ff0000;stroke-width:2;stroke-linecap:butt;stroke-linejoin:miter;stroke-miterlimit:4;stroke-dasharray:12, 4;stroke-dashoffset:0;stroke-opacity:1"
       d="m 131.91369,106.87796 c 0,0 3.73587,27.65318 2.97992,30.29901"
       id="path2315"
       inkscape:connector-curvature="0"
       sodipodi:nodetypes="cc" />
    <path
       inkscape:connector-curvature="0"
       id="path2317"
       d="m 179.62476,105.36606 c 0,0 -4.5986,25.69845 -20.09562,40.06154"
       style="fill:none;stroke:#007ab9;stroke-width:2;stroke-linecap:butt;stroke-linejoin:miter;stroke-miterlimit:4;stroke-dasharray:12, 4;stroke-dashoffset:0;stroke-opacity:1"
       sodipodi:nodetypes="cc" />
    <path
       inkscape:connector-curvature="0"
       id="path2319"
       d="m 225.29337,108.76784 c 0,0 -21.54465,59.34226 -57.07441,60.09822"
       style="fill:none;stroke:#3a589b;stroke-width:2;stroke-linecap:butt;stroke-linejoin:miter;stroke-miterlimit:4;stroke-dasharray:12, 4;stroke-dashoffset:0;stroke-opacity:1" />
    <path
       inkscape:connector-curvature="0"
       id="path2321"
       d="m 77.517355,188.71449 c 10.476684,7.26458 23.666465,8.82992 35.867415,8.97603"
       style="fill:none;stroke:#000000;stroke-width:1.99361861;stroke-linecap:round;stroke-linejoin:miter;stroke-miterlimit:4;stroke-dasharray:none;stroke-opacity:1" />
    <path
       style="fill:none;stroke:#000000;stroke-width:1.99361861;stroke-linecap:round;stroke-linejoin:miter;stroke-miterlimit:4;stroke-dasharray:none;stroke-opacity:1"
       d="m 191.00181,191.96698 c -10.43379,7.32606 -23.61414,8.96893 -35.81402,9.18678"
       id="path2323"
       inkscape:connector-curvature="0" />
    <path
       style="fill:#000000;fill-opacity:1;stroke:#000000;stroke-width:0.18742572px;stroke-linecap:butt;stroke-linejoin:miter;stroke-opacity:1"
       d="m 121.96592,211.79724 c -0.36413,0.046 -0.48233,0.29635 -0.56799,0.63899 -0.0838,0.335 0.11485,0.42251 0.28399,0.59165 1.35218,1.35219 1.9435,-2.06039 0.284,-1.23064 z"
       id="path2335"
       inkscape:connector-curvature="0" />
    <path
       inkscape:connector-curvature="0"
       id="path2337"
       d="m 148.32976,211.79724 c -0.36413,0.046 -0.48233,0.29635 -0.56799,0.63899 -0.0838,0.335 0.11485,0.42251 0.28399,0.59165 1.35218,1.35219 1.9435,-2.06039 0.284,-1.23064 z"
       style="fill:#000000;fill-opacity:1;stroke:#000000;stroke-width:0.18742572px;stroke-linecap:butt;stroke-linejoin:miter;stroke-opacity:1" />
    <rect
       style="opacity:1;fill:#000000;fill-opacity:1;stroke:none;stroke-width:2;stroke-linecap:round;stroke-linejoin:round;stroke-miterlimit:4;stroke-dasharray:11.99999985, 3.99999994999999986;stroke-dashoffset:0;stroke-opacity:1"
       id="rect2339"
       width="61.739262"
       height="16.30344"
       x="105.30419"
       y="233.12256" />
  </g>
  <style
     id="style1569"
     type="text/css">
	.st0{fill:#F5F5F5;}
	.st1{fill:#EA4335;}
	.st2{fill:#FBBC05;}
	.st3{fill:#4285F4;}
	.st4{fill:#34A853;}
</style>
  <style
     id="style2111"
     type="text/css">
	.st0{fill:#FF0000;}
	.st1{fill:#FFFFFF;}
</style>
  <style
     id="style2142"
     type="text/css">
	.st0{fill:url(#SVGID_1_);}
	.st1{fill:#FFFFFF;}
</style>
  <style
     id="style2270"
     type="text/css">
	.st0{fill:url(#SVGID_1_);}
	.st1{fill:#FFFFFF;}
</style>
</svg>
