<?xml version="1.0" encoding="UTF-8" standalone="no"?>
<!-- Created with Inkscape (http://www.inkscape.org/) -->

<svg
   xmlns:dc="http://purl.org/dc/elements/1.1/"
   xmlns:cc="http://creativecommons.org/ns#"
   xmlns:rdf="http://www.w3.org/1999/02/22-rdf-syntax-ns#"
   xmlns:svg="http://www.w3.org/2000/svg"
   xmlns="http://www.w3.org/2000/svg"
   xmlns:sodipodi="http://sodipodi.sourceforge.net/DTD/sodipodi-0.dtd"
   xmlns:inkscape="http://www.inkscape.org/namespaces/inkscape"
   width="1000"
   height="1000"
   viewBox="0 0 264.58333 264.58334"
   version="1.1"
   id="svg8"
   inkscape:version="0.92.4 (5da689c313, 2019-01-14)"
   sodipodi:docname="websites-category.svg">
  <defs
     id="defs2">
    <clipPath
       clipPathUnits="userSpaceOnUse"
       id="clipPath823">
      <rect
         ry="0"
         y="32.416653"
         x="0"
         height="264.58337"
         width="264.58337"
         id="rect825"
         style="opacity:1;fill:#f2f2f2;fill-opacity:1;stroke:none;stroke-width:4.01188374;stroke-linecap:round;stroke-linejoin:round;stroke-miterlimit:4;stroke-dasharray:none;stroke-dashoffset:0;stroke-opacity:1" />
    </clipPath>
  </defs>
  <sodipodi:namedview
     id="base"
     pagecolor="#ffffff"
     bordercolor="#666666"
     borderopacity="1.0"
     inkscape:pageopacity="0.0"
     inkscape:pageshadow="2"
     inkscape:zoom="0.35"
     inkscape:cx="-361.50429"
     inkscape:cy="467.12229"
     inkscape:document-units="mm"
     inkscape:current-layer="layer1"
     showgrid="false"
     units="px"
     inkscape:window-width="1920"
     inkscape:window-height="1017"
     inkscape:window-x="-8"
     inkscape:window-y="-8"
     inkscape:window-maximized="1" />
  <metadata
     id="metadata5">
    <rdf:RDF>
      <cc:Work
         rdf:about="">
        <dc:format>image/svg+xml</dc:format>
        <dc:type
           rdf:resource="http://purl.org/dc/dcmitype/StillImage" />
        <dc:title></dc:title>
      </cc:Work>
    </rdf:RDF>
  </metadata>
  <g
     inkscape:label="Layer 1"
     inkscape:groupmode="layer"
     id="layer1"
     transform="translate(0,-32.41665)">
    <rect
       style="opacity:1;fill:#1972ff;fill-opacity:1;stroke:none;stroke-width:1.53810847;stroke-linecap:round;stroke-linejoin:round;stroke-miterlimit:4;stroke-dasharray:none;stroke-dashoffset:0;stroke-opacity:1"
       id="rect1060"
       width="264.58334"
       height="264.58334"
       x="-1.7763568e-15"
       y="32.416653" />
    <g
       id="g1313"
       transform="translate(-9.0714286,-15.875)">
      <rect
         y="70.592262"
         x="28.726198"
         height="87.690468"
         width="70.414062"
         id="rect1246"
         style="opacity:1;fill:#ffffff;fill-opacity:1;stroke:none;stroke-width:0.6430456;stroke-linecap:round;stroke-linejoin:round;stroke-miterlimit:4;stroke-dasharray:none;stroke-dashoffset:0;stroke-opacity:1" />
      <rect
         style="opacity:1;fill:#75abff;fill-opacity:1;stroke:none;stroke-width:0.30931512;stroke-linecap:round;stroke-linejoin:round;stroke-miterlimit:4;stroke-dasharray:none;stroke-dashoffset:0;stroke-opacity:1"
         id="rect1252"
         width="32.58445"
         height="43.845001"
         x="131.7247"
         y="114.43773" />
      <rect
         y="70.592728"
         x="99.140259"
         height="43.845001"
         width="32.58445"
         id="rect1254"
         style="opacity:1;fill:#75abff;fill-opacity:1;stroke:none;stroke-width:0.30931512;stroke-linecap:round;stroke-linejoin:round;stroke-miterlimit:4;stroke-dasharray:none;stroke-dashoffset:0;stroke-opacity:1" />
      <rect
         style="opacity:1;fill:#4a91ff;fill-opacity:1;stroke:none;stroke-width:0.30931512;stroke-linecap:round;stroke-linejoin:round;stroke-miterlimit:4;stroke-dasharray:none;stroke-dashoffset:0;stroke-opacity:1"
         id="rect1256"
         width="32.58445"
         height="43.845001"
         x="131.7247"
         y="70.592728" />
      <rect
         y="114.43773"
         x="99.140259"
         height="43.845001"
         width="32.58445"
         id="rect1258"
         style="opacity:1;fill:#4a91ff;fill-opacity:1;stroke:none;stroke-width:0.30931512;stroke-linecap:round;stroke-linejoin:round;stroke-miterlimit:4;stroke-dasharray:none;stroke-dashoffset:0;stroke-opacity:1" />
      <text
         id="text1262"
         y="120.27197"
         x="50.187813"
         style="font-style:normal;font-variant:normal;font-weight:normal;font-stretch:normal;font-size:6.36198616px;line-height:1.25;font-family:Spartan;-inkscape-font-specification:Spartan;letter-spacing:0px;word-spacing:0px;fill:#000000;fill-opacity:1;stroke:none;stroke-width:0.15904965"
         xml:space="preserve"><tspan
           style="font-style:normal;font-variant:normal;font-weight:900;font-stretch:normal;font-family:Roboto;-inkscape-font-specification:'Roboto Heavy';stroke-width:0.15904965"
           y="120.27197"
           x="50.187813"
           id="tspan1260"
           sodipodi:role="line">Reinards</tspan></text>
      <rect
         y="108.60452"
         x="50.428802"
         height="2.7395127"
         width="17.706606"
         id="rect1264"
         style="opacity:1;fill:#4a91ff;fill-opacity:1;stroke:none;stroke-width:1;stroke-linecap:round;stroke-linejoin:round;stroke-miterlimit:4;stroke-dasharray:none;stroke-dashoffset:0;stroke-opacity:1" />
    </g>
    <g
       id="g1361"
       transform="translate(2.6726953,5.6126601)">
      <rect
         y="63.469986"
         x="170.33755"
         height="30.875463"
         width="1.330839"
         id="rect1315"
         style="opacity:1;fill:#ffffff;fill-opacity:1;stroke:none;stroke-width:0.35209599;stroke-linecap:round;stroke-linejoin:round;stroke-miterlimit:4;stroke-dasharray:none;stroke-dashoffset:0;stroke-opacity:1" />
      <path
         inkscape:connector-curvature="0"
         id="path1333"
         d="m 174.82399,88.93771 4.56407,-5.3169 4.65817,-7.85773 4.75228,12.61001 4.70523,-17.26819 5.17574,-5.59922"
         style="opacity:0.39100001;fill:none;stroke:#ffffff;stroke-width:1.00875509;stroke-linecap:butt;stroke-linejoin:miter;stroke-miterlimit:4;stroke-dasharray:none;stroke-opacity:1" />
      <g
         transform="matrix(0.35209601,0,0,0.35209601,111.11522,43.938102)"
         id="g1341">
        <rect
           y="126.29962"
           x="177.28658"
           height="16.864042"
           width="7.2542658"
           id="rect1321"
           style="opacity:1;fill:#fd76fd;fill-opacity:1;stroke:none;stroke-width:0.60753202;stroke-linecap:round;stroke-linejoin:round;stroke-miterlimit:4;stroke-dasharray:none;stroke-dashoffset:0;stroke-opacity:1" />
        <rect
           style="opacity:1;fill:#fd76fd;fill-opacity:1;stroke:none;stroke-width:0.83294296;stroke-linecap:round;stroke-linejoin:round;stroke-miterlimit:4;stroke-dasharray:none;stroke-dashoffset:0;stroke-opacity:1"
           id="rect1323"
           width="7.2542658"
           height="31.699608"
           x="190.81798"
           y="111.46406" />
        <rect
           y="89.257957"
           x="204.34938"
           height="53.905708"
           width="7.2542658"
           id="rect1325"
           style="opacity:1;fill:#fd76fd;fill-opacity:1;stroke:none;stroke-width:1.08618975;stroke-linecap:round;stroke-linejoin:round;stroke-miterlimit:4;stroke-dasharray:none;stroke-dashoffset:0;stroke-opacity:1" />
        <rect
           style="opacity:1;fill:#fd76fd;fill-opacity:1;stroke:none;stroke-width:0.64076978;stroke-linecap:round;stroke-linejoin:round;stroke-miterlimit:4;stroke-dasharray:none;stroke-dashoffset:0;stroke-opacity:1"
           id="rect1327"
           width="7.2542658"
           height="18.759766"
           x="217.88078"
           y="124.4039" />
        <rect
           y="75.760849"
           x="231.41217"
           height="67.402817"
           width="7.2542658"
           id="rect1329"
           style="opacity:1;fill:#fd76fd;fill-opacity:1;stroke:none;stroke-width:1.2145834;stroke-linecap:round;stroke-linejoin:round;stroke-miterlimit:4;stroke-dasharray:none;stroke-dashoffset:0;stroke-opacity:1" />
        <rect
           style="opacity:1;fill:#fd76fd;fill-opacity:1;stroke:none;stroke-width:1.35136557;stroke-linecap:round;stroke-linejoin:round;stroke-miterlimit:4;stroke-dasharray:none;stroke-dashoffset:0;stroke-opacity:1"
           id="rect1331"
           width="7.2542658"
           height="83.438988"
           x="244.94357"
           y="59.724678" />
      </g>
      <rect
         transform="rotate(90)"
         style="opacity:1;fill:#ffffff;fill-opacity:1;stroke:none;stroke-width:0.35209599;stroke-linecap:round;stroke-linejoin:round;stroke-miterlimit:4;stroke-dasharray:none;stroke-dashoffset:0;stroke-opacity:1"
         id="rect1317"
         width="1.330839"
         height="30.875463"
         x="93.014626"
         y="-201.21301" />
    </g>
    <text
       xml:space="preserve"
       style="font-style:normal;font-variant:normal;font-weight:normal;font-stretch:normal;font-size:15.77587605px;line-height:1.25;font-family:Spartan;-inkscape-font-specification:Spartan;letter-spacing:0px;word-spacing:0px;fill:#000000;fill-opacity:1;stroke:none;stroke-width:0.3943969"
       x="172.26105"
       y="123.64886"
       id="text1365"><tspan
         sodipodi:role="line"
         id="tspan1363"
         x="172.26105"
         y="123.64886"
         style="font-style:normal;font-variant:normal;font-weight:normal;font-stretch:normal;font-family:Roboto;-inkscape-font-specification:Roboto;fill:#ffffff;stroke-width:0.3943969">y=a(1+r)x</tspan></text>
    <text
       xml:space="preserve"
       style="font-style:normal;font-variant:normal;font-weight:normal;font-stretch:normal;font-size:12.01882935px;line-height:1.25;font-family:Spartan;-inkscape-font-specification:Spartan;letter-spacing:0px;word-spacing:0px;fill:#000000;fill-opacity:1;stroke:none;stroke-width:0.30047071"
       x="24.187216"
       y="181.14444"
       id="text1399"><tspan
         sodipodi:role="line"
         x="24.187216"
         y="181.14444"
         style="font-style:normal;font-variant:normal;font-weight:normal;font-stretch:normal;font-family:Ubuntu;-inkscape-font-specification:Ubuntu;fill:#ffffff;stroke-width:0.30047071"
         id="tspan1427">constructor (props)</tspan><tspan
         sodipodi:role="line"
         x="24.187216"
         y="196.64435"
         style="font-style:normal;font-variant:normal;font-weight:normal;font-stretch:normal;font-family:Ubuntu;-inkscape-font-specification:Ubuntu;fill:#ffffff;stroke-width:0.30047071"
         id="tspan1567">{</tspan><tspan
         sodipodi:role="line"
         x="24.187216"
         y="212.14424"
         style="font-style:normal;font-variant:normal;font-weight:normal;font-stretch:normal;font-family:Ubuntu;-inkscape-font-specification:Ubuntu;fill:#ffffff;stroke-width:0.30047071"
         id="tspan1557">        super(props);</tspan><tspan
         sodipodi:role="line"
         x="24.187216"
         y="227.64415"
         style="font-style:normal;font-variant:normal;font-weight:normal;font-stretch:normal;font-family:Ubuntu;-inkscape-font-specification:Ubuntu;fill:#ffffff;stroke-width:0.30047071"
         id="tspan1559">        this.state = {</tspan><tspan
         sodipodi:role="line"
         x="24.187216"
         y="243.14406"
         style="font-style:normal;font-variant:normal;font-weight:normal;font-stretch:normal;font-family:Ubuntu;-inkscape-font-specification:Ubuntu;fill:#ffffff;stroke-width:0.30047071"
         id="tspan1561">            open: false</tspan><tspan
         sodipodi:role="line"
         x="24.187216"
         y="258.64395"
         style="font-style:normal;font-variant:normal;font-weight:normal;font-stretch:normal;font-family:Ubuntu;-inkscape-font-specification:Ubuntu;fill:#ffffff;stroke-width:0.30047071"
         id="tspan1563">        }</tspan><tspan
         sodipodi:role="line"
         x="24.187216"
         y="274.14386"
         style="font-style:normal;font-variant:normal;font-weight:normal;font-stretch:normal;font-family:Ubuntu;-inkscape-font-specification:Ubuntu;fill:#ffffff;stroke-width:0.30047071"
         id="tspan1565">}</tspan></text>
    <g
       id="g1436"
       transform="translate(-11.759859)">
      <path
         inkscape:connector-curvature="0"
         id="path1393"
         d="m 189.76136,268.26851 c -1.1683,8.72013 1.49565,18.72701 -0.4009,27.26149"
         style="fill:none;stroke:#000000;stroke-width:2.28699994;stroke-linecap:round;stroke-linejoin:miter;stroke-miterlimit:4;stroke-dasharray:none;stroke-opacity:1" />
      <path
         inkscape:connector-curvature="0"
         id="path866"
         d="m 230.52762,216.10905 c -0.44551,7.27193 1.85396,14.53731 1.85396,21.57336 0,4.8226 4.34794,23.63001 0.50562,27.47232 -4.59127,4.59127 -47.18836,7.42256 -50.56255,0.67417 -4.62924,-9.25847 -1.11393,-26.28478 0.8427,-36.06795 0.73249,-3.66241 1.1912,-18.20823 4.55064,-19.88795 13.06672,-6.53336 32.81885,4.69901 42.80963,6.23605 z"
         style="fill:#fd76fd;fill-opacity:1;stroke:#000000;stroke-width:2.287498;stroke-linecap:butt;stroke-linejoin:miter;stroke-miterlimit:4;stroke-dasharray:none;stroke-opacity:1" />
      <path
         inkscape:connector-curvature="0"
         id="path854"
         d="m 204.66253,159.92388 c 11.10157,1.33383 24.61908,6.09142 29.66337,16.18001 25.83566,51.67131 -61.51778,72.2323 -61.51778,19.38232 0,-16.65916 16.03837,-39.21219 31.85441,-35.56233 z"
         style="fill:#ffcc9a;fill-opacity:1;stroke:#000000;stroke-width:2.28699994;stroke-linecap:butt;stroke-linejoin:miter;stroke-miterlimit:4;stroke-dasharray:none;stroke-opacity:1" />
      <path
         inkscape:connector-curvature="0"
         id="path1379"
         d="m 232.12358,229.11352 c 12.65824,-21.11494 46.1095,-42.8213 3.0736,-52.38483"
         style="fill:none;stroke:#000000;stroke-width:2.28699994;stroke-linecap:round;stroke-linejoin:miter;stroke-miterlimit:4;stroke-dasharray:none;stroke-opacity:1" />
      <path
         inkscape:connector-curvature="0"
         id="path1383"
         d="m 183.88143,224.30267 c -30.16868,2.48343 -20.55364,12.61139 -4.81085,22.45064"
         style="fill:none;stroke:#000000;stroke-width:2.28699994;stroke-linecap:round;stroke-linejoin:miter;stroke-miterlimit:4;stroke-dasharray:none;stroke-opacity:1" />
      <path
         sodipodi:nodetypes="csc"
         inkscape:connector-curvature="0"
         id="path1389"
         d="m 180.63744,181.11024 c -6.79521,2.60614 -0.41835,11.98149 1.81693,4.80925 1.6368,-5.25188 -0.12338,-4.84945 -1.81693,-4.80925 z"
         style="fill:#000000;fill-opacity:1;stroke:none;stroke-width:0.26458332px;stroke-linecap:butt;stroke-linejoin:miter;stroke-opacity:1" />
      <path
         style="fill:none;stroke:#000000;stroke-width:2.28699994;stroke-linecap:round;stroke-linejoin:miter;stroke-miterlimit:4;stroke-dasharray:none;stroke-opacity:1"
         d="m 224.29548,268.26851 c 1.1683,8.72013 -1.49565,18.72701 0.4009,27.26149"
         id="path1395"
         inkscape:connector-curvature="0" />
    </g>
    <g
       id="g1631"
       transform="translate(-0.53453906,-0.26726953)">
      <path
         id="path1571"
         d="m 226.89724,72.557596 c -7.3025,0 -13.22916,5.926666 -13.22916,13.229166 0,7.3025 5.92666,13.229167 13.22916,13.229167 7.3025,0 13.22917,-5.926667 13.22917,-13.229167 0,-7.3025 -5.92667,-13.229166 -13.22917,-13.229166 z"
         class="st0"
         inkscape:connector-curvature="0"
         style="fill:#ffffff;stroke-width:0.26458332" />
      <g
         transform="matrix(0.26458333,0,0,0.26458333,209.96391,68.853429)"
         id="g1589">
        <g
           id="g1575">
          <path
             id="path1573"
             d="m 56.3,40.2 c 5.4,-1.8 11.4,-1.8 16.8,0.2 2.9,1.1 5.7,2.8 8,5.1 -0.8,0.8 -1.6,1.6 -2.4,2.4 -1.5,1.5 -3.1,3.1 -4.6,4.6 -1.5,-1.5 -3.4,-2.6 -5.4,-3.1 -2.3,-0.7 -4.9,-0.8 -7.3,-0.3 -2.8,0.7 -5.4,2.1 -7.5,4.1 -1.6,1.6 -2.9,3.8 -3.6,5.9 -2.8,-2.1 -5.4,-4.2 -8.2,-6.4 3,-5.8 8.2,-10.4 14.2,-12.5 z"
             class="st1"
             inkscape:connector-curvature="0"
             style="fill:#ea4335" />
        </g>
        <g
           id="g1579">
          <path
             id="path1577"
             d="m 40,59 c 0.5,-2.1 1.1,-4.2 2.1,-6.4 2.8,2.1 5.4,4.2 8.2,6.4 -1.1,3.1 -1.1,6.5 0,9.8 -2.8,2.1 -5.4,4.2 -8.2,6.4 C 39.7,70.1 38.9,64.4 40,59 Z"
             class="st2"
             inkscape:connector-curvature="0"
             style="fill:#fbbc05" />
        </g>
        <g
           id="g1583">
          <path
             id="path1581"
             d="m 64.5,59.2 c 7.8,0 15.7,0 23.5,0 0.8,4.4 0.7,9 -0.7,13.2 -1.1,3.9 -3.3,7.5 -6.4,10.5 -2.6,-2.1 -5.2,-4.1 -8,-6.2 2.6,-1.8 4.4,-4.6 5.1,-7.7 -4.6,0 -9.1,0 -13.6,0 0.1,-3.3 0.1,-6.6 0.1,-9.8 z"
             class="st3"
             inkscape:connector-curvature="0"
             style="fill:#4285f4" />
        </g>
        <g
           id="g1587">
          <path
             id="path1585"
             d="m 42.1,75.2 c 2.8,-2.1 5.4,-4.2 8.2,-6.4 1,3.1 3.1,5.9 5.7,7.7 1.6,1.1 3.6,2 5.6,2.4 2,0.3 3.9,0.3 6,0 2,-0.3 3.9,-1.1 5.6,-2.1 2.6,2.1 5.2,4.1 8,6.2 -2.9,2.6 -6.4,4.4 -10.3,5.4 -4.2,1 -8.7,1 -12.7,-0.2 -3.3,-0.8 -6.4,-2.4 -9.1,-4.6 -2.9,-2.4 -5.3,-5.3 -7,-8.4 z"
             class="st4"
             inkscape:connector-curvature="0"
             style="fill:#34a853" />
        </g>
      </g>
    </g>
  </g>
  <style
     id="style1569"
     type="text/css">
	.st0{fill:#F5F5F5;}
	.st1{fill:#EA4335;}
	.st2{fill:#FBBC05;}
	.st3{fill:#4285F4;}
	.st4{fill:#34A853;}
</style>
</svg>
